EBGaramondVF-Compressed_Ultralight.ufo
<glyph name="numbersign" format="1">
  <advance width="440"/>
  <unicode hex="0023"/>
  <outline>
    <contour>
      <point x="59" y="-79" type="curve" smooth="yes"/>
      <point x="65" y="-79"/>
      <point x="75" y="-77"/>
      <point x="77" y="-68" type="curve" smooth="yes"/>
      <point x="119" y="116" type="line"/>
      <point x="242" y="122" type="line"/>
      <point x="201" y="-56" type="line"/>
      <point x="200" y="-62" type="line" smooth="yes"/>
      <point x="200" y="-66"/>
      <point x="202" y="-68"/>
      <point x="204" y="-68" type="curve" smooth="yes"/>
      <point x="210" y="-68"/>
      <point x="222" y="-66"/>
      <point x="223" y="-58" type="curve" smooth="yes"/>
      <point x="265" y="124" type="line"/>
      <point x="326" y="127" type="line" smooth="yes"/>
      <point x="346" y="128"/>
      <point x="355" y="164"/>
      <point x="355" y="174" type="curve" smooth="yes"/>
      <point x="355" y="180"/>
      <point x="349" y="185"/>
      <point x="342" y="185" type="curve"/>
      <point x="279" y="182" type="line"/>
      <point x="311" y="322" type="line"/>
      <point x="370" y="325" type="line" smooth="yes"/>
      <point x="390" y="326"/>
      <point x="398" y="363"/>
      <point x="398" y="372" type="curve" smooth="yes"/>
      <point x="398" y="379"/>
      <point x="393" y="383"/>
      <point x="386" y="383" type="curve"/>
      <point x="325" y="380" type="line"/>
      <point x="365" y="557" type="line"/>
      <point x="365" y="559"/>
      <point x="366" y="561"/>
      <point x="366" y="563" type="curve" smooth="yes"/>
      <point x="366" y="567"/>
      <point x="362" y="570"/>
      <point x="359" y="570" type="curve" smooth="yes"/>
      <point x="353" y="570"/>
      <point x="344" y="568"/>
      <point x="341" y="557" type="curve" smooth="yes"/>
      <point x="300" y="378" type="line"/>
      <point x="178" y="372" type="line"/>
      <point x="217" y="542" type="line" smooth="yes"/>
      <point x="218" y="546"/>
      <point x="219" y="550"/>
      <point x="219" y="553" type="curve" smooth="yes"/>
      <point x="218" y="556"/>
      <point x="217" y="559"/>
      <point x="212" y="559" type="curve" smooth="yes"/>
      <point x="207" y="559"/>
      <point x="197" y="556"/>
      <point x="195" y="546" type="curve" smooth="yes"/>
      <point x="155" y="370" type="line"/>
      <point x="82" y="367" type="line" smooth="yes"/>
      <point x="63" y="366"/>
      <point x="60" y="330"/>
      <point x="60" y="321" type="curve" smooth="yes"/>
      <point x="60" y="314"/>
      <point x="66" y="309"/>
      <point x="73" y="309" type="curve"/>
      <point x="141" y="312" type="line"/>
      <point x="109" y="172" type="line"/>
      <point x="38" y="169" type="line" smooth="yes"/>
      <point x="19" y="168"/>
      <point x="16" y="132"/>
      <point x="16" y="123" type="curve" smooth="yes"/>
      <point x="16" y="116"/>
      <point x="23" y="111"/>
      <point x="29" y="111" type="curve"/>
      <point x="96" y="114" type="line"/>
      <point x="55" y="-64" type="line"/>
      <point x="54" y="-73" type="line" smooth="yes"/>
      <point x="54" y="-77"/>
      <point x="56" y="-79"/>
    </contour>
    <contour>
      <point x="133" y="175" type="line"/>
      <point x="165" y="314" type="line"/>
      <point x="287" y="319" type="line"/>
      <point x="256" y="180" type="line"/>
    </contour>
  </outline>
</glyph>
<glyph name="dollar" format="1">
  <advance width="416"/>
  <unicode hex="0024"/>
  <outline>
    <contour>
      <point x="163" y="-80" type="curve" smooth="yes"/>
      <point x="169" y="-80"/>
      <point x="177" y="-77"/>
      <point x="178" y="-68" type="curve" smooth="yes"/>
      <point x="186" y="10" type="line" smooth="yes"/>
      <point x="186" y="15"/>
      <point x="190" y="17"/>
      <point x="195" y="17" type="curve" smooth="yes"/>
      <point x="296" y="18"/>
      <point x="375" y="94"/>
      <point x="375" y="193" type="curve" smooth="yes"/>
      <point x="375" y="280"/>
      <point x="317" y="324"/>
      <point x="244" y="370" type="curve" smooth="yes"/>
      <point x="229" y="378"/>
      <point x="230" y="380"/>
      <point x="231" y="388" type="curve" smooth="yes"/>
      <point x="255" y="595" type="line"/>
      <point x="255" y="597"/>
      <point x="257" y="600"/>
      <point x="260" y="600" type="curve" smooth="yes"/>
      <point x="291" y="601"/>
      <point x="317" y="547"/>
      <point x="334" y="498" type="curve" smooth="yes"/>
      <point x="337" y="490"/>
      <point x="347" y="484"/>
      <point x="357" y="484" type="curve" smooth="yes"/>
      <point x="363" y="484"/>
      <point x="370" y="487"/>
      <point x="370" y="495" type="curve" smooth="yes"/>
      <point x="370" y="524"/>
      <point x="358" y="562"/>
      <point x="351" y="588" type="curve" smooth="yes"/>
      <point x="348" y="596"/>
      <point x="342" y="606"/>
      <point x="333" y="610" type="curve" smooth="yes"/>
      <point x="319" y="616"/>
      <point x="292" y="627"/>
      <point x="264" y="629" type="curve" smooth="yes"/>
      <point x="262" y="629"/>
      <point x="261" y="632"/>
      <point x="261" y="636" type="curve" smooth="yes"/>
      <point x="261" y="645"/>
      <point x="267" y="693"/>
      <point x="267" y="701" type="curve"/>
      <point x="267" y="708"/>
      <point x="265" y="712"/>
      <point x="261" y="712" type="curve" smooth="yes"/>
      <point x="255" y="712"/>
      <point x="241" y="711"/>
      <point x="240" y="698" type="curve" smooth="yes"/>
      <point x="235" y="638" type="line" smooth="yes"/>
      <point x="235" y="635"/>
      <point x="233" y="632"/>
      <point x="230" y="632" type="curve" smooth="yes"/>
      <point x="112" y="632"/>
      <point x="53" y="553"/>
      <point x="53" y="469" type="curve" smooth="yes"/>
      <point x="53" y="395"/>
      <point x="122" y="343"/>
      <point x="181" y="305" type="curve" smooth="yes"/>
      <point x="192" y="298"/>
      <point x="194" y="293"/>
      <point x="193" y="287" type="curve" smooth="yes"/>
      <point x="165" y="50" type="line" smooth="yes"/>
      <point x="165" y="46"/>
      <point x="160" y="46"/>
      <point x="156" y="48" type="curve" smooth="yes"/>
      <point x="125" y="63"/>
      <point x="87" y="90"/>
      <point x="67" y="177" type="curve" smooth="yes"/>
      <point x="65" y="184"/>
      <point x="60" y="188"/>
      <point x="53" y="188" type="curve" smooth="yes"/>
      <point x="45" y="188"/>
      <point x="38" y="183"/>
      <point x="38" y="175" type="curve"/>
      <point x="40" y="150"/>
      <point x="39" y="104"/>
      <point x="46" y="79" type="curve" smooth="yes"/>
      <point x="48" y="72"/>
      <point x="53" y="66"/>
      <point x="57" y="61" type="curve" smooth="yes"/>
      <point x="82" y="40"/>
      <point x="124" y="20"/>
      <point x="153" y="19" type="curve" smooth="yes"/>
      <point x="156" y="19"/>
      <point x="161" y="16"/>
      <point x="161" y="10" type="curve"/>
      <point x="153" y="-66" type="line" smooth="yes"/>
      <point x="151" y="-74"/>
      <point x="157" y="-81"/>
    </contour>
    <contour>
      <point x="199" y="39" type="curve"/>
      <point x="193" y="39"/>
      <point x="191" y="41"/>
      <point x="191" y="49" type="curve"/>
      <point x="217" y="271" type="line" smooth="yes"/>
      <point x="217" y="275"/>
      <point x="220" y="278"/>
      <point x="224" y="275" type="curve" smooth="yes"/>
      <point x="268" y="251"/>
      <point x="298" y="218"/>
      <point x="298" y="163" type="curve" smooth="yes"/>
      <point x="298" y="102"/>
      <point x="256" y="40"/>
    </contour>
    <contour>
      <point x="197" y="402" type="curve"/>
      <point x="156" y="425"/>
      <point x="129" y="459"/>
      <point x="129" y="495" type="curve" smooth="yes"/>
      <point x="129" y="560"/>
      <point x="172" y="608"/>
      <point x="224" y="607" type="curve" smooth="yes"/>
      <point x="229" y="607"/>
      <point x="231" y="605"/>
      <point x="231" y="600" type="curve"/>
      <point x="207" y="404" type="line"/>
      <point x="207" y="401"/>
      <point x="205" y="398"/>
    </contour>
  </outline>
</glyph>
<glyph name="ampersand" format="1">
  <advance width="712"/>
  <unicode hex="0026"/>
  <outline>
    <contour>
      <point x="199" y="-15" type="curve" smooth="yes"/>
      <point x="286" y="-15"/>
      <point x="329" y="48"/>
      <point x="387" y="116" type="curve"/>
      <point x="393" y="122" type="line"/>
      <point x="407" y="99" type="line" smooth="yes"/>
      <point x="456" y="21"/>
      <point x="481" y="-14"/>
      <point x="551" y="-14" type="curve" smooth="yes"/>
      <point x="602" y="-14"/>
      <point x="670" y="40"/>
      <point x="670" y="57" type="curve" smooth="yes"/>
      <point x="670" y="61"/>
      <point x="670" y="64"/>
      <point x="664" y="64" type="curve" smooth="yes"/>
      <point x="661" y="64"/>
      <point x="656" y="60"/>
      <point x="648" y="55" type="curve" smooth="yes"/>
      <point x="634" y="44"/>
      <point x="613" y="34"/>
      <point x="579" y="34" type="curve" smooth="yes"/>
      <point x="531" y="34"/>
      <point x="488" y="80"/>
      <point x="449" y="140" type="curve" smooth="yes"/>
      <point x="431" y="167" type="line"/>
      <point x="431" y="167"/>
      <point x="584" y="342"/>
      <point x="596" y="353" type="curve"/>
      <point x="613" y="369"/>
      <point x="639" y="384"/>
      <point x="667" y="386" type="curve" smooth="yes"/>
      <point x="678" y="387"/>
      <point x="693" y="393"/>
      <point x="693" y="400" type="curve" smooth="yes"/>
      <point x="693" y="404"/>
      <point x="685" y="409"/>
      <point x="681" y="409" type="curve" smooth="yes"/>
      <point x="658" y="409"/>
      <point x="618" y="402"/>
      <point x="590" y="402" type="curve" smooth="yes"/>
      <point x="576" y="402"/>
      <point x="527" y="407"/>
      <point x="521" y="407" type="curve" smooth="yes"/>
      <point x="516" y="407"/>
      <point x="501" y="404"/>
      <point x="501" y="396" type="curve" smooth="yes"/>
      <point x="501" y="390"/>
      <point x="509" y="389"/>
      <point x="519" y="386" type="curve"/>
      <point x="550" y="383"/>
      <point x="554" y="374"/>
      <point x="554" y="365" type="curve" smooth="yes"/>
      <point x="554" y="344"/>
      <point x="481" y="252"/>
      <point x="438" y="202" type="curve" smooth="yes"/>
      <point x="421" y="183" type="line"/>
      <point x="405" y="202" type="line" smooth="yes"/>
      <point x="363" y="257"/>
      <point x="338" y="288"/>
      <point x="290" y="343" type="curve" smooth="yes"/>
      <point x="278" y="357" type="line"/>
      <point x="292" y="362" type="line" smooth="yes"/>
      <point x="353" y="387"/>
      <point x="389" y="426"/>
      <point x="388" y="479" type="curve" smooth="yes"/>
      <point x="388" y="530"/>
      <point x="350" y="599"/>
      <point x="267" y="599" type="curve" smooth="yes"/>
      <point x="202" y="599"/>
      <point x="135" y="554"/>
      <point x="135" y="484" type="curve" smooth="yes"/>
      <point x="135" y="425"/>
      <point x="177" y="392"/>
      <point x="195" y="370" type="curve"/>
      <point x="213" y="349" type="line"/>
      <point x="194" y="340" type="line" smooth="yes"/>
      <point x="98" y="295"/>
      <point x="35" y="235"/>
      <point x="35" y="127" type="curve" smooth="yes"/>
      <point x="35" y="45"/>
      <point x="102" y="-15"/>
    </contour>
    <contour>
      <point x="224" y="48" type="curve" smooth="yes"/>
      <point x="156" y="48"/>
      <point x="110" y="98"/>
      <point x="110" y="159" type="curve" smooth="yes"/>
      <point x="110" y="218"/>
      <point x="121" y="288"/>
      <point x="207" y="324" type="curve" smooth="yes"/>
      <point x="227" y="332" type="line"/>
      <point x="241" y="316" type="line" smooth="yes"/>
      <point x="295" y="254"/>
      <point x="330" y="207"/>
      <point x="367" y="160" type="curve" smooth="yes"/>
      <point x="381" y="140" type="line"/>
      <point x="373" y="131" type="line" smooth="yes"/>
      <point x="324" y="79"/>
      <point x="284" y="48"/>
    </contour>
    <contour>
      <point x="268" y="371" type="line"/>
      <point x="254" y="390" type="line" smooth="yes"/>
      <point x="206" y="447"/>
      <point x="192" y="469"/>
      <point x="192" y="508" type="curve" smooth="yes"/>
      <point x="192" y="549"/>
      <point x="225" y="580"/>
      <point x="262" y="580" type="curve" smooth="yes"/>
      <point x="305" y="580"/>
      <point x="326" y="533"/>
      <point x="326" y="483" type="curve" smooth="yes"/>
      <point x="326" y="443"/>
      <point x="315" y="398"/>
      <point x="283" y="379" type="curve" smooth="yes"/>
    </contour>
  </outline>
</glyph>
<glyph name="quotesingle" format="1">
  <advance width="198"/>
  <unicode hex="0027"/>
  <outline>
    <contour>
      <point x="73" y="449" type="curve" smooth="yes"/>
      <point x="75" y="447"/>
      <point x="79" y="455"/>
      <point x="86" y="463" type="curve" smooth="yes"/>
      <point x="102" y="493"/>
      <point x="132" y="561"/>
      <point x="132" y="605" type="curve" smooth="yes"/>
      <point x="134" y="627"/>
      <point x="133" y="657"/>
      <point x="126" y="669" type="curve" smooth="yes"/>
      <point x="114" y="673"/>
      <point x="105" y="670"/>
      <point x="90" y="660" type="curve" smooth="yes"/>
      <point x="81" y="654"/>
      <point x="70" y="642"/>
      <point x="66" y="628" type="curve"/>
      <point x="64" y="601"/>
      <point x="69" y="566"/>
      <point x="69" y="546" type="curve" smooth="yes"/>
      <point x="69" y="532"/>
      <point x="72" y="500"/>
      <point x="72" y="480" type="curve" smooth="yes"/>
      <point x="72" y="469"/>
      <point x="72" y="454"/>
    </contour>
  </outline>
</glyph>
<glyph name="asterisk" format="1">
  <advance width="321"/>
  <unicode hex="002A"/>
  <outline>
    <contour>
      <point x="174" y="372" type="curve" smooth="yes"/>
      <point x="180" y="372"/>
      <point x="183" y="382"/>
      <point x="184" y="394" type="curve" smooth="yes"/>
      <point x="186" y="431"/>
      <point x="185" y="459"/>
      <point x="184" y="488" type="curve"/>
      <point x="209" y="479"/>
      <point x="235" y="467"/>
      <point x="265" y="459" type="curve" smooth="yes"/>
      <point x="273" y="457"/>
      <point x="289" y="457"/>
      <point x="289" y="463" type="curve" smooth="yes"/>
      <point x="289" y="467"/>
      <point x="285" y="474"/>
      <point x="279" y="477" type="curve" smooth="yes"/>
      <point x="245" y="499"/>
      <point x="226" y="509"/>
      <point x="201" y="525" type="curve"/>
      <point x="265" y="586" type="line" smooth="yes"/>
      <point x="270" y="591"/>
      <point x="273" y="598"/>
      <point x="273" y="604" type="curve" smooth="yes"/>
      <point x="273" y="608"/>
      <point x="270" y="612"/>
      <point x="265" y="612" type="curve" smooth="yes"/>
      <point x="261" y="612"/>
      <point x="255" y="608"/>
      <point x="251" y="606" type="curve" smooth="yes"/>
      <point x="222" y="590"/>
      <point x="199" y="575"/>
      <point x="177" y="559" type="curve"/>
      <point x="159" y="651" type="line" smooth="yes"/>
      <point x="157" y="661"/>
      <point x="154" y="670"/>
      <point x="148" y="670" type="curve" smooth="yes"/>
      <point x="142" y="670"/>
      <point x="138" y="660"/>
      <point x="138" y="646" type="curve" smooth="yes"/>
      <point x="136" y="613"/>
      <point x="137" y="583"/>
      <point x="137" y="554" type="curve"/>
      <point x="112" y="566"/>
      <point x="85" y="576"/>
      <point x="56" y="585" type="curve" smooth="yes"/>
      <point x="48" y="588"/>
      <point x="33" y="589"/>
      <point x="33" y="580" type="curve" smooth="yes"/>
      <point x="33" y="573"/>
      <point x="40" y="567"/>
      <point x="48" y="562" type="curve" smooth="yes"/>
      <point x="75" y="545"/>
      <point x="99" y="531"/>
      <point x="121" y="517" type="curve"/>
      <point x="57" y="457" type="line" smooth="yes"/>
      <point x="52" y="453"/>
      <point x="50" y="447"/>
      <point x="50" y="441" type="curve" smooth="yes"/>
      <point x="50" y="436"/>
      <point x="52" y="433"/>
      <point x="59" y="433" type="curve" smooth="yes"/>
      <point x="63" y="433"/>
      <point x="68" y="435"/>
      <point x="71" y="437" type="curve" smooth="yes"/>
      <point x="100" y="454"/>
      <point x="121" y="469"/>
      <point x="145" y="483" type="curve"/>
      <point x="163" y="390" type="line" smooth="yes"/>
      <point x="165" y="380"/>
      <point x="169" y="372"/>
    </contour>
  </outline>
</glyph>
<glyph name="plus" format="1">
  <advance width="551"/>
  <unicode hex="002B"/>
  <outline>
    <contour>
      <point x="267" y="8" type="curve" smooth="yes"/>
      <point x="271" y="8"/>
      <point x="288" y="9"/>
      <point x="288" y="21" type="curve" smooth="yes"/>
      <point x="288" y="230" type="line" smooth="yes"/>
      <point x="288" y="232"/>
      <point x="289" y="232"/>
      <point x="290" y="232" type="curve" smooth="yes"/>
      <point x="478" y="232" type="line" smooth="yes"/>
      <point x="497" y="232"/>
      <point x="509" y="245"/>
      <point x="509" y="253" type="curve" smooth="yes"/>
      <point x="509" y="256"/>
      <point x="503" y="258"/>
      <point x="496" y="258" type="curve" smooth="yes"/>
      <point x="289" y="258" type="line" smooth="yes"/>
      <point x="288" y="258"/>
      <point x="288" y="259"/>
      <point x="288" y="261" type="curve" smooth="yes"/>
      <point x="288" y="461" type="line" smooth="yes"/>
      <point x="288" y="465"/>
      <point x="284" y="468"/>
      <point x="281" y="468" type="curve" smooth="yes"/>
      <point x="278" y="468"/>
      <point x="261" y="463"/>
      <point x="261" y="452" type="curve" smooth="yes"/>
      <point x="261" y="262" type="line" smooth="yes"/>
      <point x="261" y="259"/>
      <point x="261" y="258"/>
      <point x="258" y="258" type="curve" smooth="yes"/>
      <point x="66" y="258" type="line" smooth="yes"/>
      <point x="48" y="258"/>
      <point x="42" y="243"/>
      <point x="42" y="238" type="curve" smooth="yes"/>
      <point x="42" y="235"/>
      <point x="49" y="232"/>
      <point x="56" y="232" type="curve" smooth="yes"/>
      <point x="259" y="232" type="line" smooth="yes"/>
      <point x="260" y="232"/>
      <point x="261" y="232"/>
      <point x="261" y="230" type="curve" smooth="yes"/>
      <point x="261" y="15" type="line" smooth="yes"/>
      <point x="261" y="11"/>
      <point x="264" y="8"/>
    </contour>
  </outline>
</glyph>
<glyph name="hyphen" format="1">
  <advance width="256"/>
  <unicode hex="002D"/>
  <outline>
    <contour>
      <point x="33" y="199" type="curve"/>
      <point x="92" y="204"/>
      <point x="151" y="209"/>
      <point x="209" y="213" type="curve" smooth="yes"/>
      <point x="224" y="215"/>
      <point x="229" y="229"/>
      <point x="229" y="238" type="curve" smooth="yes"/>
      <point x="229" y="240"/>
      <point x="225" y="241"/>
      <point x="221" y="241" type="curve"/>
      <point x="162" y="235"/>
      <point x="102" y="231"/>
      <point x="42" y="225" type="curve"/>
      <point x="33" y="225"/>
      <point x="27" y="210"/>
      <point x="27" y="201" type="curve" smooth="yes"/>
      <point x="27" y="200"/>
      <point x="28" y="199"/>
    </contour>
  </outline>
</glyph>
<glyph name="zero" format="1">
  <advance width="452"/>
  <unicode hex="0030"/>
  <outline>
    <contour>
      <point x="221" y="-14" type="curve" smooth="yes"/>
      <point x="361" y="-14"/>
      <point x="419" y="164"/>
      <point x="419" y="316" type="curve" smooth="yes"/>
      <point x="419" y="463"/>
      <point x="359" y="630"/>
      <point x="231" y="630" type="curve" smooth="yes"/>
      <point x="91" y="630"/>
      <point x="33" y="456"/>
      <point x="33" y="302" type="curve" smooth="yes"/>
      <point x="33" y="152"/>
      <point x="93" y="-14"/>
    </contour>
    <contour>
      <point x="237" y="12" type="curve" smooth="yes"/>
      <point x="154" y="12"/>
      <point x="114" y="168"/>
      <point x="114" y="320" type="curve" smooth="yes"/>
      <point x="114" y="472"/>
      <point x="140" y="602"/>
      <point x="213" y="602" type="curve" smooth="yes"/>
      <point x="296" y="602"/>
      <point x="339" y="450"/>
      <point x="339" y="298" type="curve" smooth="yes"/>
      <point x="339" y="146"/>
      <point x="311" y="12"/>
    </contour>
  </outline>
</glyph>
<glyph name="one" format="1">
  <advance width="452"/>
  <unicode hex="0031"/>
  <outline>
    <contour>
      <point x="100" y="-3" type="curve" smooth="yes"/>
      <point x="148" y="-3"/>
      <point x="190" y="2"/>
      <point x="240" y="2" type="curve" smooth="yes"/>
      <point x="289" y="2"/>
      <point x="326" y="-3"/>
      <point x="377" y="-3" type="curve" smooth="yes"/>
      <point x="386" y="-3"/>
      <point x="392" y="2"/>
      <point x="392" y="6" type="curve" smooth="yes"/>
      <point x="392" y="10"/>
      <point x="385" y="15"/>
      <point x="374" y="17" type="curve" smooth="yes"/>
      <point x="299" y="26"/>
      <point x="277" y="29"/>
      <point x="277" y="95" type="curve" smooth="yes"/>
      <point x="277" y="557" type="line" smooth="yes"/>
      <point x="277" y="585"/>
      <point x="278" y="606"/>
      <point x="281" y="626" type="curve" smooth="yes"/>
      <point x="281" y="632"/>
      <point x="275" y="637"/>
      <point x="267" y="637" type="curve" smooth="yes"/>
      <point x="263" y="637"/>
      <point x="256" y="636"/>
      <point x="242" y="614" type="curve" smooth="yes"/>
      <point x="222" y="582"/>
      <point x="188" y="567"/>
      <point x="122" y="565" type="curve" smooth="yes"/>
      <point x="108" y="564"/>
      <point x="98" y="561"/>
      <point x="98" y="554" type="curve" smooth="yes"/>
      <point x="98" y="547"/>
      <point x="110" y="544"/>
      <point x="123" y="544" type="curve" smooth="yes"/>
      <point x="185" y="542"/>
      <point x="201" y="534"/>
      <point x="201" y="485" type="curve" smooth="yes"/>
      <point x="201" y="97" type="line" smooth="yes"/>
      <point x="201" y="29"/>
      <point x="169" y="24"/>
      <point x="100" y="17" type="curve" smooth="yes"/>
      <point x="91" y="15"/>
      <point x="84" y="10"/>
      <point x="84" y="7" type="curve" smooth="yes"/>
      <point x="84" y="2"/>
      <point x="89" y="-3"/>
    </contour>
  </outline>
</glyph>
<glyph name="two" format="1">
  <advance width="452"/>
  <unicode hex="0032"/>
  <outline>
    <contour>
      <point x="393" y="-3" type="curve" smooth="yes"/>
      <point x="400" y="-3"/>
      <point x="410" y="0"/>
      <point x="414" y="21" type="curve" smooth="yes"/>
      <point x="423" y="71"/>
      <point x="443" y="138"/>
      <point x="443" y="148" type="curve" smooth="yes"/>
      <point x="443" y="154"/>
      <point x="442" y="162"/>
      <point x="436" y="162" type="curve" smooth="yes"/>
      <point x="429" y="162"/>
      <point x="426" y="156"/>
      <point x="422" y="144" type="curve" smooth="yes"/>
      <point x="407" y="85"/>
      <point x="391" y="65"/>
      <point x="335" y="63" type="curve" smooth="yes"/>
      <point x="287" y="62"/>
      <point x="251" y="61"/>
      <point x="219" y="61" type="curve" smooth="yes"/>
      <point x="184" y="61"/>
      <point x="143" y="61"/>
      <point x="123" y="64" type="curve" smooth="yes"/>
      <point x="115" y="65"/>
      <point x="110" y="66"/>
      <point x="110" y="71" type="curve" smooth="yes"/>
      <point x="146" y="109"/>
      <point x="194" y="167"/>
      <point x="236" y="211" type="curve" smooth="yes"/>
      <point x="319" y="292"/>
      <point x="384" y="381"/>
      <point x="384" y="484" type="curve" smooth="yes"/>
      <point x="384" y="561"/>
      <point x="330" y="630"/>
      <point x="234" y="630" type="curve" smooth="yes"/>
      <point x="125" y="630"/>
      <point x="76" y="536"/>
      <point x="60" y="486" type="curve" smooth="yes"/>
      <point x="59" y="476"/>
      <point x="61" y="465"/>
      <point x="67" y="465" type="curve" smooth="yes"/>
      <point x="74" y="465"/>
      <point x="78" y="474"/>
      <point x="82" y="481" type="curve" smooth="yes"/>
      <point x="114" y="535"/>
      <point x="153" y="566"/>
      <point x="204" y="566" type="curve" smooth="yes"/>
      <point x="269" y="566"/>
      <point x="303" y="518"/>
      <point x="303" y="448" type="curve" smooth="yes"/>
      <point x="303" y="359"/>
      <point x="256" y="261"/>
      <point x="182" y="183" type="curve" smooth="yes"/>
      <point x="38" y="28" type="line" smooth="yes"/>
      <point x="33" y="22"/>
      <point x="31" y="21"/>
      <point x="31" y="15" type="curve" smooth="yes"/>
      <point x="31" y="9"/>
      <point x="45" y="-2"/>
      <point x="49" y="-2" type="curve" smooth="yes"/>
      <point x="68" y="-2"/>
      <point x="221" y="3"/>
      <point x="268" y="3" type="curve" smooth="yes"/>
      <point x="314" y="3"/>
      <point x="375" y="-3"/>
    </contour>
  </outline>
</glyph>
<glyph name="three" format="1">
  <advance width="452"/>
  <unicode hex="0033"/>
  <outline>
    <contour>
      <point x="150" y="-38" type="curve" smooth="yes"/>
      <point x="279" y="-38"/>
      <point x="412" y="52"/>
      <point x="412" y="202" type="curve" smooth="yes"/>
      <point x="412" y="288"/>
      <point x="344" y="361"/>
      <point x="268" y="362" type="curve" smooth="yes"/>
      <point x="264" y="362"/>
      <point x="264" y="366"/>
      <point x="267" y="368" type="curve"/>
      <point x="338" y="412"/>
      <point x="367" y="467"/>
      <point x="367" y="515" type="curve" smooth="yes"/>
      <point x="367" y="584"/>
      <point x="307" y="630"/>
      <point x="243" y="630" type="curve" smooth="yes"/>
      <point x="122" y="630"/>
      <point x="63" y="536"/>
      <point x="63" y="500" type="curve" smooth="yes"/>
      <point x="63" y="490"/>
      <point x="66" y="479"/>
      <point x="78" y="479" type="curve" smooth="yes"/>
      <point x="86" y="479"/>
      <point x="104" y="571"/>
      <point x="200" y="571" type="curve" smooth="yes"/>
      <point x="256" y="571"/>
      <point x="289" y="531"/>
      <point x="289" y="474" type="curve" smooth="yes"/>
      <point x="289" y="390"/>
      <point x="208" y="342"/>
      <point x="174" y="328" type="curve" smooth="yes"/>
      <point x="161" y="322"/>
      <point x="149" y="315"/>
      <point x="145" y="297" type="curve" smooth="yes"/>
      <point x="144" y="289"/>
      <point x="153" y="285"/>
      <point x="161" y="291" type="curve" smooth="yes"/>
      <point x="181" y="304"/>
      <point x="208" y="307"/>
      <point x="222" y="307" type="curve" smooth="yes"/>
      <point x="293" y="307"/>
      <point x="330" y="227"/>
      <point x="330" y="152" type="curve" smooth="yes"/>
      <point x="330" y="66"/>
      <point x="278" y="-7"/>
      <point x="194" y="-7" type="curve" smooth="yes"/>
      <point x="159" y="-7"/>
      <point x="140" y="16"/>
      <point x="124" y="33" type="curve" smooth="yes"/>
      <point x="112" y="44"/>
      <point x="101" y="55"/>
      <point x="87" y="55" type="curve" smooth="yes"/>
      <point x="72" y="57"/>
      <point x="45" y="26"/>
      <point x="45" y="11" type="curve" smooth="yes"/>
      <point x="45" y="-13"/>
      <point x="106" y="-38"/>
    </contour>
  </outline>
</glyph>
<glyph name="four" format="1">
  <advance width="452"/>
  <unicode hex="0034"/>
  <outline>
    <contour>
      <point x="199" y="-3" type="curve" smooth="yes"/>
      <point x="249" y="-3"/>
      <point x="263" y="3"/>
      <point x="308" y="3" type="curve" smooth="yes"/>
      <point x="353" y="3"/>
      <point x="365" y="-4"/>
      <point x="416" y="-4" type="curve" smooth="yes"/>
      <point x="426" y="-4"/>
      <point x="433" y="1"/>
      <point x="433" y="7" type="curve" smooth="yes"/>
      <point x="433" y="12"/>
      <point x="424" y="16"/>
      <point x="413" y="18" type="curve" smooth="yes"/>
      <point x="364" y="20"/>
      <point x="348" y="33"/>
      <point x="348" y="64" type="curve" smooth="yes"/>
      <point x="348" y="182" type="line" smooth="yes"/>
      <point x="348" y="183"/>
      <point x="355" y="187"/>
      <point x="359" y="188" type="curve"/>
      <point x="366" y="189"/>
      <point x="376" y="190"/>
      <point x="388" y="190" type="curve" smooth="yes"/>
      <point x="402" y="190"/>
      <point x="419" y="189"/>
      <point x="432" y="189" type="curve" smooth="yes"/>
      <point x="436" y="189"/>
      <point x="452" y="200"/>
      <point x="452" y="216" type="curve" smooth="yes"/>
      <point x="452" y="224"/>
      <point x="447" y="228"/>
      <point x="442" y="228" type="curve"/>
      <point x="422" y="227"/>
      <point x="406" y="226"/>
      <point x="388" y="226" type="curve" smooth="yes"/>
      <point x="377" y="226"/>
      <point x="365" y="226"/>
      <point x="352" y="227" type="curve"/>
      <point x="349" y="227"/>
      <point x="347" y="230"/>
      <point x="347" y="233" type="curve" smooth="yes"/>
      <point x="347" y="353" type="line" smooth="yes"/>
      <point x="347" y="395"/>
      <point x="347" y="417"/>
      <point x="333" y="417" type="curve" smooth="yes"/>
      <point x="326" y="417"/>
      <point x="295" y="415"/>
      <point x="277" y="404" type="curve"/>
      <point x="270" y="400"/>
      <point x="269" y="396"/>
      <point x="269" y="382" type="curve" smooth="yes"/>
      <point x="269" y="235" type="line" smooth="yes"/>
      <point x="269" y="231"/>
      <point x="262" y="227"/>
      <point x="258" y="227" type="curve" smooth="yes"/>
      <point x="79" y="227" type="line" smooth="yes"/>
      <point x="76" y="227"/>
      <point x="78" y="233"/>
      <point x="79" y="236" type="curve" smooth="yes"/>
      <point x="333" y="631" type="line"/>
      <point x="337" y="635"/>
      <point x="337" y="642"/>
      <point x="333" y="642" type="curve" smooth="yes"/>
      <point x="316" y="642" type="line" smooth="yes"/>
      <point x="310" y="642"/>
      <point x="304" y="631"/>
      <point x="297" y="619" type="curve" smooth="yes"/>
      <point x="51" y="235" type="line" smooth="yes"/>
      <point x="39" y="217"/>
      <point x="32" y="208"/>
      <point x="21" y="192" type="curve" smooth="yes"/>
      <point x="21" y="191"/>
      <point x="21" y="190"/>
      <point x="21" y="189" type="curve" smooth="yes"/>
      <point x="21" y="185"/>
      <point x="25" y="179"/>
      <point x="30" y="179" type="curve" smooth="yes"/>
      <point x="106" y="179"/>
      <point x="179" y="186"/>
      <point x="255" y="186" type="curve" smooth="yes"/>
      <point x="256" y="186"/>
      <point x="269" y="183"/>
      <point x="269" y="177" type="curve" smooth="yes"/>
      <point x="269" y="61" type="line" smooth="yes"/>
      <point x="269" y="30"/>
      <point x="258" y="19"/>
      <point x="200" y="18" type="curve" smooth="yes"/>
      <point x="189" y="17"/>
      <point x="180" y="13"/>
      <point x="180" y="7" type="curve" smooth="yes"/>
      <point x="180" y="0"/>
      <point x="190" y="-3"/>
    </contour>
  </outline>
</glyph>
<glyph name="five" format="1">
  <advance width="452"/>
  <unicode hex="0035"/>
  <outline>
    <contour>
      <point x="104" y="-38" type="curve" smooth="yes"/>
      <point x="171" y="-38"/>
      <point x="232" y="-20"/>
      <point x="282" y="10" type="curve" smooth="yes"/>
      <point x="350" y="53"/>
      <point x="395" y="120"/>
      <point x="395" y="193" type="curve" smooth="yes"/>
      <point x="395" y="274"/>
      <point x="360" y="322"/>
      <point x="290" y="361" type="curve" smooth="yes"/>
      <point x="247" y="385"/>
      <point x="178" y="407"/>
      <point x="118" y="425" type="curve" smooth="yes"/>
      <point x="108" y="428"/>
      <point x="105" y="435"/>
      <point x="107" y="444" type="curve" smooth="yes"/>
      <point x="108" y="460"/>
      <point x="133" y="524"/>
      <point x="145" y="526" type="curve" smooth="yes"/>
      <point x="172" y="531"/>
      <point x="266" y="538"/>
      <point x="312" y="544" type="curve" smooth="yes"/>
      <point x="327" y="546"/>
      <point x="337" y="556"/>
      <point x="346" y="576" type="curve" smooth="yes"/>
      <point x="350" y="586"/>
      <point x="356" y="598"/>
      <point x="362" y="609" type="curve" smooth="yes"/>
      <point x="366" y="618"/>
      <point x="361" y="627"/>
      <point x="351" y="626" type="curve" smooth="yes"/>
      <point x="278" y="619"/>
      <point x="215" y="608"/>
      <point x="158" y="592" type="curve" smooth="yes"/>
      <point x="138" y="587"/>
      <point x="126" y="576"/>
      <point x="119" y="556" type="curve" smooth="yes"/>
      <point x="105" y="512"/>
      <point x="74" y="434"/>
      <point x="74" y="398" type="curve" smooth="yes"/>
      <point x="74" y="380"/>
      <point x="79" y="367"/>
      <point x="96" y="352" type="curve"/>
      <point x="257" y="317"/>
      <point x="318" y="259"/>
      <point x="318" y="180" type="curve" smooth="yes"/>
      <point x="318" y="83"/>
      <point x="276" y="-1"/>
      <point x="102" y="-16" type="curve" smooth="yes"/>
      <point x="89" y="-17"/>
      <point x="69" y="-22"/>
      <point x="69" y="-28" type="curve" smooth="yes"/>
      <point x="69" y="-34"/>
      <point x="88" y="-38"/>
    </contour>
  </outline>
</glyph>
<glyph name="six" format="1">
  <advance width="452"/>
  <unicode hex="0036"/>
  <outline>
    <contour>
      <point x="238" y="-16" type="curve" smooth="yes"/>
      <point x="329" y="-16"/>
      <point x="429" y="65"/>
      <point x="429" y="189" type="curve" smooth="yes"/>
      <point x="429" y="262"/>
      <point x="371" y="313"/>
      <point x="306" y="313" type="curve" smooth="yes"/>
      <point x="282" y="313"/>
      <point x="252" y="302"/>
      <point x="224" y="286" type="curve" smooth="yes"/>
      <point x="212" y="279"/>
      <point x="200" y="270"/>
      <point x="190" y="261" type="curve" smooth="yes"/>
      <point x="179" y="250"/>
      <point x="181" y="237"/>
      <point x="196" y="247" type="curve" smooth="yes"/>
      <point x="218" y="263"/>
      <point x="248" y="275"/>
      <point x="270" y="275" type="curve" smooth="yes"/>
      <point x="319" y="275"/>
      <point x="353" y="215"/>
      <point x="353" y="142" type="curve" smooth="yes"/>
      <point x="353" y="51"/>
      <point x="307" y="9"/>
      <point x="251" y="10" type="curve" smooth="yes"/>
      <point x="197" y="11"/>
      <point x="130" y="73"/>
      <point x="128" y="187" type="curve" smooth="yes"/>
      <point x="126" y="305"/>
      <point x="166" y="424"/>
      <point x="247" y="511" type="curve" smooth="yes"/>
      <point x="288" y="558"/>
      <point x="345" y="591"/>
      <point x="402" y="618" type="curve" smooth="yes"/>
      <point x="408" y="621"/>
      <point x="419" y="625"/>
      <point x="423" y="634" type="curve" smooth="yes"/>
      <point x="424" y="637"/>
      <point x="417" y="646"/>
      <point x="399" y="640" type="curve" smooth="yes"/>
      <point x="335" y="616"/>
      <point x="276" y="581"/>
      <point x="224" y="537" type="curve" smooth="yes"/>
      <point x="110" y="449"/>
      <point x="44" y="329"/>
      <point x="44" y="193" type="curve" smooth="yes"/>
      <point x="44" y="53"/>
      <point x="141" y="-16"/>
    </contour>
  </outline>
</glyph>
<glyph name="seven" format="1">
  <advance width="457"/>
  <unicode hex="0037"/>
  <outline>
    <contour>
      <point x="107" y="-32" type="curve" smooth="yes"/>
      <point x="112" y="-32"/>
      <point x="121" y="-16"/>
      <point x="127" y="-5" type="curve" smooth="yes"/>
      <point x="408" y="538" type="line" smooth="yes"/>
      <point x="417" y="555"/>
      <point x="443" y="592"/>
      <point x="443" y="608" type="curve" smooth="yes"/>
      <point x="443" y="613"/>
      <point x="441" y="621"/>
      <point x="438" y="621" type="curve" smooth="yes"/>
      <point x="420" y="618"/>
      <point x="314" y="616"/>
      <point x="223" y="616" type="curve" smooth="yes"/>
      <point x="179" y="616"/>
      <point x="159" y="617"/>
      <point x="131" y="617" type="curve" smooth="yes"/>
      <point x="91" y="617"/>
      <point x="55" y="626"/>
      <point x="52" y="626" type="curve" smooth="yes"/>
      <point x="49" y="626"/>
      <point x="44" y="624"/>
      <point x="43" y="615" type="curve" smooth="yes"/>
      <point x="40" y="590"/>
      <point x="34" y="546"/>
      <point x="27" y="517" type="curve"/>
      <point x="26" y="512"/>
      <point x="24" y="502"/>
      <point x="24" y="496" type="curve" smooth="yes"/>
      <point x="24" y="489"/>
      <point x="25" y="482"/>
      <point x="28" y="482" type="curve" smooth="yes"/>
      <point x="33" y="482"/>
      <point x="37" y="493"/>
      <point x="40" y="507" type="curve" smooth="yes"/>
      <point x="51" y="544"/>
      <point x="70" y="553"/>
      <point x="91" y="553" type="curve" smooth="yes"/>
      <point x="405" y="553" type="line"/>
      <point x="399" y="572" type="line"/>
      <point x="125" y="44" type="line" smooth="yes"/>
      <point x="115" y="26"/>
      <point x="93" y="-10"/>
      <point x="93" y="-15" type="curve" smooth="yes"/>
      <point x="93" y="-25"/>
      <point x="96" y="-32"/>
    </contour>
  </outline>
</glyph>
<glyph name="eight" format="1">
  <advance width="452"/>
  <unicode hex="0038"/>
  <outline>
    <contour>
      <point x="217" y="-14" type="curve"/>
      <point x="310" y="-14"/>
      <point x="404" y="60"/>
      <point x="404" y="164" type="curve"/>
      <point x="404" y="241"/>
      <point x="351" y="290"/>
      <point x="284" y="336" type="curve" smooth="yes"/>
      <point x="273" y="343"/>
      <point x="272" y="345"/>
      <point x="289" y="357" type="curve"/>
      <point x="310" y="373"/>
      <point x="324" y="380"/>
      <point x="338" y="393" type="curve" smooth="yes"/>
      <point x="360" y="413"/>
      <point x="387" y="445"/>
      <point x="387" y="496" type="curve" smooth="yes"/>
      <point x="387" y="577"/>
      <point x="312" y="630"/>
      <point x="235" y="630" type="curve"/>
      <point x="151" y="630"/>
      <point x="63" y="567"/>
      <point x="63" y="488" type="curve"/>
      <point x="63" y="404"/>
      <point x="115" y="367"/>
      <point x="172" y="315" type="curve"/>
      <point x="179" y="308"/>
      <point x="183" y="307"/>
      <point x="175" y="302" type="curve" smooth="yes"/>
      <point x="128" y="274"/>
      <point x="48" y="231"/>
      <point x="48" y="141" type="curve" smooth="yes"/>
      <point x="48" y="49"/>
      <point x="129" y="-14"/>
    </contour>
    <contour>
      <point x="230" y="12" type="curve"/>
      <point x="164" y="12"/>
      <point x="126" y="84"/>
      <point x="126" y="153" type="curve" smooth="yes"/>
      <point x="126" y="215"/>
      <point x="143" y="248"/>
      <point x="186" y="283" type="curve" smooth="yes"/>
      <point x="191" y="287"/>
      <point x="195" y="289"/>
      <point x="198" y="289" type="curve"/>
      <point x="203" y="289"/>
      <point x="209" y="285"/>
      <point x="216" y="279" type="curve"/>
      <point x="265" y="243"/>
      <point x="326" y="185"/>
      <point x="326" y="122" type="curve" smooth="yes"/>
      <point x="326" y="63"/>
      <point x="285" y="12"/>
    </contour>
    <contour>
      <point x="257" y="362" type="curve"/>
      <point x="253" y="359"/>
      <point x="248" y="362"/>
      <point x="244" y="365" type="curve" smooth="yes"/>
      <point x="181" y="418"/>
      <point x="138" y="439"/>
      <point x="138" y="509" type="curve" smooth="yes"/>
      <point x="138" y="561"/>
      <point x="182" y="603"/>
      <point x="231" y="603" type="curve" smooth="yes"/>
      <point x="285" y="603"/>
      <point x="312" y="558"/>
      <point x="312" y="504" type="curve" smooth="yes"/>
      <point x="312" y="446"/>
      <point x="302" y="398"/>
    </contour>
  </outline>
</glyph>
<glyph name="less" format="1">
  <advance width="529"/>
  <unicode hex="003C"/>
  <outline>
    <contour>
      <point x="465" y="14" type="line" smooth="yes"/>
      <point x="470" y="12"/>
      <point x="477" y="12"/>
      <point x="477" y="19" type="curve" smooth="yes"/>
      <point x="477" y="24"/>
      <point x="473" y="42"/>
      <point x="464" y="46" type="curve" smooth="yes"/>
      <point x="95" y="237" type="line"/>
      <point x="94" y="237"/>
      <point x="93" y="238"/>
      <point x="95" y="239" type="curve"/>
      <point x="459" y="428" type="line" smooth="yes"/>
      <point x="471" y="434"/>
      <point x="477" y="450"/>
      <point x="477" y="457" type="curve" smooth="yes"/>
      <point x="477" y="460"/>
      <point x="475" y="462"/>
      <point x="472" y="462" type="curve" smooth="yes"/>
      <point x="471" y="462"/>
      <point x="469" y="461"/>
      <point x="468" y="460" type="curve" smooth="yes"/>
      <point x="69" y="258" type="line" smooth="yes"/>
      <point x="58" y="253"/>
      <point x="51" y="237"/>
      <point x="51" y="231" type="curve" smooth="yes"/>
      <point x="51" y="228"/>
      <point x="64" y="222"/>
      <point x="75" y="217" type="curve" smooth="yes"/>
    </contour>
  </outline>
</glyph>
<glyph name="equal" format="1">
  <advance width="530"/>
  <unicode hex="003D"/>
  <outline>
    <contour>
      <point x="61" y="327" type="curve"/>
      <point x="452" y="327" type="line"/>
      <point x="471" y="327"/>
      <point x="483" y="339"/>
      <point x="483" y="347" type="curve" smooth="yes"/>
      <point x="483" y="351"/>
      <point x="477" y="353"/>
      <point x="470" y="353" type="curve"/>
      <point x="71" y="353" type="line"/>
      <point x="53" y="353"/>
      <point x="47" y="338"/>
      <point x="47" y="333" type="curve" smooth="yes"/>
      <point x="47" y="330"/>
      <point x="54" y="327"/>
    </contour>
    <contour>
      <point x="61" y="155" type="curve"/>
      <point x="452" y="155" type="line"/>
      <point x="471" y="155"/>
      <point x="483" y="168"/>
      <point x="483" y="176" type="curve" smooth="yes"/>
      <point x="483" y="179"/>
      <point x="477" y="181"/>
      <point x="470" y="181" type="curve"/>
      <point x="71" y="181" type="line"/>
      <point x="53" y="181"/>
      <point x="47" y="166"/>
      <point x="47" y="161" type="curve" smooth="yes"/>
      <point x="47" y="158"/>
      <point x="54" y="155"/>
    </contour>
  </outline>
</glyph>
<glyph name="question" format="1">
  <advance width="357"/>
  <unicode hex="003F"/>
  <outline>
    <contour>
      <point x="127" y="181" type="curve" smooth="yes"/>
      <point x="134" y="181"/>
      <point x="139" y="195"/>
      <point x="141" y="204" type="curve" smooth="yes"/>
      <point x="147" y="239"/>
      <point x="153" y="268"/>
      <point x="180" y="287" type="curve" smooth="yes"/>
      <point x="209" y="307"/>
      <point x="218" y="313"/>
      <point x="256" y="335" type="curve" smooth="yes"/>
      <point x="275" y="346"/>
      <point x="291" y="370"/>
      <point x="291" y="419" type="curve" smooth="yes"/>
      <point x="291" y="470"/>
      <point x="256" y="555"/>
      <point x="203" y="611" type="curve" smooth="yes"/>
      <point x="171" y="644"/>
      <point x="136" y="661"/>
      <point x="104" y="661" type="curve" smooth="yes"/>
      <point x="88" y="661"/>
      <point x="66" y="644"/>
      <point x="66" y="624" type="curve" smooth="yes"/>
      <point x="66" y="595"/>
      <point x="85" y="567"/>
      <point x="105" y="567" type="curve" smooth="yes"/>
      <point x="114" y="567"/>
      <point x="121" y="568"/>
      <point x="127" y="569" type="curve" smooth="yes"/>
      <point x="133" y="570"/>
      <point x="139" y="571"/>
      <point x="147" y="571" type="curve" smooth="yes"/>
      <point x="223" y="570"/>
      <point x="256" y="521"/>
      <point x="256" y="462" type="curve" smooth="yes"/>
      <point x="256" y="433"/>
      <point x="226" y="404"/>
      <point x="193" y="390" type="curve" smooth="yes"/>
      <point x="127" y="353"/>
      <point x="91" y="328"/>
      <point x="91" y="295" type="curve" smooth="yes"/>
      <point x="91" y="250"/>
      <point x="104" y="229"/>
      <point x="109" y="208" type="curve" smooth="yes"/>
      <point x="114" y="192"/>
      <point x="121" y="181"/>
    </contour>
    <contour>
      <point x="144" y="-14" type="curve" smooth="yes"/>
      <point x="177" y="-14"/>
      <point x="204" y="13"/>
      <point x="204" y="46" type="curve" smooth="yes"/>
      <point x="204" y="79"/>
      <point x="177" y="106"/>
      <point x="144" y="106" type="curve" smooth="yes"/>
      <point x="111" y="106"/>
      <point x="84" y="79"/>
      <point x="84" y="46" type="curve" smooth="yes"/>
      <point x="84" y="13"/>
      <point x="111" y="-14"/>
    </contour>
  </outline>
</glyph>
<glyph name="at" format="1">
  <advance width="704"/>
  <unicode hex="0040"/>
  <outline>
    <contour>
      <point x="358" y="-127" type="curve" smooth="yes"/>
      <point x="467" y="-127"/>
      <point x="595" y="-48"/>
      <point x="597" y="-18" type="curve" smooth="yes"/>
      <point x="597" y="-11"/>
      <point x="593" y="-7"/>
      <point x="585" y="-7" type="curve" smooth="yes"/>
      <point x="582" y="-7"/>
      <point x="576" y="-11"/>
      <point x="571" y="-14" type="curve" smooth="yes"/>
      <point x="505" y="-70"/>
      <point x="424" y="-102"/>
      <point x="368" y="-102" type="curve" smooth="yes"/>
      <point x="233" y="-102"/>
      <point x="78" y="-9"/>
      <point x="78" y="176" type="curve" smooth="yes"/>
      <point x="78" y="358"/>
      <point x="218" y="461"/>
      <point x="370" y="461" type="curve" smooth="yes"/>
      <point x="527" y="461"/>
      <point x="619" y="350"/>
      <point x="619" y="223" type="curve" smooth="yes"/>
      <point x="619" y="132"/>
      <point x="564" y="79"/>
      <point x="490" y="79" type="curve" smooth="yes"/>
      <point x="473" y="79"/>
      <point x="468" y="92"/>
      <point x="468" y="107" type="curve" smooth="yes"/>
      <point x="468" y="115"/>
      <point x="470" y="124"/>
      <point x="471" y="132" type="curve"/>
      <point x="491" y="259" type="line" smooth="yes"/>
      <point x="493" y="274"/>
      <point x="503" y="312"/>
      <point x="511" y="335" type="curve"/>
      <point x="514" y="339"/>
      <point x="505" y="340"/>
      <point x="502" y="340" type="curve" smooth="yes"/>
      <point x="498" y="340"/>
      <point x="493" y="322"/>
      <point x="473" y="322" type="curve" smooth="yes"/>
      <point x="468" y="322"/>
      <point x="461" y="326"/>
      <point x="448" y="331" type="curve" smooth="yes"/>
      <point x="436" y="334"/>
      <point x="407" y="338"/>
      <point x="389" y="338" type="curve" smooth="yes"/>
      <point x="287" y="338"/>
      <point x="193" y="264"/>
      <point x="193" y="149" type="curve" smooth="yes"/>
      <point x="193" y="82"/>
      <point x="242" y="45"/>
      <point x="303" y="45" type="curve" smooth="yes"/>
      <point x="368" y="45"/>
      <point x="401" y="80"/>
      <point x="410" y="80" type="curve" smooth="yes"/>
      <point x="420" y="80"/>
      <point x="423" y="45"/>
      <point x="465" y="44" type="curve" smooth="yes"/>
      <point x="564" y="44"/>
      <point x="647" y="111"/>
      <point x="647" y="229" type="curve" smooth="yes"/>
      <point x="647" y="369"/>
      <point x="532" y="486"/>
      <point x="390" y="486" type="curve" smooth="yes"/>
      <point x="208" y="486"/>
      <point x="51" y="378"/>
      <point x="51" y="173" type="curve" smooth="yes"/>
      <point x="51" y="-6"/>
      <point x="189" y="-127"/>
    </contour>
    <contour>
      <point x="336" y="70" type="curve" smooth="yes"/>
      <point x="302" y="70"/>
      <point x="262" y="92"/>
      <point x="262" y="165" type="curve" smooth="yes"/>
      <point x="263" y="264"/>
      <point x="317" y="316"/>
      <point x="368" y="316" type="curve" smooth="yes"/>
      <point x="408" y="316"/>
      <point x="432" y="294"/>
      <point x="432" y="257" type="curve" smooth="yes"/>
      <point x="432" y="252"/>
      <point x="432" y="249"/>
      <point x="431" y="245" type="curve"/>
      <point x="415" y="141" type="line" smooth="yes"/>
      <point x="410" y="110"/>
      <point x="401" y="100"/>
      <point x="390" y="92" type="curve" smooth="yes"/>
      <point x="372" y="78"/>
      <point x="358" y="70"/>
    </contour>
  </outline>
</glyph>
<glyph name="A" format="1">
  <advance width="651"/>
  <unicode hex="0041"/>
  <outline>
    <contour>
      <point x="18" y="-5" type="curve" smooth="yes"/>
      <point x="41" y="-5"/>
      <point x="97" y="-1"/>
      <point x="139" y="-1" type="curve" smooth="yes"/>
      <point x="126" y="-1"/>
      <point x="163" y="-2"/>
      <point x="175" y="-2" type="curve" smooth="yes"/>
      <point x="187" y="-2"/>
      <point x="195" y="0"/>
      <point x="195" y="5" type="curve" smooth="yes"/>
      <point x="195" y="11"/>
      <point x="186" y="15"/>
      <point x="173" y="19" type="curve" smooth="yes"/>
      <point x="143" y="24"/>
      <point x="126" y="36"/>
      <point x="126" y="60" type="curve" smooth="yes"/>
      <point x="126" y="89"/>
      <point x="177" y="211"/>
      <point x="186" y="237" type="curve" smooth="yes"/>
      <point x="190" y="251"/>
      <point x="196" y="255"/>
      <point x="202" y="255" type="curve" smooth="yes"/>
      <point x="396" y="255" type="line" smooth="yes"/>
      <point x="413" y="255"/>
      <point x="418" y="254"/>
      <point x="421" y="244" type="curve" smooth="yes"/>
      <point x="435" y="194"/>
      <point x="462" y="94"/>
      <point x="462" y="65" type="curve" smooth="yes"/>
      <point x="462" y="43"/>
      <point x="446" y="26"/>
      <point x="407" y="21" type="curve" smooth="yes"/>
      <point x="387" y="18"/>
      <point x="371" y="14"/>
      <point x="371" y="7" type="curve" smooth="yes"/>
      <point x="371" y="2"/>
      <point x="383" y="-1"/>
      <point x="399" y="-1" type="curve" smooth="yes"/>
      <point x="421" y="-1"/>
      <point x="461" y="-1"/>
      <point x="498" y="-1" type="curve" smooth="yes"/>
      <point x="540" y="-1"/>
      <point x="603" y="-5"/>
      <point x="629" y="-5" type="curve" smooth="yes"/>
      <point x="645" y="-5"/>
      <point x="656" y="-3"/>
      <point x="656" y="2" type="curve" smooth="yes"/>
      <point x="656" y="9"/>
      <point x="647" y="15"/>
      <point x="630" y="18" type="curve" smooth="yes"/>
      <point x="592" y="24"/>
      <point x="561" y="38"/>
      <point x="534" y="119" type="curve" smooth="yes"/>
      <point x="504" y="214"/>
      <point x="425" y="459"/>
      <point x="365" y="662" type="curve" smooth="yes"/>
      <point x="363" y="670"/>
      <point x="361" y="678"/>
      <point x="358" y="684" type="curve"/>
      <point x="357" y="686"/>
      <point x="354" y="686"/>
      <point x="353" y="685" type="curve"/>
      <point x="349" y="679"/>
      <point x="346" y="659"/>
      <point x="333" y="651" type="curve" smooth="yes"/>
      <point x="321" y="643"/>
      <point x="309" y="640"/>
      <point x="297" y="636" type="curve"/>
      <point x="295" y="615"/>
      <point x="290" y="597"/>
      <point x="284" y="578" type="curve" smooth="yes"/>
      <point x="220" y="393"/>
      <point x="178" y="272"/>
      <point x="108" y="101" type="curve" smooth="yes"/>
      <point x="78" y="32"/>
      <point x="53" y="22"/>
      <point x="29" y="19" type="curve" smooth="yes"/>
      <point x="7" y="16"/>
      <point x="-2" y="10"/>
      <point x="-2" y="4" type="curve" smooth="yes"/>
      <point x="-2" y="-2"/>
      <point x="6" y="-5"/>
    </contour>
    <contour>
      <point x="224" y="279" type="line" smooth="yes"/>
      <point x="212" y="279"/>
      <point x="205" y="279"/>
      <point x="205" y="286" type="curve" smooth="yes"/>
      <point x="205" y="288"/>
      <point x="206" y="291"/>
      <point x="207" y="294" type="curve" smooth="yes"/>
      <point x="305" y="570" type="line" smooth="yes"/>
      <point x="309" y="581"/>
      <point x="310" y="587"/>
      <point x="312" y="587" type="curve" smooth="yes"/>
      <point x="315" y="587"/>
      <point x="317" y="581"/>
      <point x="321" y="569" type="curve" smooth="yes"/>
      <point x="403" y="294" type="line"/>
      <point x="404" y="290"/>
      <point x="405" y="286"/>
      <point x="405" y="284" type="curve" smooth="yes"/>
      <point x="405" y="279"/>
      <point x="401" y="279"/>
      <point x="392" y="279" type="curve" smooth="yes"/>
    </contour>
  </outline>
</glyph>
<glyph name="B" format="1">
  <advance width="550"/>
  <unicode hex="0042"/>
  <outline>
    <contour>
      <point x="45" y="-5" type="curve" smooth="yes"/>
      <point x="99" y="-5"/>
      <point x="118" y="0"/>
      <point x="167" y="0" type="curve" smooth="yes"/>
      <point x="205" y="0"/>
      <point x="240" y="-4"/>
      <point x="257" y="-4" type="curve" smooth="yes"/>
      <point x="328" y="-4"/>
      <point x="377" y="9"/>
      <point x="416" y="30" type="curve" smooth="yes"/>
      <point x="454" y="51"/>
      <point x="513" y="84"/>
      <point x="513" y="194" type="curve" smooth="yes"/>
      <point x="513" y="307"/>
      <point x="431" y="348"/>
      <point x="339" y="357" type="curve" smooth="yes"/>
      <point x="333" y="358"/>
      <point x="334" y="362"/>
      <point x="339" y="363" type="curve" smooth="yes"/>
      <point x="373" y="369"/>
      <point x="406" y="381"/>
      <point x="432" y="403" type="curve" smooth="yes"/>
      <point x="457" y="425"/>
      <point x="474" y="459"/>
      <point x="474" y="508" type="curve" smooth="yes"/>
      <point x="474" y="614"/>
      <point x="403" y="657"/>
      <point x="258" y="657" type="curve" smooth="yes"/>
      <point x="204" y="657"/>
      <point x="189" y="652"/>
      <point x="152" y="652" type="curve" smooth="yes"/>
      <point x="114" y="652"/>
      <point x="105" y="653"/>
      <point x="55" y="653" type="curve" smooth="yes"/>
      <point x="38" y="653"/>
      <point x="28" y="650"/>
      <point x="28" y="644" type="curve" smooth="yes"/>
      <point x="28" y="638"/>
      <point x="37" y="634"/>
      <point x="59" y="633" type="curve" smooth="yes"/>
      <point x="107" y="630"/>
      <point x="121" y="618"/>
      <point x="121" y="572" type="curve" smooth="yes"/>
      <point x="121" y="77" type="line" smooth="yes"/>
      <point x="121" y="30"/>
      <point x="102" y="19"/>
      <point x="48" y="15" type="curve" smooth="yes"/>
      <point x="27" y="13"/>
      <point x="18" y="10"/>
      <point x="18" y="3" type="curve" smooth="yes"/>
      <point x="18" y="-2"/>
      <point x="29" y="-5"/>
    </contour>
    <contour>
      <point x="269" y="18" type="curve" smooth="yes"/>
      <point x="222" y="18"/>
      <point x="197" y="35"/>
      <point x="197" y="95" type="curve" smooth="yes"/>
      <point x="197" y="308" type="line" smooth="yes"/>
      <point x="197" y="322"/>
      <point x="209" y="347"/>
      <point x="249" y="347" type="curve" smooth="yes"/>
      <point x="303" y="347"/>
      <point x="343" y="337"/>
      <point x="368" y="317" type="curve" smooth="yes"/>
      <point x="400" y="294"/>
      <point x="421" y="252"/>
      <point x="421" y="182" type="curve" smooth="yes"/>
      <point x="421" y="86"/>
      <point x="350" y="18"/>
    </contour>
    <contour>
      <point x="239" y="369" type="curve" smooth="yes"/>
      <point x="224" y="369"/>
      <point x="197" y="371"/>
      <point x="197" y="407" type="curve" smooth="yes"/>
      <point x="197" y="587" type="line" smooth="yes"/>
      <point x="197" y="619"/>
      <point x="207" y="634"/>
      <point x="257" y="634" type="curve" smooth="yes"/>
      <point x="369" y="634"/>
      <point x="391" y="561"/>
      <point x="391" y="497" type="curve" smooth="yes"/>
      <point x="391" y="439"/>
      <point x="376" y="408"/>
      <point x="355" y="392" type="curve" smooth="yes"/>
      <point x="327" y="372"/>
      <point x="289" y="369"/>
    </contour>
  </outline>
</glyph>
<glyph name="C" format="1">
  <advance width="661"/>
  <unicode hex="0043"/>
  <outline>
    <contour>
      <point x="378" y="-15" type="curve" smooth="yes"/>
      <point x="439" y="-15"/>
      <point x="509" y="-6"/>
      <point x="555" y="14" type="curve" smooth="yes"/>
      <point x="574" y="22"/>
      <point x="576" y="23"/>
      <point x="585" y="43" type="curve" smooth="yes"/>
      <point x="597" y="74"/>
      <point x="610" y="129"/>
      <point x="610" y="146" type="curve" smooth="yes"/>
      <point x="611" y="169"/>
      <point x="583" y="172"/>
      <point x="573" y="149" type="curve" smooth="yes"/>
      <point x="531" y="53"/>
      <point x="484" y="13"/>
      <point x="393" y="13" type="curve" smooth="yes"/>
      <point x="237" y="13"/>
      <point x="141" y="175"/>
      <point x="141" y="347" type="curve" smooth="yes"/>
      <point x="141" y="495"/>
      <point x="243" y="635"/>
      <point x="387" y="635" type="curve" smooth="yes"/>
      <point x="454" y="635"/>
      <point x="491" y="615"/>
      <point x="518" y="591" type="curve" smooth="yes"/>
      <point x="547" y="564"/>
      <point x="558" y="530"/>
      <point x="570" y="482" type="curve" smooth="yes"/>
      <point x="577" y="457"/>
      <point x="606" y="467"/>
      <point x="605" y="484" type="curve" smooth="yes"/>
      <point x="603" y="535"/>
      <point x="598" y="572"/>
      <point x="595" y="603" type="curve" smooth="yes"/>
      <point x="593" y="621"/>
      <point x="586" y="632"/>
      <point x="567" y="638" type="curve" smooth="yes"/>
      <point x="507" y="654"/>
      <point x="474" y="663"/>
      <point x="402" y="663" type="curve" smooth="yes"/>
      <point x="211" y="663"/>
      <point x="43" y="517"/>
      <point x="43" y="323" type="curve" smooth="yes"/>
      <point x="43" y="119"/>
      <point x="204" y="-15"/>
    </contour>
  </outline>
</glyph>
<glyph name="D" format="1">
  <advance width="699"/>
  <unicode hex="0044"/>
  <outline>
    <contour>
      <point x="344" y="-7" type="curve" smooth="yes"/>
      <point x="520" y="-7"/>
      <point x="666" y="150"/>
      <point x="666" y="342" type="curve" smooth="yes"/>
      <point x="666" y="516"/>
      <point x="566" y="659"/>
      <point x="315" y="659" type="curve" smooth="yes"/>
      <point x="290" y="659"/>
      <point x="196" y="651"/>
      <point x="157" y="651" type="curve" smooth="yes"/>
      <point x="112" y="651"/>
      <point x="101" y="653"/>
      <point x="54" y="653" type="curve" smooth="yes"/>
      <point x="38" y="653"/>
      <point x="27" y="651"/>
      <point x="27" y="644" type="curve" smooth="yes"/>
      <point x="27" y="637"/>
      <point x="36" y="635"/>
      <point x="57" y="633" type="curve" smooth="yes"/>
      <point x="111" y="628"/>
      <point x="119" y="618"/>
      <point x="119" y="576" type="curve" smooth="yes"/>
      <point x="119" y="104" type="line" smooth="yes"/>
      <point x="119" y="34"/>
      <point x="107" y="23"/>
      <point x="57" y="17" type="curve" smooth="yes"/>
      <point x="36" y="14"/>
      <point x="27" y="13"/>
      <point x="27" y="5" type="curve" smooth="yes"/>
      <point x="27" y="-3"/>
      <point x="38" y="-5"/>
      <point x="54" y="-5" type="curve" smooth="yes"/>
      <point x="103" y="-5"/>
      <point x="114" y="0"/>
      <point x="151" y="0" type="curve" smooth="yes"/>
      <point x="224" y="0"/>
      <point x="325" y="-7"/>
    </contour>
    <contour>
      <point x="333" y="21" type="curve" smooth="yes"/>
      <point x="265" y="21"/>
      <point x="196" y="34"/>
      <point x="196" y="117" type="curve" smooth="yes"/>
      <point x="196" y="562" type="line" smooth="yes"/>
      <point x="196" y="633"/>
      <point x="241" y="635"/>
      <point x="320" y="635" type="curve" smooth="yes"/>
      <point x="444" y="635"/>
      <point x="573" y="528"/>
      <point x="573" y="325" type="curve" smooth="yes"/>
      <point x="573" y="142"/>
      <point x="474" y="21"/>
    </contour>
  </outline>
</glyph>
<glyph name="E" format="1">
  <advance width="528"/>
  <unicode hex="0045"/>
  <outline>
    <contour>
      <point x="61" y="-5" type="curve" smooth="yes"/>
      <point x="111" y="-5"/>
      <point x="126" y="1"/>
      <point x="169" y="1" type="curve" smooth="yes"/>
      <point x="263" y="1"/>
      <point x="343" y="-5"/>
      <point x="464" y="-5" type="curve" smooth="yes"/>
      <point x="471" y="-5"/>
      <point x="473" y="3"/>
      <point x="477" y="12" type="curve" smooth="yes"/>
      <point x="487" y="39"/>
      <point x="506" y="119"/>
      <point x="506" y="137" type="curve" smooth="yes"/>
      <point x="506" y="145"/>
      <point x="502" y="151"/>
      <point x="494" y="152" type="curve" smooth="yes"/>
      <point x="486" y="153"/>
      <point x="479" y="145"/>
      <point x="475" y="135" type="curve" smooth="yes"/>
      <point x="456" y="88"/>
      <point x="442" y="60"/>
      <point x="424" y="43" type="curve" smooth="yes"/>
      <point x="405" y="28"/>
      <point x="381" y="23"/>
      <point x="344" y="23" type="curve" smooth="yes"/>
      <point x="273" y="23" type="line" smooth="yes"/>
      <point x="231" y="23"/>
      <point x="211" y="39"/>
      <point x="211" y="90" type="curve" smooth="yes"/>
      <point x="211" y="298" type="line" smooth="yes"/>
      <point x="211" y="321"/>
      <point x="222" y="324"/>
      <point x="243" y="324" type="curve" smooth="yes"/>
      <point x="330" y="324" type="line" smooth="yes"/>
      <point x="354" y="324"/>
      <point x="365" y="303"/>
      <point x="372" y="273" type="curve" smooth="yes"/>
      <point x="377" y="251"/>
      <point x="383" y="241"/>
      <point x="395" y="241" type="curve" smooth="yes"/>
      <point x="404" y="241"/>
      <point x="404" y="249"/>
      <point x="404" y="258" type="curve" smooth="yes"/>
      <point x="404" y="266"/>
      <point x="402" y="317"/>
      <point x="402" y="337" type="curve" smooth="yes"/>
      <point x="402" y="353"/>
      <point x="405" y="400"/>
      <point x="405" y="409" type="curve" smooth="yes"/>
      <point x="405" y="419"/>
      <point x="398" y="426"/>
      <point x="391" y="426" type="curve" smooth="yes"/>
      <point x="382" y="426"/>
      <point x="379" y="418"/>
      <point x="374" y="403" type="curve" smooth="yes"/>
      <point x="366" y="370"/>
      <point x="355" y="348"/>
      <point x="324" y="348" type="curve" smooth="yes"/>
      <point x="228" y="348" type="line" smooth="yes"/>
      <point x="219" y="348"/>
      <point x="211" y="358"/>
      <point x="211" y="370" type="curve" smooth="yes"/>
      <point x="211" y="601" type="line" smooth="yes"/>
      <point x="211" y="617"/>
      <point x="225" y="626"/>
      <point x="246" y="626" type="curve" smooth="yes"/>
      <point x="373" y="626" type="line" smooth="yes"/>
      <point x="393" y="626"/>
      <point x="407" y="618"/>
      <point x="421" y="590" type="curve" smooth="yes"/>
      <point x="427" y="578"/>
      <point x="437" y="553"/>
      <point x="446" y="531" type="curve" smooth="yes"/>
      <point x="450" y="520"/>
      <point x="455" y="516"/>
      <point x="462" y="516" type="curve" smooth="yes"/>
      <point x="469" y="516"/>
      <point x="474" y="520"/>
      <point x="474" y="532" type="curve" smooth="yes"/>
      <point x="474" y="559"/>
      <point x="466" y="606"/>
      <point x="461" y="640" type="curve"/>
      <point x="459" y="650"/>
      <point x="451" y="653"/>
      <point x="443" y="653" type="curve" smooth="yes"/>
      <point x="438" y="653"/>
      <point x="405" y="652"/>
      <point x="362" y="651" type="curve" smooth="yes"/>
      <point x="322" y="651"/>
      <point x="273" y="650"/>
      <point x="231" y="650" type="curve" smooth="yes"/>
      <point x="167" y="650"/>
      <point x="137" y="653"/>
      <point x="67" y="653" type="curve" smooth="yes"/>
      <point x="51" y="653"/>
      <point x="40" y="650"/>
      <point x="40" y="644" type="curve" smooth="yes"/>
      <point x="40" y="637"/>
      <point x="49" y="632"/>
      <point x="71" y="629" type="curve" smooth="yes"/>
      <point x="117" y="624"/>
      <point x="134" y="615"/>
      <point x="134" y="589" type="curve" smooth="yes"/>
      <point x="134" y="80" type="line" smooth="yes"/>
      <point x="134" y="35"/>
      <point x="119" y="25"/>
      <point x="64" y="18" type="curve" smooth="yes"/>
      <point x="43" y="16"/>
      <point x="34" y="11"/>
      <point x="34" y="4" type="curve" smooth="yes"/>
      <point x="34" y="-3"/>
      <point x="45" y="-5"/>
    </contour>
  </outline>
</glyph>
<glyph name="F" format="1">
  <advance width="486"/>
  <unicode hex="0046"/>
  <outline>
    <contour>
      <point x="60" y="-5" type="curve" smooth="yes"/>
      <point x="112" y="-5"/>
      <point x="133" y="-1"/>
      <point x="180" y="2" type="curve" smooth="yes"/>
      <point x="216" y="-1"/>
      <point x="221" y="-5"/>
      <point x="273" y="-5" type="curve" smooth="yes"/>
      <point x="289" y="-5"/>
      <point x="300" y="-3"/>
      <point x="300" y="4" type="curve" smooth="yes"/>
      <point x="300" y="11"/>
      <point x="291" y="16"/>
      <point x="269" y="19" type="curve" smooth="yes"/>
      <point x="223" y="24"/>
      <point x="210" y="39"/>
      <point x="208" y="71" type="curve" smooth="yes"/>
      <point x="205" y="174"/>
      <point x="205" y="235"/>
      <point x="205" y="296" type="curve" smooth="yes"/>
      <point x="205" y="313"/>
      <point x="215" y="320"/>
      <point x="227" y="321" type="curve" smooth="yes"/>
      <point x="246" y="323"/>
      <point x="265" y="323"/>
      <point x="286" y="323" type="curve" smooth="yes"/>
      <point x="300" y="323"/>
      <point x="325" y="322"/>
      <point x="338" y="322" type="curve" smooth="yes"/>
      <point x="356" y="322"/>
      <point x="363" y="312"/>
      <point x="374" y="277" type="curve" smooth="yes"/>
      <point x="378" y="262"/>
      <point x="386" y="250"/>
      <point x="398" y="250" type="curve" smooth="yes"/>
      <point x="407" y="250"/>
      <point x="409" y="259"/>
      <point x="409" y="268" type="curve" smooth="yes"/>
      <point x="407" y="296"/>
      <point x="406" y="319"/>
      <point x="406" y="339" type="curve" smooth="yes"/>
      <point x="406" y="355"/>
      <point x="407" y="375"/>
      <point x="409" y="398" type="curve" smooth="yes"/>
      <point x="410" y="408"/>
      <point x="404" y="416"/>
      <point x="395" y="416" type="curve" smooth="yes"/>
      <point x="388" y="416"/>
      <point x="379" y="402"/>
      <point x="376" y="393" type="curve" smooth="yes"/>
      <point x="366" y="365"/>
      <point x="357" y="349"/>
      <point x="333" y="349" type="curve" smooth="yes"/>
      <point x="301" y="349"/>
      <point x="253" y="346"/>
      <point x="214" y="346" type="curve" smooth="yes"/>
      <point x="206" y="346"/>
      <point x="205" y="357"/>
      <point x="205" y="368" type="curve"/>
      <point x="204" y="392"/>
      <point x="204" y="429"/>
      <point x="204" y="463" type="curve" smooth="yes"/>
      <point x="204" y="498"/>
      <point x="204" y="551"/>
      <point x="205" y="576" type="curve" smooth="yes"/>
      <point x="206" y="602"/>
      <point x="208" y="626"/>
      <point x="237" y="626" type="curve" smooth="yes"/>
      <point x="359" y="626" type="line" smooth="yes"/>
      <point x="387" y="626"/>
      <point x="403" y="616"/>
      <point x="415" y="594" type="curve" smooth="yes"/>
      <point x="422" y="583"/>
      <point x="429" y="564"/>
      <point x="436" y="538" type="curve" smooth="yes"/>
      <point x="438" y="529"/>
      <point x="444" y="523"/>
      <point x="453" y="523" type="curve" smooth="yes"/>
      <point x="459" y="523"/>
      <point x="462" y="532"/>
      <point x="462" y="545" type="curve" smooth="yes"/>
      <point x="462" y="559"/>
      <point x="460" y="628"/>
      <point x="458" y="651" type="curve" smooth="yes"/>
      <point x="457" y="658"/>
      <point x="447" y="660"/>
      <point x="441" y="660" type="curve" smooth="yes"/>
      <point x="419" y="660"/>
      <point x="388" y="650"/>
      <point x="348" y="650" type="curve"/>
      <point x="309" y="650"/>
      <point x="266" y="650"/>
      <point x="229" y="650" type="curve" smooth="yes"/>
      <point x="164" y="650"/>
      <point x="135" y="653"/>
      <point x="66" y="653" type="curve" smooth="yes"/>
      <point x="50" y="653"/>
      <point x="39" y="651"/>
      <point x="39" y="645" type="curve" smooth="yes"/>
      <point x="39" y="637"/>
      <point x="48" y="632"/>
      <point x="70" y="629" type="curve" smooth="yes"/>
      <point x="117" y="624"/>
      <point x="127" y="610"/>
      <point x="127" y="572" type="curve" smooth="yes"/>
      <point x="127" y="70" type="line" smooth="yes"/>
      <point x="127" y="34"/>
      <point x="111" y="24"/>
      <point x="64" y="19" type="curve" smooth="yes"/>
      <point x="43" y="16"/>
      <point x="34" y="11"/>
      <point x="34" y="4" type="curve" smooth="yes"/>
      <point x="34" y="-3"/>
      <point x="45" y="-5"/>
    </contour>
  </outline>
</glyph>
<glyph name="G" format="1">
  <advance width="681"/>
  <unicode hex="0047"/>
  <outline>
    <contour>
      <point x="367" y="-14" type="curve" smooth="yes"/>
      <point x="485" y="-14"/>
      <point x="570" y="50"/>
      <point x="589" y="53" type="curve" smooth="yes"/>
      <point x="602" y="55"/>
      <point x="602" y="67"/>
      <point x="602" y="72" type="curve" smooth="yes"/>
      <point x="602" y="77"/>
      <point x="594" y="82"/>
      <point x="590" y="89" type="curve"/>
      <point x="587" y="95"/>
      <point x="584" y="98"/>
      <point x="584" y="105" type="curve" smooth="yes"/>
      <point x="584" y="132" type="line" smooth="yes"/>
      <point x="584" y="158"/>
      <point x="588" y="197"/>
      <point x="590" y="220" type="curve" smooth="yes"/>
      <point x="592" y="250"/>
      <point x="601" y="267"/>
      <point x="628" y="269" type="curve" smooth="yes"/>
      <point x="633" y="269"/>
      <point x="648" y="277"/>
      <point x="648" y="281" type="curve" smooth="yes"/>
      <point x="648" y="288"/>
      <point x="633" y="290"/>
      <point x="628" y="290" type="curve" smooth="yes"/>
      <point x="594" y="290"/>
      <point x="577" y="286"/>
      <point x="544" y="286" type="curve" smooth="yes"/>
      <point x="493" y="286"/>
      <point x="472" y="290"/>
      <point x="427" y="290" type="curve" smooth="yes"/>
      <point x="420" y="290"/>
      <point x="405" y="287"/>
      <point x="405" y="280" type="curve" smooth="yes"/>
      <point x="405" y="272"/>
      <point x="421" y="267"/>
      <point x="427" y="267" type="curve" smooth="yes"/>
      <point x="446" y="266"/>
      <point x="493" y="263"/>
      <point x="509" y="258" type="curve" smooth="yes"/>
      <point x="517" y="255"/>
      <point x="520" y="240"/>
      <point x="520" y="213" type="curve" smooth="yes"/>
      <point x="520" y="173"/>
      <point x="519" y="156"/>
      <point x="519" y="138" type="curve" smooth="yes"/>
      <point x="519" y="100"/>
      <point x="505" y="71"/>
      <point x="491" y="55" type="curve" smooth="yes"/>
      <point x="480" y="42"/>
      <point x="450" y="15"/>
      <point x="379" y="15" type="curve" smooth="yes"/>
      <point x="256" y="15"/>
      <point x="139" y="129"/>
      <point x="139" y="324" type="curve" smooth="yes"/>
      <point x="139" y="486"/>
      <point x="235" y="633"/>
      <point x="378" y="633" type="curve" smooth="yes"/>
      <point x="464" y="633"/>
      <point x="510" y="595"/>
      <point x="527" y="574" type="curve" smooth="yes"/>
      <point x="542" y="554"/>
      <point x="547" y="528"/>
      <point x="553" y="504" type="curve" smooth="yes"/>
      <point x="556" y="490"/>
      <point x="561" y="473"/>
      <point x="574" y="473" type="curve" smooth="yes"/>
      <point x="584" y="473"/>
      <point x="591" y="483"/>
      <point x="591" y="493" type="curve" smooth="yes"/>
      <point x="591" y="522"/>
      <point x="586" y="575"/>
      <point x="581" y="618" type="curve" smooth="yes"/>
      <point x="580" y="625"/>
      <point x="579" y="627"/>
      <point x="573" y="630" type="curve" smooth="yes"/>
      <point x="547" y="643"/>
      <point x="430" y="663"/>
      <point x="385" y="663" type="curve" smooth="yes"/>
      <point x="200" y="663"/>
      <point x="42" y="509"/>
      <point x="42" y="311" type="curve" smooth="yes"/>
      <point x="42" y="126"/>
      <point x="194" y="-14"/>
    </contour>
  </outline>
</glyph>
<glyph name="H" format="1">
  <advance width="749"/>
  <unicode hex="0048"/>
  <outline>
    <contour>
      <point x="61" y="-5" type="curve" smooth="yes"/>
      <point x="111" y="-5"/>
      <point x="124" y="-2"/>
      <point x="164" y="-2" type="curve" smooth="yes"/>
      <point x="206" y="-2"/>
      <point x="222" y="-5"/>
      <point x="273" y="-5" type="curve" smooth="yes"/>
      <point x="289" y="-5"/>
      <point x="300" y="-2"/>
      <point x="300" y="4" type="curve" smooth="yes"/>
      <point x="300" y="10"/>
      <point x="292" y="12"/>
      <point x="270" y="17" type="curve" smooth="yes"/>
      <point x="228" y="21"/>
      <point x="197" y="35"/>
      <point x="197" y="60" type="curve" smooth="yes"/>
      <point x="197" y="303" type="line" smooth="yes"/>
      <point x="197" y="311"/>
      <point x="197" y="314"/>
      <point x="202" y="314" type="curve" smooth="yes"/>
      <point x="548" y="314" type="line" smooth="yes"/>
      <point x="554" y="314"/>
      <point x="553" y="308"/>
      <point x="553" y="301" type="curve" smooth="yes"/>
      <point x="553" y="59" type="line" smooth="yes"/>
      <point x="553" y="32"/>
      <point x="529" y="21"/>
      <point x="489" y="16" type="curve" smooth="yes"/>
      <point x="468" y="12"/>
      <point x="460" y="10"/>
      <point x="460" y="4" type="curve" smooth="yes"/>
      <point x="460" y="-2"/>
      <point x="471" y="-5"/>
      <point x="487" y="-5" type="curve" smooth="yes"/>
      <point x="537" y="-5"/>
      <point x="548" y="-2"/>
      <point x="588" y="-2" type="curve" smooth="yes"/>
      <point x="626" y="-2"/>
      <point x="635" y="-5"/>
      <point x="685" y="-5" type="curve" smooth="yes"/>
      <point x="701" y="-5"/>
      <point x="712" y="-2"/>
      <point x="712" y="4" type="curve" smooth="yes"/>
      <point x="712" y="10"/>
      <point x="704" y="12"/>
      <point x="683" y="17" type="curve" smooth="yes"/>
      <point x="637" y="21"/>
      <point x="631" y="29"/>
      <point x="631" y="56" type="curve" smooth="yes"/>
      <point x="631" y="591" type="line" smooth="yes"/>
      <point x="631" y="617"/>
      <point x="635" y="627"/>
      <point x="681" y="631" type="curve" smooth="yes"/>
      <point x="702" y="633"/>
      <point x="711" y="637"/>
      <point x="711" y="643" type="curve" smooth="yes"/>
      <point x="711" y="649"/>
      <point x="701" y="652"/>
      <point x="683" y="652" type="curve" smooth="yes"/>
      <point x="633" y="652"/>
      <point x="629" y="649"/>
      <point x="594" y="649" type="curve" smooth="yes"/>
      <point x="554" y="649"/>
      <point x="539" y="652"/>
      <point x="489" y="652" type="curve" smooth="yes"/>
      <point x="472" y="652"/>
      <point x="461" y="649"/>
      <point x="461" y="643" type="curve" smooth="yes"/>
      <point x="461" y="637"/>
      <point x="470" y="634"/>
      <point x="492" y="632" type="curve" smooth="yes"/>
      <point x="536" y="628"/>
      <point x="553" y="615"/>
      <point x="553" y="592" type="curve" smooth="yes"/>
      <point x="553" y="349" type="line" smooth="yes"/>
      <point x="553" y="341"/>
      <point x="550" y="338"/>
      <point x="545" y="338" type="curve" smooth="yes"/>
      <point x="210" y="338" type="line" smooth="yes"/>
      <point x="204" y="338"/>
      <point x="197" y="339"/>
      <point x="197" y="347" type="curve" smooth="yes"/>
      <point x="197" y="592" type="line" smooth="yes"/>
      <point x="197" y="613"/>
      <point x="217" y="627"/>
      <point x="262" y="631" type="curve" smooth="yes"/>
      <point x="284" y="633"/>
      <point x="293" y="637"/>
      <point x="293" y="643" type="curve" smooth="yes"/>
      <point x="293" y="649"/>
      <point x="283" y="652"/>
      <point x="265" y="652" type="curve" smooth="yes"/>
      <point x="215" y="652"/>
      <point x="203" y="649"/>
      <point x="164" y="649" type="curve" smooth="yes"/>
      <point x="126" y="649"/>
      <point x="116" y="652"/>
      <point x="66" y="652" type="curve" smooth="yes"/>
      <point x="47" y="652"/>
      <point x="38" y="649"/>
      <point x="38" y="643" type="curve" smooth="yes"/>
      <point x="38" y="637"/>
      <point x="47" y="634"/>
      <point x="69" y="631" type="curve" smooth="yes"/>
      <point x="114" y="626"/>
      <point x="119" y="617"/>
      <point x="119" y="591" type="curve" smooth="yes"/>
      <point x="119" y="56" type="line" smooth="yes"/>
      <point x="119" y="29"/>
      <point x="109" y="21"/>
      <point x="63" y="17" type="curve" smooth="yes"/>
      <point x="42" y="12"/>
      <point x="34" y="10"/>
      <point x="34" y="4" type="curve" smooth="yes"/>
      <point x="34" y="-2"/>
      <point x="45" y="-5"/>
    </contour>
  </outline>
</glyph>
<glyph name="I" format="1">
  <advance width="317"/>
  <unicode hex="0049"/>
  <outline>
    <contour>
      <point x="44" y="-5" type="curve" smooth="yes"/>
      <point x="93" y="-5"/>
      <point x="115" y="-1"/>
      <point x="164" y="-1" type="curve" smooth="yes"/>
      <point x="209" y="-1"/>
      <point x="225" y="-5"/>
      <point x="274" y="-5" type="curve" smooth="yes"/>
      <point x="290" y="-5"/>
      <point x="301" y="-3"/>
      <point x="301" y="3" type="curve" smooth="yes"/>
      <point x="301" y="10"/>
      <point x="292" y="13"/>
      <point x="270" y="17" type="curve" smooth="yes"/>
      <point x="224" y="22"/>
      <point x="197" y="31"/>
      <point x="197" y="58" type="curve" smooth="yes"/>
      <point x="197" y="583" type="line" smooth="yes"/>
      <point x="197" y="613"/>
      <point x="217" y="623"/>
      <point x="263" y="628" type="curve" smooth="yes"/>
      <point x="284" y="632"/>
      <point x="294" y="637"/>
      <point x="294" y="645" type="curve" smooth="yes"/>
      <point x="294" y="651"/>
      <point x="282" y="653"/>
      <point x="267" y="653" type="curve" smooth="yes"/>
      <point x="217" y="653"/>
      <point x="206" y="651"/>
      <point x="164" y="651" type="curve" smooth="yes"/>
      <point x="119" y="651"/>
      <point x="103" y="653"/>
      <point x="54" y="653" type="curve" smooth="yes"/>
      <point x="38" y="653"/>
      <point x="27" y="651"/>
      <point x="27" y="645" type="curve" smooth="yes"/>
      <point x="27" y="637"/>
      <point x="37" y="632"/>
      <point x="58" y="628" type="curve" smooth="yes"/>
      <point x="104" y="623"/>
      <point x="119" y="613"/>
      <point x="119" y="583" type="curve" smooth="yes"/>
      <point x="119" y="58" type="line" smooth="yes"/>
      <point x="119" y="31"/>
      <point x="94" y="22"/>
      <point x="48" y="17" type="curve" smooth="yes"/>
      <point x="27" y="13"/>
      <point x="17" y="10"/>
      <point x="17" y="3" type="curve" smooth="yes"/>
      <point x="17" y="-3"/>
      <point x="28" y="-5"/>
    </contour>
  </outline>
</glyph>
<glyph name="J" format="1">
  <advance width="323"/>
  <unicode hex="004A"/>
  <outline>
    <contour>
      <point x="35" y="-200" type="curve" smooth="yes"/>
      <point x="76" y="-200"/>
      <point x="107" y="-179"/>
      <point x="133" y="-146" type="curve" smooth="yes"/>
      <point x="165" y="-106"/>
      <point x="201" y="-36"/>
      <point x="201" y="46" type="curve" smooth="yes"/>
      <point x="201" y="583" type="line" smooth="yes"/>
      <point x="201" y="613"/>
      <point x="221" y="623"/>
      <point x="268" y="628" type="curve" smooth="yes"/>
      <point x="289" y="632"/>
      <point x="299" y="637"/>
      <point x="299" y="645" type="curve" smooth="yes"/>
      <point x="299" y="651"/>
      <point x="287" y="653"/>
      <point x="272" y="653" type="curve" smooth="yes"/>
      <point x="220" y="653"/>
      <point x="209" y="651"/>
      <point x="168" y="651" type="curve" smooth="yes"/>
      <point x="124" y="651"/>
      <point x="108" y="653"/>
      <point x="57" y="653" type="curve" smooth="yes"/>
      <point x="41" y="653"/>
      <point x="30" y="651"/>
      <point x="30" y="645" type="curve" smooth="yes"/>
      <point x="30" y="637"/>
      <point x="39" y="632"/>
      <point x="60" y="628" type="curve" smooth="yes"/>
      <point x="107" y="623"/>
      <point x="123" y="613"/>
      <point x="123" y="583" type="curve" smooth="yes"/>
      <point x="123" y="-1" type="line" smooth="yes"/>
      <point x="123" y="-105"/>
      <point x="105" y="-170"/>
      <point x="62" y="-170" type="curve" smooth="yes"/>
      <point x="45" y="-170"/>
      <point x="33" y="-160"/>
      <point x="19" y="-135" type="curve" smooth="yes"/>
      <point x="6" y="-113"/>
      <point x="-7" y="-104"/>
      <point x="-25" y="-104" type="curve" smooth="yes"/>
      <point x="-43" y="-104"/>
      <point x="-65" y="-128"/>
      <point x="-65" y="-151" type="curve" smooth="yes"/>
      <point x="-65" y="-182"/>
      <point x="-31" y="-200"/>
    </contour>
  </outline>
</glyph>
<glyph name="K" format="1">
  <advance width="636"/>
  <unicode hex="004B"/>
  <outline>
    <contour>
      <point x="58" y="-5" type="curve" smooth="yes"/>
      <point x="109" y="-5"/>
      <point x="127" y="3"/>
      <point x="172" y="3" type="curve" smooth="yes"/>
      <point x="209" y="3"/>
      <point x="218" y="-5"/>
      <point x="268" y="-5" type="curve" smooth="yes"/>
      <point x="284" y="-5"/>
      <point x="295" y="-2"/>
      <point x="295" y="3" type="curve" smooth="yes"/>
      <point x="295" y="10"/>
      <point x="286" y="13"/>
      <point x="265" y="16" type="curve" smooth="yes"/>
      <point x="220" y="22"/>
      <point x="204" y="36"/>
      <point x="203" y="64" type="curve"/>
      <point x="200" y="190"/>
      <point x="199" y="236"/>
      <point x="199" y="299" type="curve" smooth="yes"/>
      <point x="199" y="306"/>
      <point x="198" y="320"/>
      <point x="203" y="320" type="curve" smooth="yes"/>
      <point x="207" y="320"/>
      <point x="217" y="311"/>
      <point x="224" y="303" type="curve"/>
      <point x="441" y="49" type="line" smooth="yes"/>
      <point x="446" y="43"/>
      <point x="449" y="38"/>
      <point x="448" y="34" type="curve" smooth="yes"/>
      <point x="448" y="27"/>
      <point x="435" y="24"/>
      <point x="408" y="22" type="curve"/>
      <point x="391" y="19"/>
      <point x="383" y="16"/>
      <point x="383" y="8" type="curve" smooth="yes"/>
      <point x="383" y="1"/>
      <point x="394" y="-1"/>
      <point x="410" y="-1" type="curve" smooth="yes"/>
      <point x="451" y="-1"/>
      <point x="463" y="0"/>
      <point x="486" y="0" type="curve" smooth="yes"/>
      <point x="537" y="0"/>
      <point x="563" y="-5"/>
      <point x="617" y="-5" type="curve" smooth="yes"/>
      <point x="633" y="-5"/>
      <point x="644" y="-3"/>
      <point x="644" y="4" type="curve" smooth="yes"/>
      <point x="644" y="12"/>
      <point x="634" y="16"/>
      <point x="613" y="18" type="curve" smooth="yes"/>
      <point x="586" y="22"/>
      <point x="574" y="24"/>
      <point x="533" y="71" type="curve" smooth="yes"/>
      <point x="277" y="363" type="line" smooth="yes"/>
      <point x="271" y="370"/>
      <point x="268" y="376"/>
      <point x="273" y="381" type="curve"/>
      <point x="338" y="458"/>
      <point x="404" y="526"/>
      <point x="471" y="587" type="curve" smooth="yes"/>
      <point x="510" y="624"/>
      <point x="524" y="629"/>
      <point x="593" y="631" type="curve" smooth="yes"/>
      <point x="618" y="633"/>
      <point x="629" y="639"/>
      <point x="629" y="646" type="curve" smooth="yes"/>
      <point x="629" y="652"/>
      <point x="619" y="655"/>
      <point x="605" y="655" type="curve" smooth="yes"/>
      <point x="594" y="655"/>
      <point x="511" y="651"/>
      <point x="460" y="651" type="curve" smooth="yes"/>
      <point x="409" y="651" type="line" smooth="yes"/>
      <point x="393" y="651"/>
      <point x="382" y="649"/>
      <point x="382" y="643" type="curve" smooth="yes"/>
      <point x="382" y="637"/>
      <point x="388" y="631"/>
      <point x="410" y="629" type="curve"/>
      <point x="439" y="628"/>
      <point x="451" y="624"/>
      <point x="451" y="615" type="curve" smooth="yes"/>
      <point x="451" y="608"/>
      <point x="442" y="598"/>
      <point x="429" y="584" type="curve" smooth="yes"/>
      <point x="229" y="368" type="line"/>
      <point x="222" y="360"/>
      <point x="210" y="350"/>
      <point x="204" y="350" type="curve" smooth="yes"/>
      <point x="199" y="350"/>
      <point x="199" y="364"/>
      <point x="199" y="369" type="curve" smooth="yes"/>
      <point x="199" y="587" type="line" smooth="yes"/>
      <point x="199" y="609"/>
      <point x="202" y="628"/>
      <point x="249" y="631" type="curve" smooth="yes"/>
      <point x="270" y="633"/>
      <point x="280" y="640"/>
      <point x="280" y="645" type="curve" smooth="yes"/>
      <point x="280" y="650"/>
      <point x="268" y="653"/>
      <point x="252" y="653" type="curve" smooth="yes"/>
      <point x="202" y="653"/>
      <point x="197" y="651"/>
      <point x="162" y="651" type="curve" smooth="yes"/>
      <point x="120" y="651"/>
      <point x="107" y="653"/>
      <point x="56" y="653" type="curve" smooth="yes"/>
      <point x="41" y="653"/>
      <point x="29" y="651"/>
      <point x="29" y="645" type="curve" smooth="yes"/>
      <point x="29" y="639"/>
      <point x="38" y="634"/>
      <point x="59" y="632" type="curve" smooth="yes"/>
      <point x="111" y="628"/>
      <point x="121" y="617"/>
      <point x="121" y="584" type="curve" smooth="yes"/>
      <point x="121" y="60" type="line" smooth="yes"/>
      <point x="121" y="30"/>
      <point x="107" y="21"/>
      <point x="61" y="16" type="curve" smooth="yes"/>
      <point x="40" y="14"/>
      <point x="31" y="10"/>
      <point x="31" y="3" type="curve" smooth="yes"/>
      <point x="31" y="-2"/>
      <point x="42" y="-5"/>
    </contour>
  </outline>
</glyph>
<glyph name="L" format="1">
  <advance width="555"/>
  <unicode hex="004C"/>
  <outline>
    <contour>
      <point x="60" y="-5" type="curve"/>
      <point x="60" y="-5"/>
      <point x="139" y="0"/>
      <point x="185" y="0" type="curve" smooth="yes"/>
      <point x="278" y="0"/>
      <point x="382" y="-5"/>
      <point x="506" y="-5" type="curve" smooth="yes"/>
      <point x="516" y="-5"/>
      <point x="518" y="3"/>
      <point x="519" y="12" type="curve" smooth="yes"/>
      <point x="524" y="57"/>
      <point x="532" y="92"/>
      <point x="545" y="146" type="curve" smooth="yes"/>
      <point x="545" y="148"/>
      <point x="546" y="151"/>
      <point x="546" y="154" type="curve" smooth="yes"/>
      <point x="546" y="162"/>
      <point x="541" y="172"/>
      <point x="532" y="172" type="curve" smooth="yes"/>
      <point x="523" y="172"/>
      <point x="515" y="159"/>
      <point x="506" y="133" type="curve" smooth="yes"/>
      <point x="492" y="94"/>
      <point x="485" y="81"/>
      <point x="468" y="60" type="curve" smooth="yes"/>
      <point x="452" y="40"/>
      <point x="427" y="23"/>
      <point x="396" y="23" type="curve" smooth="yes"/>
      <point x="280" y="23" type="line" smooth="yes"/>
      <point x="218" y="23"/>
      <point x="208" y="43"/>
      <point x="208" y="84" type="curve" smooth="yes"/>
      <point x="208" y="594" type="line" smooth="yes"/>
      <point x="208" y="624"/>
      <point x="239" y="625"/>
      <point x="289" y="630" type="curve" smooth="yes"/>
      <point x="312" y="633"/>
      <point x="322" y="638"/>
      <point x="322" y="645" type="curve" smooth="yes"/>
      <point x="322" y="651"/>
      <point x="310" y="653"/>
      <point x="294" y="653" type="curve" smooth="yes"/>
      <point x="243" y="653"/>
      <point x="221" y="650"/>
      <point x="175" y="650" type="curve" smooth="yes"/>
      <point x="134" y="650"/>
      <point x="120" y="653"/>
      <point x="69" y="653" type="curve" smooth="yes"/>
      <point x="53" y="653"/>
      <point x="42" y="651"/>
      <point x="42" y="645" type="curve" smooth="yes"/>
      <point x="42" y="638"/>
      <point x="51" y="633"/>
      <point x="73" y="630" type="curve" smooth="yes"/>
      <point x="120" y="625"/>
      <point x="130" y="625"/>
      <point x="130" y="588" type="curve" smooth="yes"/>
      <point x="130" y="64" type="line" smooth="yes"/>
      <point x="130" y="33"/>
      <point x="117" y="24"/>
      <point x="57" y="17" type="curve" smooth="yes"/>
      <point x="50" y="16"/>
      <point x="34" y="13"/>
      <point x="34" y="4" type="curve" smooth="yes"/>
      <point x="34" y="-1"/>
      <point x="43" y="-5"/>
    </contour>
  </outline>
</glyph>
<glyph name="M" format="1">
  <advance width="841"/>
  <unicode hex="004D"/>
  <outline>
    <contour>
      <point x="45" y="-5" type="curve" smooth="yes"/>
      <point x="96" y="-5"/>
      <point x="97" y="0"/>
      <point x="131" y="0" type="curve" smooth="yes"/>
      <point x="166" y="0"/>
      <point x="169" y="-5"/>
      <point x="220" y="-5" type="curve" smooth="yes"/>
      <point x="236" y="-5"/>
      <point x="248" y="-3"/>
      <point x="248" y="4" type="curve" smooth="yes"/>
      <point x="248" y="12"/>
      <point x="238" y="15"/>
      <point x="217" y="19" type="curve" smooth="yes"/>
      <point x="165" y="25"/>
      <point x="146" y="41"/>
      <point x="146" y="86" type="curve" smooth="yes"/>
      <point x="146" y="232"/>
      <point x="161" y="374"/>
      <point x="169" y="501" type="curve" smooth="yes"/>
      <point x="169" y="508"/>
      <point x="178" y="508"/>
      <point x="181" y="501" type="curve" smooth="yes"/>
      <point x="251" y="325"/>
      <point x="318" y="153"/>
      <point x="367" y="-4" type="curve" smooth="yes"/>
      <point x="370" y="-13"/>
      <point x="382" y="-12"/>
      <point x="385" y="-5" type="curve" smooth="yes"/>
      <point x="595" y="475" type="line" smooth="yes"/>
      <point x="601" y="488"/>
      <point x="608" y="489"/>
      <point x="610" y="475" type="curve"/>
      <point x="615" y="346"/>
      <point x="623" y="239"/>
      <point x="623" y="57" type="curve" smooth="yes"/>
      <point x="623" y="31"/>
      <point x="612" y="22"/>
      <point x="575" y="19" type="curve" smooth="yes"/>
      <point x="554" y="17"/>
      <point x="544" y="12"/>
      <point x="544" y="5" type="curve" smooth="yes"/>
      <point x="544" y="-2"/>
      <point x="556" y="-5"/>
      <point x="572" y="-5" type="curve" smooth="yes"/>
      <point x="623" y="-5"/>
      <point x="632" y="0"/>
      <point x="671" y="0" type="curve" smooth="yes"/>
      <point x="714" y="0"/>
      <point x="730" y="-5"/>
      <point x="781" y="-5" type="curve" smooth="yes"/>
      <point x="797" y="-5"/>
      <point x="809" y="-2"/>
      <point x="809" y="5" type="curve" smooth="yes"/>
      <point x="809" y="12"/>
      <point x="800" y="17"/>
      <point x="778" y="19" type="curve" smooth="yes"/>
      <point x="731" y="24"/>
      <point x="710" y="35"/>
      <point x="708" y="57" type="curve" smooth="yes"/>
      <point x="700" y="250"/>
      <point x="687" y="384"/>
      <point x="687" y="579" type="curve" smooth="yes"/>
      <point x="687" y="606"/>
      <point x="694" y="618"/>
      <point x="710" y="622" type="curve" smooth="yes"/>
      <point x="727" y="626"/>
      <point x="748" y="631"/>
      <point x="765" y="635" type="curve"/>
      <point x="784" y="641"/>
      <point x="789" y="643"/>
      <point x="789" y="649" type="curve" smooth="yes"/>
      <point x="789" y="656"/>
      <point x="775" y="656"/>
      <point x="769" y="656" type="curve" smooth="yes"/>
      <point x="746" y="656"/>
      <point x="697" y="648"/>
      <point x="658" y="648" type="curve" smooth="yes"/>
      <point x="623" y="648" type="line" smooth="yes"/>
      <point x="618" y="648"/>
      <point x="615" y="643"/>
      <point x="614" y="635" type="curve" smooth="yes"/>
      <point x="610" y="614"/>
      <point x="599" y="561"/>
      <point x="594" y="539" type="curve"/>
      <point x="421" y="143" type="line" smooth="yes"/>
      <point x="417" y="133"/>
      <point x="409" y="136"/>
      <point x="405" y="146" type="curve" smooth="yes"/>
      <point x="253" y="555" type="line" smooth="yes"/>
      <point x="244" y="580"/>
      <point x="239" y="607"/>
      <point x="232" y="631" type="curve" smooth="yes"/>
      <point x="230" y="641"/>
      <point x="223" y="647"/>
      <point x="215" y="647" type="curve" smooth="yes"/>
      <point x="191" y="647"/>
      <point x="95" y="655"/>
      <point x="71" y="655" type="curve" smooth="yes"/>
      <point x="52" y="655"/>
      <point x="39" y="654"/>
      <point x="39" y="647" type="curve" smooth="yes"/>
      <point x="39" y="641"/>
      <point x="47" y="637"/>
      <point x="60" y="636" type="curve" smooth="yes"/>
      <point x="95" y="632"/>
      <point x="116" y="628"/>
      <point x="126" y="620" type="curve" smooth="yes"/>
      <point x="135" y="612"/>
      <point x="139" y="601"/>
      <point x="139" y="584" type="curve" smooth="yes"/>
      <point x="140" y="572"/>
      <point x="140" y="558"/>
      <point x="140" y="543" type="curve" smooth="yes"/>
      <point x="140" y="435"/>
      <point x="130" y="286"/>
      <point x="110" y="83" type="curve" smooth="yes"/>
      <point x="106" y="36"/>
      <point x="93" y="23"/>
      <point x="48" y="18" type="curve" smooth="yes"/>
      <point x="27" y="14"/>
      <point x="18" y="12"/>
      <point x="18" y="4" type="curve" smooth="yes"/>
      <point x="18" y="-3"/>
      <point x="29" y="-5"/>
    </contour>
  </outline>
</glyph>
<glyph name="N" format="1">
  <advance width="739"/>
  <unicode hex="004E"/>
  <outline>
    <contour>
      <point x="623" y="-17" type="curve" smooth="yes"/>
      <point x="633" y="-17"/>
      <point x="643" y="-13"/>
      <point x="643" y="8" type="curve" smooth="yes"/>
      <point x="643" y="21"/>
      <point x="639" y="57"/>
      <point x="639" y="105" type="curve" smooth="yes"/>
      <point x="638" y="303"/>
      <point x="640" y="457"/>
      <point x="642" y="558" type="curve" smooth="yes"/>
      <point x="644" y="607"/>
      <point x="663" y="621"/>
      <point x="700" y="629" type="curve" smooth="yes"/>
      <point x="720" y="633"/>
      <point x="729" y="637"/>
      <point x="729" y="644" type="curve" smooth="yes"/>
      <point x="729" y="650"/>
      <point x="719" y="652"/>
      <point x="706" y="652" type="curve" smooth="yes"/>
      <point x="659" y="652"/>
      <point x="654" y="647"/>
      <point x="625" y="647" type="curve" smooth="yes"/>
      <point x="591" y="647"/>
      <point x="591" y="652"/>
      <point x="540" y="652" type="curve" smooth="yes"/>
      <point x="526" y="652"/>
      <point x="517" y="650"/>
      <point x="517" y="644" type="curve" smooth="yes"/>
      <point x="517" y="637"/>
      <point x="526" y="634"/>
      <point x="549" y="630" type="curve" smooth="yes"/>
      <point x="603" y="621"/>
      <point x="613" y="602"/>
      <point x="612" y="560" type="curve" smooth="yes"/>
      <point x="612" y="417"/>
      <point x="611" y="246"/>
      <point x="611" y="146" type="curve"/>
      <point x="610" y="131"/>
      <point x="606" y="125"/>
      <point x="602" y="125" type="curve" smooth="yes"/>
      <point x="594" y="125"/>
      <point x="583" y="139"/>
      <point x="578" y="145" type="curve" smooth="yes"/>
      <point x="560" y="169"/>
      <point x="218" y="609"/>
      <point x="200" y="636" type="curve"/>
      <point x="194" y="645"/>
      <point x="189" y="653"/>
      <point x="178" y="653" type="curve" smooth="yes"/>
      <point x="111" y="653"/>
      <point x="106" y="656"/>
      <point x="33" y="658" type="curve" smooth="yes"/>
      <point x="26" y="658"/>
      <point x="11" y="657"/>
      <point x="11" y="650" type="curve" smooth="yes"/>
      <point x="11" y="642"/>
      <point x="26" y="637"/>
      <point x="41" y="634" type="curve" smooth="yes"/>
      <point x="93" y="629"/>
      <point x="128" y="607"/>
      <point x="128" y="552" type="curve" smooth="yes"/>
      <point x="128" y="344"/>
      <point x="120" y="189"/>
      <point x="115" y="86" type="curve" smooth="yes"/>
      <point x="113" y="39"/>
      <point x="98" y="25"/>
      <point x="60" y="18" type="curve" smooth="yes"/>
      <point x="39" y="14"/>
      <point x="31" y="10"/>
      <point x="31" y="4" type="curve" smooth="yes"/>
      <point x="31" y="-3"/>
      <point x="41" y="-5"/>
      <point x="54" y="-5" type="curve" smooth="yes"/>
      <point x="102" y="-5"/>
      <point x="103" y="0"/>
      <point x="133" y="0" type="curve" smooth="yes"/>
      <point x="165" y="0"/>
      <point x="167" y="-5"/>
      <point x="215" y="-5" type="curve" smooth="yes"/>
      <point x="229" y="-5"/>
      <point x="239" y="-3"/>
      <point x="239" y="4" type="curve" smooth="yes"/>
      <point x="239" y="10"/>
      <point x="229" y="15"/>
      <point x="206" y="17" type="curve" smooth="yes"/>
      <point x="155" y="25"/>
      <point x="143" y="44"/>
      <point x="143" y="85" type="curve" smooth="yes"/>
      <point x="143" y="233"/>
      <point x="153" y="402"/>
      <point x="153" y="497" type="curve" smooth="yes"/>
      <point x="153" y="505"/>
      <point x="156" y="518"/>
      <point x="162" y="518" type="curve" smooth="yes"/>
      <point x="167" y="518"/>
      <point x="173" y="514"/>
      <point x="182" y="502" type="curve" smooth="yes"/>
      <point x="204" y="474"/>
      <point x="525" y="71"/>
      <point x="542" y="46" type="curve" smooth="yes"/>
      <point x="573" y="0"/>
      <point x="612" y="-17"/>
    </contour>
  </outline>
</glyph>
<glyph name="O" format="1">
  <advance width="707"/>
  <unicode hex="004F"/>
  <outline>
    <contour>
      <point x="349" y="-14" type="curve" smooth="yes"/>
      <point x="555" y="-14"/>
      <point x="665" y="148"/>
      <point x="665" y="334" type="curve" smooth="yes"/>
      <point x="665" y="539"/>
      <point x="520" y="664"/>
      <point x="358" y="664" type="curve" smooth="yes"/>
      <point x="152" y="664"/>
      <point x="42" y="503"/>
      <point x="42" y="316" type="curve" smooth="yes"/>
      <point x="42" y="111"/>
      <point x="187" y="-14"/>
    </contour>
    <contour>
      <point x="363" y="13" type="curve" smooth="yes"/>
      <point x="211" y="13"/>
      <point x="136" y="165"/>
      <point x="136" y="367" type="curve" smooth="yes"/>
      <point x="136" y="537"/>
      <point x="206" y="635"/>
      <point x="343" y="635" type="curve" smooth="yes"/>
      <point x="495" y="635"/>
      <point x="571" y="485"/>
      <point x="571" y="284" type="curve" smooth="yes"/>
      <point x="571" y="113"/>
      <point x="502" y="13"/>
    </contour>
  </outline>
</glyph>
<glyph name="P" format="1">
  <advance width="515"/>
  <unicode hex="0050"/>
  <outline>
    <contour>
      <point x="48" y="-5" type="curve" smooth="yes"/>
      <point x="99" y="-5"/>
      <point x="122" y="3"/>
      <point x="169" y="3" type="curve" smooth="yes"/>
      <point x="206" y="3"/>
      <point x="215" y="-5"/>
      <point x="266" y="-5" type="curve" smooth="yes"/>
      <point x="282" y="-5"/>
      <point x="293" y="-1"/>
      <point x="293" y="4" type="curve" smooth="yes"/>
      <point x="293" y="11"/>
      <point x="284" y="15"/>
      <point x="262" y="18" type="curve" smooth="yes"/>
      <point x="205" y="22"/>
      <point x="198" y="37"/>
      <point x="198" y="105" type="curve" smooth="yes"/>
      <point x="198" y="591" type="line" smooth="yes"/>
      <point x="198" y="622"/>
      <point x="221" y="634"/>
      <point x="255" y="634" type="curve" smooth="yes"/>
      <point x="341" y="634"/>
      <point x="408" y="591"/>
      <point x="408" y="471" type="curve" smooth="yes"/>
      <point x="408" y="348"/>
      <point x="371" y="278"/>
      <point x="291" y="278" type="curve" smooth="yes"/>
      <point x="276" y="278"/>
      <point x="265" y="279"/>
      <point x="258" y="279" type="curve" smooth="yes"/>
      <point x="250" y="279"/>
      <point x="241" y="274"/>
      <point x="241" y="269" type="curve" smooth="yes"/>
      <point x="241" y="263"/>
      <point x="256" y="254"/>
      <point x="284" y="254" type="curve" smooth="yes"/>
      <point x="426" y="254"/>
      <point x="492" y="357"/>
      <point x="492" y="480" type="curve" smooth="yes"/>
      <point x="492" y="592"/>
      <point x="398" y="658"/>
      <point x="257" y="658" type="curve" smooth="yes"/>
      <point x="231" y="658"/>
      <point x="191" y="652"/>
      <point x="154" y="652" type="curve" smooth="yes"/>
      <point x="115" y="652"/>
      <point x="112" y="653"/>
      <point x="61" y="653" type="curve" smooth="yes"/>
      <point x="44" y="653"/>
      <point x="33" y="650"/>
      <point x="32" y="644" type="curve" smooth="yes"/>
      <point x="32" y="639"/>
      <point x="42" y="634"/>
      <point x="63" y="631" type="curve" smooth="yes"/>
      <point x="114" y="626"/>
      <point x="120" y="613"/>
      <point x="120" y="556" type="curve" smooth="yes"/>
      <point x="120" y="96" type="line" smooth="yes"/>
      <point x="120" y="30"/>
      <point x="108" y="19"/>
      <point x="51" y="17" type="curve" smooth="yes"/>
      <point x="30" y="15"/>
      <point x="21" y="11"/>
      <point x="21" y="4" type="curve" smooth="yes"/>
      <point x="21" y="-1"/>
      <point x="32" y="-5"/>
    </contour>
  </outline>
</glyph>
<glyph name="Q" format="1">
  <advance width="707"/>
  <unicode hex="0051"/>
  <outline>
    <contour>
      <point x="691" y="-248" type="curve" smooth="yes"/>
      <point x="726" y="-248"/>
      <point x="766" y="-238"/>
      <point x="801" y="-216" type="curve" smooth="yes"/>
      <point x="816" y="-207"/>
      <point x="819" y="-200"/>
      <point x="819" y="-188" type="curve" smooth="yes"/>
      <point x="819" y="-182"/>
      <point x="813" y="-178"/>
      <point x="807" y="-178" type="curve" smooth="yes"/>
      <point x="802" y="-178"/>
      <point x="795" y="-180"/>
      <point x="789" y="-182" type="curve"/>
      <point x="778" y="-187"/>
      <point x="755" y="-191"/>
      <point x="731" y="-190" type="curve" smooth="yes"/>
      <point x="663" y="-190"/>
      <point x="612" y="-173"/>
      <point x="554" y="-129" type="curve" smooth="yes"/>
      <point x="508" y="-93"/>
      <point x="473" y="-60"/>
      <point x="437" y="-18" type="curve"/>
      <point x="434" y="-15"/>
      <point x="433" y="-12"/>
      <point x="433" y="-9" type="curve" smooth="yes"/>
      <point x="433" y="-7"/>
      <point x="434" y="-4"/>
      <point x="441" y="-2" type="curve" smooth="yes"/>
      <point x="588" y="39"/>
      <point x="665" y="178"/>
      <point x="665" y="334" type="curve" smooth="yes"/>
      <point x="665" y="539"/>
      <point x="520" y="664"/>
      <point x="358" y="664" type="curve" smooth="yes"/>
      <point x="152" y="664"/>
      <point x="42" y="503"/>
      <point x="42" y="316" type="curve" smooth="yes"/>
      <point x="42" y="154"/>
      <point x="129" y="57"/>
      <point x="232" y="9" type="curve"/>
      <point x="259" y="-4"/>
      <point x="296" y="-17"/>
      <point x="338" y="-54" type="curve" smooth="yes"/>
      <point x="397" y="-104"/>
      <point x="434" y="-133"/>
      <point x="483" y="-170" type="curve" smooth="yes"/>
      <point x="544" y="-218"/>
      <point x="600" y="-248"/>
    </contour>
    <contour>
      <point x="363" y="13" type="curve" smooth="yes"/>
      <point x="211" y="13"/>
      <point x="136" y="165"/>
      <point x="136" y="367" type="curve" smooth="yes"/>
      <point x="136" y="537"/>
      <point x="206" y="635"/>
      <point x="343" y="635" type="curve" smooth="yes"/>
      <point x="495" y="635"/>
      <point x="571" y="485"/>
      <point x="571" y="284" type="curve" smooth="yes"/>
      <point x="571" y="113"/>
      <point x="502" y="13"/>
    </contour>
  </outline>
</glyph>
<glyph name="R" format="1">
  <advance width="666"/>
  <unicode hex="0052"/>
  <outline>
    <contour>
      <point x="594" y="-21" type="curve" smooth="yes"/>
      <point x="617" y="-21"/>
      <point x="672" y="-18"/>
      <point x="672" y="2" type="curve" smooth="yes"/>
      <point x="672" y="7"/>
      <point x="667" y="8"/>
      <point x="658" y="8" type="curve" smooth="yes"/>
      <point x="624" y="8"/>
      <point x="604" y="16"/>
      <point x="576" y="41" type="curve" smooth="yes"/>
      <point x="472" y="131"/>
      <point x="416" y="225"/>
      <point x="357" y="316" type="curve" smooth="yes"/>
      <point x="353" y="322"/>
      <point x="352" y="327"/>
      <point x="357" y="329" type="curve"/>
      <point x="409" y="357"/>
      <point x="470" y="403"/>
      <point x="470" y="493" type="curve" smooth="yes"/>
      <point x="470" y="603"/>
      <point x="395" y="657"/>
      <point x="263" y="657" type="curve" smooth="yes"/>
      <point x="209" y="657"/>
      <point x="188" y="652"/>
      <point x="153" y="652" type="curve" smooth="yes"/>
      <point x="116" y="652"/>
      <point x="109" y="654"/>
      <point x="60" y="654" type="curve" smooth="yes"/>
      <point x="44" y="654"/>
      <point x="33" y="650"/>
      <point x="33" y="644" type="curve" smooth="yes"/>
      <point x="33" y="637"/>
      <point x="42" y="633"/>
      <point x="63" y="630" type="curve" smooth="yes"/>
      <point x="114" y="625"/>
      <point x="119" y="617"/>
      <point x="119" y="555" type="curve" smooth="yes"/>
      <point x="119" y="80" type="line" smooth="yes"/>
      <point x="119" y="34"/>
      <point x="110" y="24"/>
      <point x="55" y="18" type="curve" smooth="yes"/>
      <point x="34" y="15"/>
      <point x="25" y="12"/>
      <point x="25" y="4" type="curve" smooth="yes"/>
      <point x="25" y="-2"/>
      <point x="36" y="-5"/>
      <point x="52" y="-5" type="curve" smooth="yes"/>
      <point x="102" y="-5"/>
      <point x="125" y="3"/>
      <point x="170" y="3" type="curve" smooth="yes"/>
      <point x="208" y="3"/>
      <point x="217" y="-5"/>
      <point x="266" y="-5" type="curve" smooth="yes"/>
      <point x="282" y="-5"/>
      <point x="293" y="-2"/>
      <point x="293" y="4" type="curve" smooth="yes"/>
      <point x="293" y="12"/>
      <point x="284" y="15"/>
      <point x="263" y="18" type="curve" smooth="yes"/>
      <point x="214" y="23"/>
      <point x="197" y="39"/>
      <point x="197" y="81" type="curve" smooth="yes"/>
      <point x="197" y="283" type="line" smooth="yes"/>
      <point x="197" y="295"/>
      <point x="201" y="304"/>
      <point x="211" y="303" type="curve" smooth="yes"/>
      <point x="228" y="301"/>
      <point x="257" y="296"/>
      <point x="283" y="282" type="curve" smooth="yes"/>
      <point x="301" y="272"/>
      <point x="312" y="261"/>
      <point x="323" y="243" type="curve" smooth="yes"/>
      <point x="386" y="133"/>
      <point x="417" y="93"/>
      <point x="462" y="34" type="curve" smooth="yes"/>
      <point x="495" y="-10"/>
      <point x="540" y="-21"/>
    </contour>
    <contour>
      <point x="246" y="327" type="curve" smooth="yes"/>
      <point x="215" y="327"/>
      <point x="197" y="329"/>
      <point x="197" y="362" type="curve" smooth="yes"/>
      <point x="197" y="442"/>
      <point x="198" y="499"/>
      <point x="199" y="532" type="curve" smooth="yes"/>
      <point x="202" y="602"/>
      <point x="209" y="626"/>
      <point x="248" y="626" type="curve" smooth="yes"/>
      <point x="363" y="626"/>
      <point x="382" y="557"/>
      <point x="382" y="476" type="curve" smooth="yes"/>
      <point x="382" y="386"/>
      <point x="352" y="327"/>
    </contour>
  </outline>
</glyph>
<glyph name="S" format="1">
  <advance width="435"/>
  <unicode hex="0053"/>
  <outline>
    <contour>
      <point x="191" y="-16" type="curve" smooth="yes"/>
      <point x="313" y="-16"/>
      <point x="395" y="61"/>
      <point x="395" y="179" type="curve" smooth="yes"/>
      <point x="395" y="276"/>
      <point x="326" y="322"/>
      <point x="260" y="368" type="curve" smooth="yes"/>
      <point x="192" y="414"/>
      <point x="134" y="453"/>
      <point x="134" y="511" type="curve" smooth="yes"/>
      <point x="134" y="589"/>
      <point x="171" y="636"/>
      <point x="236" y="636" type="curve" smooth="yes"/>
      <point x="289" y="636"/>
      <point x="318" y="611"/>
      <point x="349" y="516" type="curve" smooth="yes"/>
      <point x="352" y="506"/>
      <point x="363" y="501"/>
      <point x="373" y="501" type="curve" smooth="yes"/>
      <point x="380" y="501"/>
      <point x="388" y="505"/>
      <point x="388" y="515" type="curve" smooth="yes"/>
      <point x="388" y="547"/>
      <point x="377" y="587"/>
      <point x="369" y="616" type="curve" smooth="yes"/>
      <point x="366" y="627"/>
      <point x="358" y="638"/>
      <point x="349" y="642" type="curve" smooth="yes"/>
      <point x="328" y="651"/>
      <point x="296" y="664"/>
      <point x="251" y="664" type="curve" smooth="yes"/>
      <point x="119" y="664"/>
      <point x="56" y="583"/>
      <point x="56" y="485" type="curve" smooth="yes"/>
      <point x="56" y="390"/>
      <point x="135" y="346"/>
      <point x="208" y="295" type="curve"/>
      <point x="275" y="249"/>
      <point x="312" y="220"/>
      <point x="312" y="145" type="curve" smooth="yes"/>
      <point x="312" y="67"/>
      <point x="272" y="11"/>
      <point x="205" y="11" type="curve" smooth="yes"/>
      <point x="154" y="11"/>
      <point x="100" y="43"/>
      <point x="73" y="160" type="curve" smooth="yes"/>
      <point x="71" y="168"/>
      <point x="62" y="173"/>
      <point x="56" y="173" type="curve" smooth="yes"/>
      <point x="47" y="173"/>
      <point x="37" y="166"/>
      <point x="38" y="157" type="curve" smooth="yes"/>
      <point x="38" y="129"/>
      <point x="41" y="79"/>
      <point x="47" y="52" type="curve" smooth="yes"/>
      <point x="49" y="44"/>
      <point x="54" y="37"/>
      <point x="59" y="32" type="curve"/>
      <point x="93" y="1"/>
      <point x="139" y="-16"/>
    </contour>
  </outline>
</glyph>
<glyph name="T" format="1">
  <advance width="625"/>
  <unicode hex="0054"/>
  <outline>
    <contour>
      <point x="199" y="-5" type="curve" smooth="yes"/>
      <point x="250" y="-5"/>
      <point x="272" y="-2"/>
      <point x="320" y="-2" type="curve" smooth="yes"/>
      <point x="363" y="-2"/>
      <point x="379" y="-5"/>
      <point x="430" y="-5" type="curve" smooth="yes"/>
      <point x="446" y="-5"/>
      <point x="457" y="-3"/>
      <point x="457" y="3" type="curve" smooth="yes"/>
      <point x="457" y="10"/>
      <point x="448" y="14"/>
      <point x="424" y="17" type="curve" smooth="yes"/>
      <point x="380" y="22"/>
      <point x="353" y="33"/>
      <point x="353" y="72" type="curve" smooth="yes"/>
      <point x="353" y="508" type="line" smooth="yes"/>
      <point x="353" y="613"/>
      <point x="357" y="618"/>
      <point x="400" y="618" type="curve" smooth="yes"/>
      <point x="495" y="618" type="line" smooth="yes"/>
      <point x="549" y="618"/>
      <point x="567" y="596"/>
      <point x="572" y="562" type="curve"/>
      <point x="577" y="531"/>
      <point x="581" y="513"/>
      <point x="593" y="513" type="curve" smooth="yes"/>
      <point x="603" y="513"/>
      <point x="610" y="532"/>
      <point x="610" y="545" type="curve" smooth="yes"/>
      <point x="610" y="558" type="line" smooth="yes"/>
      <point x="610" y="586"/>
      <point x="614" y="586"/>
      <point x="619" y="623" type="curve" smooth="yes"/>
      <point x="620" y="630"/>
      <point x="623" y="646"/>
      <point x="623" y="654" type="curve" smooth="yes"/>
      <point x="623" y="665"/>
      <point x="619" y="677"/>
      <point x="615" y="677" type="curve" smooth="yes"/>
      <point x="597" y="677"/>
      <point x="590" y="665"/>
      <point x="572" y="657" type="curve" smooth="yes"/>
      <point x="554" y="648"/>
      <point x="532" y="642"/>
      <point x="493" y="642" type="curve" smooth="yes"/>
      <point x="158" y="642" type="line" smooth="yes"/>
      <point x="136" y="642"/>
      <point x="112" y="648"/>
      <point x="105" y="662" type="curve" smooth="yes"/>
      <point x="97" y="675"/>
      <point x="84" y="694"/>
      <point x="78" y="694" type="curve" smooth="yes"/>
      <point x="71" y="694"/>
      <point x="61" y="691"/>
      <point x="58" y="669" type="curve" smooth="yes"/>
      <point x="53" y="623"/>
      <point x="47" y="596"/>
      <point x="29" y="555" type="curve" smooth="yes"/>
      <point x="27" y="548"/>
      <point x="25" y="541"/>
      <point x="25" y="535" type="curve" smooth="yes"/>
      <point x="25" y="527"/>
      <point x="31" y="521"/>
      <point x="36" y="521" type="curve" smooth="yes"/>
      <point x="51" y="521"/>
      <point x="67" y="543"/>
      <point x="79" y="570" type="curve" smooth="yes"/>
      <point x="93" y="601"/>
      <point x="117" y="618"/>
      <point x="143" y="618" type="curve" smooth="yes"/>
      <point x="193" y="618" type="line" smooth="yes"/>
      <point x="223" y="618"/>
      <point x="239" y="618"/>
      <point x="256" y="613" type="curve" smooth="yes"/>
      <point x="270" y="610"/>
      <point x="275" y="588"/>
      <point x="275" y="505" type="curve" smooth="yes"/>
      <point x="275" y="72" type="line" smooth="yes"/>
      <point x="275" y="33"/>
      <point x="249" y="22"/>
      <point x="204" y="16" type="curve" smooth="yes"/>
      <point x="181" y="14"/>
      <point x="171" y="10"/>
      <point x="171" y="3" type="curve" smooth="yes"/>
      <point x="171" y="-3"/>
      <point x="183" y="-5"/>
    </contour>
  </outline>
</glyph>
<glyph name="U" format="1">
  <advance width="687"/>
  <unicode hex="0055"/>
  <outline>
    <contour>
      <point x="340" y="-14" type="curve" smooth="yes"/>
      <point x="476" y="-14"/>
      <point x="575" y="92"/>
      <point x="580" y="244" type="curve" smooth="yes"/>
      <point x="583" y="342"/>
      <point x="583" y="425"/>
      <point x="589" y="568" type="curve" smooth="yes"/>
      <point x="592" y="610"/>
      <point x="605" y="623"/>
      <point x="641" y="630" type="curve" smooth="yes"/>
      <point x="667" y="635"/>
      <point x="678" y="639"/>
      <point x="678" y="645" type="curve" smooth="yes"/>
      <point x="678" y="651"/>
      <point x="666" y="653"/>
      <point x="650" y="653" type="curve" smooth="yes"/>
      <point x="628" y="653"/>
      <point x="603" y="650"/>
      <point x="572" y="650" type="curve" smooth="yes"/>
      <point x="544" y="650"/>
      <point x="528" y="651"/>
      <point x="499" y="652" type="curve" smooth="yes"/>
      <point x="483" y="652"/>
      <point x="472" y="650"/>
      <point x="472" y="644" type="curve" smooth="yes"/>
      <point x="472" y="637"/>
      <point x="493" y="632"/>
      <point x="509" y="628" type="curve" smooth="yes"/>
      <point x="540" y="620"/>
      <point x="554" y="595"/>
      <point x="555" y="537" type="curve" smooth="yes"/>
      <point x="557" y="427"/>
      <point x="557" y="337"/>
      <point x="557" y="283" type="curve" smooth="yes"/>
      <point x="557" y="139"/>
      <point x="501" y="42"/>
      <point x="371" y="42" type="curve" smooth="yes"/>
      <point x="256" y="42"/>
      <point x="173" y="109"/>
      <point x="173" y="257" type="curve" smooth="yes"/>
      <point x="173" y="570" type="line" smooth="yes"/>
      <point x="173" y="613"/>
      <point x="189" y="626"/>
      <point x="213" y="629" type="curve" smooth="yes"/>
      <point x="233" y="634"/>
      <point x="243" y="638"/>
      <point x="243" y="645" type="curve" smooth="yes"/>
      <point x="243" y="651"/>
      <point x="232" y="653"/>
      <point x="217" y="653" type="curve" smooth="yes"/>
      <point x="196" y="652"/>
      <point x="170" y="650"/>
      <point x="140" y="650" type="curve" smooth="yes"/>
      <point x="105" y="650"/>
      <point x="77" y="653"/>
      <point x="48" y="653" type="curve" smooth="yes"/>
      <point x="33" y="653"/>
      <point x="22" y="651"/>
      <point x="22" y="645" type="curve" smooth="yes"/>
      <point x="22" y="639"/>
      <point x="31" y="634"/>
      <point x="52" y="629" type="curve" smooth="yes"/>
      <point x="86" y="624"/>
      <point x="95" y="615"/>
      <point x="95" y="564" type="curve" smooth="yes"/>
      <point x="95" y="234" type="line" smooth="yes"/>
      <point x="95" y="85"/>
      <point x="178" y="-14"/>
    </contour>
  </outline>
</glyph>
<glyph name="V" format="1">
  <advance width="619"/>
  <unicode hex="0056"/>
  <outline>
    <contour>
      <point x="297" y="-12" type="curve" smooth="yes"/>
      <point x="301" y="-12"/>
      <point x="306" y="-9"/>
      <point x="308" y="-5" type="curve" smooth="yes"/>
      <point x="320" y="19"/>
      <point x="334" y="65"/>
      <point x="339" y="79" type="curve" smooth="yes"/>
      <point x="525" y="565" type="line" smooth="yes"/>
      <point x="540" y="606"/>
      <point x="550" y="627"/>
      <point x="602" y="632" type="curve" smooth="yes"/>
      <point x="623" y="634"/>
      <point x="632" y="638"/>
      <point x="632" y="644" type="curve" smooth="yes"/>
      <point x="632" y="649"/>
      <point x="622" y="652"/>
      <point x="608" y="652" type="curve" smooth="yes"/>
      <point x="586" y="652"/>
      <point x="544" y="649"/>
      <point x="511" y="649" type="curve" smooth="yes"/>
      <point x="479" y="649"/>
      <point x="449" y="650"/>
      <point x="427" y="650" type="curve" smooth="yes"/>
      <point x="413" y="650"/>
      <point x="403" y="649"/>
      <point x="403" y="643" type="curve" smooth="yes"/>
      <point x="403" y="638"/>
      <point x="412" y="634"/>
      <point x="444" y="631" type="curve" smooth="yes"/>
      <point x="508" y="625"/>
      <point x="517" y="615"/>
      <point x="484" y="529" type="curve" smooth="yes"/>
      <point x="335" y="140" type="line" smooth="yes"/>
      <point x="331" y="131"/>
      <point x="326" y="134"/>
      <point x="325" y="139" type="curve" smooth="yes"/>
      <point x="179" y="546" type="line" smooth="yes"/>
      <point x="176" y="555"/>
      <point x="169" y="572"/>
      <point x="169" y="594" type="curve" smooth="yes"/>
      <point x="169" y="616"/>
      <point x="194" y="628"/>
      <point x="223" y="631" type="curve" smooth="yes"/>
      <point x="250" y="634"/>
      <point x="259" y="639"/>
      <point x="259" y="645" type="curve" smooth="yes"/>
      <point x="259" y="650"/>
      <point x="248" y="653"/>
      <point x="232" y="653" type="curve" smooth="yes"/>
      <point x="214" y="653"/>
      <point x="177" y="650"/>
      <point x="140" y="650" type="curve" smooth="yes"/>
      <point x="97" y="650"/>
      <point x="55" y="653"/>
      <point x="27" y="653" type="curve" smooth="yes"/>
      <point x="11" y="653"/>
      <point x="0" y="651"/>
      <point x="0" y="646" type="curve" smooth="yes"/>
      <point x="0" y="640"/>
      <point x="12" y="636"/>
      <point x="32" y="632" type="curve" smooth="yes"/>
      <point x="62" y="627"/>
      <point x="79" y="593"/>
      <point x="90" y="558" type="curve" smooth="yes"/>
      <point x="264" y="58" type="line" smooth="yes"/>
      <point x="270" y="39"/>
      <point x="279" y="9"/>
      <point x="285" y="-5" type="curve" smooth="yes"/>
      <point x="287" y="-10"/>
      <point x="293" y="-12"/>
    </contour>
  </outline>
</glyph>
<glyph name="W" format="1">
  <advance width="867"/>
  <unicode hex="0057"/>
  <outline>
    <contour>
      <point x="315" y="-16" type="curve" smooth="yes"/>
      <point x="325" y="-16"/>
      <point x="333" y="1"/>
      <point x="338" y="15" type="curve" smooth="yes"/>
      <point x="379" y="130"/>
      <point x="406" y="194"/>
      <point x="446" y="308" type="curve" smooth="yes"/>
      <point x="451" y="321"/>
      <point x="453" y="323"/>
      <point x="457" y="314" type="curve"/>
      <point x="500" y="197"/>
      <point x="521" y="126"/>
      <point x="568" y="8" type="curve" smooth="yes"/>
      <point x="572" y="-2"/>
      <point x="582" y="-12"/>
      <point x="588" y="-12" type="curve" smooth="yes"/>
      <point x="597" y="-12"/>
      <point x="607" y="3"/>
      <point x="609" y="12" type="curve" smooth="yes"/>
      <point x="775" y="567" type="line" smooth="yes"/>
      <point x="787" y="605"/>
      <point x="805" y="628"/>
      <point x="842" y="633" type="curve" smooth="yes"/>
      <point x="861" y="635"/>
      <point x="868" y="639"/>
      <point x="868" y="645" type="curve" smooth="yes"/>
      <point x="868" y="650"/>
      <point x="857" y="653"/>
      <point x="841" y="653" type="curve" smooth="yes"/>
      <point x="817" y="653"/>
      <point x="799" y="650"/>
      <point x="768" y="650" type="curve" smooth="yes"/>
      <point x="749" y="650"/>
      <point x="733" y="651"/>
      <point x="713" y="651" type="curve" smooth="yes"/>
      <point x="700" y="651"/>
      <point x="692" y="649"/>
      <point x="692" y="644" type="curve" smooth="yes"/>
      <point x="692" y="638"/>
      <point x="704" y="634"/>
      <point x="713" y="632" type="curve" smooth="yes"/>
      <point x="741" y="628"/>
      <point x="748" y="622"/>
      <point x="749" y="598" type="curve" smooth="yes"/>
      <point x="749" y="590"/>
      <point x="749" y="581"/>
      <point x="746" y="570" type="curve" smooth="yes"/>
      <point x="691" y="366"/>
      <point x="644" y="229"/>
      <point x="616" y="138" type="curve"/>
      <point x="613" y="129"/>
      <point x="609" y="125"/>
      <point x="606" y="132" type="curve" smooth="yes"/>
      <point x="506" y="403" type="line" smooth="yes"/>
      <point x="503" y="410"/>
      <point x="508" y="431"/>
      <point x="511" y="441" type="curve" smooth="yes"/>
      <point x="527" y="484"/>
      <point x="554" y="554"/>
      <point x="562" y="572" type="curve" smooth="yes"/>
      <point x="581" y="614"/>
      <point x="589" y="627"/>
      <point x="627" y="631" type="curve" smooth="yes"/>
      <point x="647" y="634"/>
      <point x="657" y="639"/>
      <point x="657" y="645" type="curve" smooth="yes"/>
      <point x="657" y="651"/>
      <point x="646" y="653"/>
      <point x="631" y="653" type="curve" smooth="yes"/>
      <point x="608" y="653"/>
      <point x="594" y="649"/>
      <point x="573" y="649" type="curve" smooth="yes"/>
      <point x="555" y="649"/>
      <point x="548" y="651"/>
      <point x="521" y="651" type="curve" smooth="yes"/>
      <point x="505" y="651"/>
      <point x="494" y="651"/>
      <point x="494" y="642" type="curve" smooth="yes"/>
      <point x="494" y="630"/>
      <point x="541" y="636"/>
      <point x="541" y="610" type="curve" smooth="yes"/>
      <point x="541" y="605"/>
      <point x="540" y="597"/>
      <point x="537" y="591" type="curve" smooth="yes"/>
      <point x="532" y="574"/>
      <point x="507" y="509"/>
      <point x="495" y="472" type="curve" smooth="yes"/>
      <point x="489" y="453"/>
      <point x="485" y="456"/>
      <point x="478" y="472" type="curve" smooth="yes"/>
      <point x="471" y="491"/>
      <point x="441" y="564"/>
      <point x="427" y="607" type="curve" smooth="yes"/>
      <point x="426" y="610"/>
      <point x="425" y="614"/>
      <point x="425" y="616" type="curve" smooth="yes"/>
      <point x="425" y="637"/>
      <point x="469" y="635"/>
      <point x="469" y="643" type="curve" smooth="yes"/>
      <point x="469" y="649"/>
      <point x="455" y="652"/>
      <point x="434" y="652" type="curve" smooth="yes"/>
      <point x="423" y="652"/>
      <point x="398" y="650"/>
      <point x="369" y="650" type="curve" smooth="yes"/>
      <point x="335" y="650"/>
      <point x="309" y="653"/>
      <point x="274" y="653" type="curve" smooth="yes"/>
      <point x="261" y="653"/>
      <point x="252" y="650"/>
      <point x="252" y="645" type="curve" smooth="yes"/>
      <point x="252" y="639"/>
      <point x="261" y="633"/>
      <point x="279" y="631" type="curve" smooth="yes"/>
      <point x="328" y="628"/>
      <point x="343" y="613"/>
      <point x="353" y="585" type="curve" smooth="yes"/>
      <point x="428" y="389" type="line" smooth="yes"/>
      <point x="433" y="376"/>
      <point x="436" y="368"/>
      <point x="436" y="361" type="curve" smooth="yes"/>
      <point x="436" y="355"/>
      <point x="434" y="348"/>
      <point x="430" y="338" type="curve" smooth="yes"/>
      <point x="357" y="141" type="line" smooth="yes"/>
      <point x="353" y="130"/>
      <point x="350" y="127"/>
      <point x="343" y="142" type="curve" smooth="yes"/>
      <point x="278" y="293"/>
      <point x="241" y="382"/>
      <point x="173" y="574" type="curve" smooth="yes"/>
      <point x="168" y="587"/>
      <point x="165" y="601"/>
      <point x="165" y="610" type="curve" smooth="yes"/>
      <point x="165" y="619"/>
      <point x="168" y="627"/>
      <point x="186" y="629" type="curve"/>
      <point x="215" y="633"/>
      <point x="227" y="636"/>
      <point x="227" y="643" type="curve" smooth="yes"/>
      <point x="227" y="650"/>
      <point x="216" y="652"/>
      <point x="200" y="652" type="curve" smooth="yes"/>
      <point x="181" y="652"/>
      <point x="147" y="650"/>
      <point x="112" y="650" type="curve" smooth="yes"/>
      <point x="79" y="650"/>
      <point x="56" y="653"/>
      <point x="21" y="653" type="curve" smooth="yes"/>
      <point x="9" y="653"/>
      <point x="0" y="650"/>
      <point x="0" y="646" type="curve" smooth="yes"/>
      <point x="0" y="639"/>
      <point x="8" y="635"/>
      <point x="27" y="630" type="curve" smooth="yes"/>
      <point x="50" y="625"/>
      <point x="71" y="621"/>
      <point x="80" y="599" type="curve"/>
      <point x="298" y="12" type="line" smooth="yes"/>
      <point x="303" y="-2"/>
      <point x="311" y="-16"/>
    </contour>
  </outline>
</glyph>
<glyph name="X" format="1">
  <advance width="662"/>
  <unicode hex="0058"/>
  <outline>
    <contour>
      <point x="22" y="-4" type="curve" smooth="yes"/>
      <point x="53" y="-4"/>
      <point x="99" y="0"/>
      <point x="141" y="0" type="curve" smooth="yes"/>
      <point x="175" y="0"/>
      <point x="209" y="0"/>
      <point x="226" y="0" type="curve" smooth="yes"/>
      <point x="241" y="0"/>
      <point x="253" y="3"/>
      <point x="253" y="9" type="curve" smooth="yes"/>
      <point x="253" y="15"/>
      <point x="243" y="18"/>
      <point x="223" y="23" type="curve" smooth="yes"/>
      <point x="180" y="30"/>
      <point x="158" y="34"/>
      <point x="158" y="50" type="curve" smooth="yes"/>
      <point x="158" y="58"/>
      <point x="164" y="70"/>
      <point x="176" y="87" type="curve" smooth="yes"/>
      <point x="309" y="270" type="line" smooth="yes"/>
      <point x="316" y="279"/>
      <point x="320" y="279"/>
      <point x="330" y="265" type="curve" smooth="yes"/>
      <point x="437" y="104" type="line"/>
      <point x="446" y="91"/>
      <point x="448" y="80"/>
      <point x="448" y="70" type="curve" smooth="yes"/>
      <point x="448" y="46"/>
      <point x="436" y="30"/>
      <point x="401" y="24" type="curve" smooth="yes"/>
      <point x="388" y="21"/>
      <point x="370" y="18"/>
      <point x="370" y="11" type="curve" smooth="yes"/>
      <point x="370" y="5"/>
      <point x="381" y="1"/>
      <point x="397" y="1" type="curve" smooth="yes"/>
      <point x="419" y="1"/>
      <point x="455" y="2"/>
      <point x="494" y="2" type="curve" smooth="yes"/>
      <point x="538" y="2"/>
      <point x="601" y="-4"/>
      <point x="628" y="-4" type="curve" smooth="yes"/>
      <point x="644" y="-4"/>
      <point x="655" y="-2"/>
      <point x="655" y="4" type="curve" smooth="yes"/>
      <point x="655" y="11"/>
      <point x="646" y="15"/>
      <point x="622" y="19" type="curve" smooth="yes"/>
      <point x="598" y="24"/>
      <point x="558" y="60"/>
      <point x="531" y="102" type="curve" smooth="yes"/>
      <point x="378" y="337" type="line"/>
      <point x="371" y="352"/>
      <point x="376" y="356"/>
      <point x="390" y="377" type="curve" smooth="yes"/>
      <point x="502" y="541" type="line" smooth="yes"/>
      <point x="544" y="604"/>
      <point x="581" y="625"/>
      <point x="622" y="630" type="curve" smooth="yes"/>
      <point x="645" y="634"/>
      <point x="654" y="637"/>
      <point x="654" y="644" type="curve" smooth="yes"/>
      <point x="654" y="650"/>
      <point x="643" y="653"/>
      <point x="627" y="653" type="curve" smooth="yes"/>
      <point x="600" y="653"/>
      <point x="555" y="650"/>
      <point x="517" y="650" type="curve" smooth="yes"/>
      <point x="487" y="650"/>
      <point x="455" y="651"/>
      <point x="434" y="651" type="curve" smooth="yes"/>
      <point x="418" y="651"/>
      <point x="407" y="648"/>
      <point x="407" y="641" type="curve" smooth="yes"/>
      <point x="407" y="635"/>
      <point x="422" y="629"/>
      <point x="436" y="628" type="curve" smooth="yes"/>
      <point x="479" y="627"/>
      <point x="498" y="612"/>
      <point x="498" y="596" type="curve" smooth="yes"/>
      <point x="498" y="584"/>
      <point x="489" y="569"/>
      <point x="478" y="551" type="curve" smooth="yes"/>
      <point x="370" y="391" type="line" smooth="yes"/>
      <point x="360" y="376"/>
      <point x="356" y="373"/>
      <point x="342" y="394" type="curve" smooth="yes"/>
      <point x="239" y="546" type="line"/>
      <point x="220" y="574"/>
      <point x="212" y="590"/>
      <point x="212" y="601" type="curve" smooth="yes"/>
      <point x="212" y="619"/>
      <point x="237" y="627"/>
      <point x="266" y="631" type="curve" smooth="yes"/>
      <point x="285" y="635"/>
      <point x="296" y="637"/>
      <point x="296" y="644" type="curve" smooth="yes"/>
      <point x="296" y="650"/>
      <point x="285" y="653"/>
      <point x="269" y="653" type="curve" smooth="yes"/>
      <point x="251" y="653"/>
      <point x="216" y="652"/>
      <point x="178" y="652" type="curve" smooth="yes"/>
      <point x="132" y="652"/>
      <point x="74" y="655"/>
      <point x="44" y="655" type="curve" smooth="yes"/>
      <point x="28" y="655"/>
      <point x="17" y="653"/>
      <point x="17" y="647" type="curve" smooth="yes"/>
      <point x="17" y="641"/>
      <point x="28" y="636"/>
      <point x="50" y="632" type="curve" smooth="yes"/>
      <point x="78" y="627"/>
      <point x="105" y="604"/>
      <point x="147" y="542" type="curve" smooth="yes"/>
      <point x="287" y="337" type="line" smooth="yes"/>
      <point x="305" y="310"/>
      <point x="295" y="295"/>
      <point x="281" y="276" type="curve"/>
      <point x="162" y="116" type="line" smooth="yes"/>
      <point x="123" y="64"/>
      <point x="58" y="28"/>
      <point x="34" y="23" type="curve" smooth="yes"/>
      <point x="5" y="17"/>
      <point x="-5" y="12"/>
      <point x="-5" y="5" type="curve" smooth="yes"/>
      <point x="-5" y="-1"/>
      <point x="6" y="-4"/>
    </contour>
  </outline>
</glyph>
<glyph name="Y" format="1">
  <advance width="542"/>
  <unicode hex="0059"/>
  <outline>
    <contour>
      <point x="170" y="-5" type="curve" smooth="yes"/>
      <point x="221" y="-5"/>
      <point x="243" y="-3"/>
      <point x="290" y="-3" type="curve" smooth="yes"/>
      <point x="333" y="-3"/>
      <point x="349" y="-5"/>
      <point x="399" y="-5" type="curve" smooth="yes"/>
      <point x="415" y="-5"/>
      <point x="427" y="-3"/>
      <point x="427" y="3" type="curve" smooth="yes"/>
      <point x="427" y="8"/>
      <point x="417" y="12"/>
      <point x="396" y="14" type="curve" smooth="yes"/>
      <point x="350" y="19"/>
      <point x="323" y="34"/>
      <point x="323" y="66" type="curve" smooth="yes"/>
      <point x="323" y="269" type="line" smooth="yes"/>
      <point x="323" y="308"/>
      <point x="322" y="316"/>
      <point x="346" y="359" type="curve" smooth="yes"/>
      <point x="389" y="434"/>
      <point x="406" y="466"/>
      <point x="453" y="549" type="curve" smooth="yes"/>
      <point x="482" y="601"/>
      <point x="501" y="623"/>
      <point x="532" y="629" type="curve" smooth="yes"/>
      <point x="557" y="635"/>
      <point x="582" y="637"/>
      <point x="582" y="643" type="curve" smooth="yes"/>
      <point x="582" y="650"/>
      <point x="571" y="653"/>
      <point x="554" y="653" type="curve" smooth="yes"/>
      <point x="533" y="653"/>
      <point x="495" y="651"/>
      <point x="456" y="651" type="curve" smooth="yes"/>
      <point x="429" y="651"/>
      <point x="409" y="652"/>
      <point x="380" y="652" type="curve" smooth="yes"/>
      <point x="364" y="652"/>
      <point x="353" y="650"/>
      <point x="353" y="645" type="curve" smooth="yes"/>
      <point x="353" y="638"/>
      <point x="371" y="632"/>
      <point x="384" y="630" type="curve" smooth="yes"/>
      <point x="421" y="628"/>
      <point x="438" y="617"/>
      <point x="438" y="594" type="curve" smooth="yes"/>
      <point x="438" y="584"/>
      <point x="434" y="572"/>
      <point x="426" y="556" type="curve" smooth="yes"/>
      <point x="396" y="499"/>
      <point x="364" y="438"/>
      <point x="337" y="396" type="curve" smooth="yes"/>
      <point x="322" y="369"/>
      <point x="313" y="347"/>
      <point x="306" y="347" type="curve" smooth="yes"/>
      <point x="300" y="347"/>
      <point x="293" y="360"/>
      <point x="280" y="385" type="curve" smooth="yes"/>
      <point x="178" y="583" type="line" smooth="yes"/>
      <point x="172" y="595"/>
      <point x="166" y="605"/>
      <point x="166" y="613" type="curve" smooth="yes"/>
      <point x="166" y="625"/>
      <point x="183" y="628"/>
      <point x="210" y="630" type="curve" smooth="yes"/>
      <point x="230" y="633"/>
      <point x="240" y="637"/>
      <point x="240" y="644" type="curve" smooth="yes"/>
      <point x="240" y="649"/>
      <point x="229" y="651"/>
      <point x="213" y="651" type="curve" smooth="yes"/>
      <point x="193" y="651"/>
      <point x="167" y="650"/>
      <point x="137" y="650" type="curve" smooth="yes"/>
      <point x="94" y="650"/>
      <point x="55" y="652"/>
      <point x="27" y="652" type="curve" smooth="yes"/>
      <point x="11" y="652"/>
      <point x="0" y="649"/>
      <point x="0" y="644" type="curve" smooth="yes"/>
      <point x="0" y="638"/>
      <point x="10" y="637"/>
      <point x="32" y="630" type="curve" smooth="yes"/>
      <point x="57" y="622"/>
      <point x="75" y="589"/>
      <point x="87" y="567" type="curve" smooth="yes"/>
      <point x="222" y="331" type="line"/>
      <point x="227" y="320"/>
      <point x="245" y="284"/>
      <point x="245" y="257" type="curve" smooth="yes"/>
      <point x="245" y="66" type="line" smooth="yes"/>
      <point x="245" y="32"/>
      <point x="219" y="19"/>
      <point x="173" y="14" type="curve" smooth="yes"/>
      <point x="152" y="12"/>
      <point x="143" y="8"/>
      <point x="143" y="3" type="curve" smooth="yes"/>
      <point x="143" y="-3"/>
      <point x="154" y="-5"/>
    </contour>
  </outline>
</glyph>
<glyph name="Z" format="1">
  <advance width="562"/>
  <unicode hex="005A"/>
  <outline>
    <contour>
      <point x="497" y="-5" type="curve" smooth="yes"/>
      <point x="506" y="-5"/>
      <point x="510" y="4"/>
      <point x="513" y="12" type="curve" smooth="yes"/>
      <point x="524" y="36"/>
      <point x="548" y="144"/>
      <point x="548" y="157" type="curve" smooth="yes"/>
      <point x="548" y="168"/>
      <point x="544" y="173"/>
      <point x="536" y="173" type="curve" smooth="yes"/>
      <point x="524" y="173"/>
      <point x="513" y="157"/>
      <point x="508" y="143" type="curve" smooth="yes"/>
      <point x="486" y="71"/>
      <point x="453" y="33"/>
      <point x="402" y="29" type="curve" smooth="yes"/>
      <point x="357" y="25"/>
      <point x="311" y="24"/>
      <point x="268" y="24" type="curve" smooth="yes"/>
      <point x="226" y="24"/>
      <point x="188" y="26"/>
      <point x="167" y="29" type="curve"/>
      <point x="154" y="30"/>
      <point x="151" y="38"/>
      <point x="151" y="46" type="curve" smooth="yes"/>
      <point x="151" y="50"/>
      <point x="152" y="55"/>
      <point x="154" y="58" type="curve" smooth="yes"/>
      <point x="271" y="248"/>
      <point x="347" y="365"/>
      <point x="475" y="550" type="curve" smooth="yes"/>
      <point x="531" y="631" type="line" smooth="yes"/>
      <point x="535" y="636"/>
      <point x="527" y="649"/>
      <point x="521" y="649" type="curve" smooth="yes"/>
      <point x="452" y="647"/>
      <point x="383" y="646"/>
      <point x="305" y="646" type="curve" smooth="yes"/>
      <point x="263" y="646"/>
      <point x="219" y="646"/>
      <point x="188" y="646" type="curve" smooth="yes"/>
      <point x="156" y="646"/>
      <point x="120" y="656"/>
      <point x="107" y="662" type="curve" smooth="yes"/>
      <point x="97" y="667"/>
      <point x="83" y="676"/>
      <point x="78" y="676" type="curve" smooth="yes"/>
      <point x="74" y="676"/>
      <point x="65" y="674"/>
      <point x="64" y="659" type="curve" smooth="yes"/>
      <point x="62" y="617"/>
      <point x="47" y="564"/>
      <point x="42" y="545" type="curve"/>
      <point x="40" y="535"/>
      <point x="35" y="519"/>
      <point x="35" y="511" type="curve" smooth="yes"/>
      <point x="36" y="503"/>
      <point x="42" y="498"/>
      <point x="49" y="499" type="curve" smooth="yes"/>
      <point x="66" y="502"/>
      <point x="73" y="527"/>
      <point x="78" y="542" type="curve" smooth="yes"/>
      <point x="92" y="582"/>
      <point x="113" y="612"/>
      <point x="167" y="617" type="curve" smooth="yes"/>
      <point x="187" y="620"/>
      <point x="219" y="620"/>
      <point x="251" y="620" type="curve" smooth="yes"/>
      <point x="299" y="620"/>
      <point x="364" y="619"/>
      <point x="396" y="618" type="curve"/>
      <point x="409" y="617"/>
      <point x="413" y="614"/>
      <point x="413" y="610" type="curve" smooth="yes"/>
      <point x="413" y="608"/>
      <point x="411" y="606"/>
      <point x="409" y="603" type="curve" smooth="yes"/>
      <point x="291" y="411"/>
      <point x="205" y="290"/>
      <point x="79" y="104" type="curve" smooth="yes"/>
      <point x="58" y="73"/>
      <point x="25" y="21"/>
      <point x="25" y="11" type="curve"/>
      <point x="25" y="11"/>
      <point x="26" y="-3"/>
      <point x="32" y="-3" type="curve" smooth="yes"/>
      <point x="104" y="-3" type="line" smooth="yes"/>
      <point x="139" y="-3"/>
      <point x="177" y="-2"/>
      <point x="215" y="-2" type="curve" smooth="yes"/>
      <point x="298" y="-2"/>
      <point x="390" y="-5"/>
    </contour>
  </outline>
</glyph>
<glyph name="bracketleft" format="1">
  <advance width="313"/>
  <unicode hex="005B"/>
  <outline>
    <contour>
      <point x="136" y="-200" type="curve" smooth="yes"/>
      <point x="268" y="-200" type="line" smooth="yes"/>
      <point x="280" y="-200"/>
      <point x="294" y="-197"/>
      <point x="294" y="-188" type="curve" smooth="yes"/>
      <point x="294" y="-180"/>
      <point x="280" y="-175"/>
      <point x="266" y="-175" type="curve" smooth="yes"/>
      <point x="200" y="-175" type="line" smooth="yes"/>
      <point x="184" y="-174"/>
      <point x="173" y="-166"/>
      <point x="173" y="-127" type="curve" smooth="yes"/>
      <point x="173" y="632" type="line" smooth="yes"/>
      <point x="173" y="668"/>
      <point x="180" y="674"/>
      <point x="200" y="676" type="curve" smooth="yes"/>
      <point x="266" y="678" type="line" smooth="yes"/>
      <point x="280" y="678"/>
      <point x="294" y="682"/>
      <point x="294" y="690" type="curve" smooth="yes"/>
      <point x="294" y="699"/>
      <point x="284" y="701"/>
      <point x="274" y="701" type="curve" smooth="yes"/>
      <point x="141" y="702" type="line" smooth="yes"/>
      <point x="109" y="702"/>
      <point x="103" y="702"/>
      <point x="103" y="668" type="curve" smooth="yes"/>
      <point x="103" y="-173" type="line" smooth="yes"/>
      <point x="103" y="-199"/>
      <point x="111" y="-200"/>
    </contour>
  </outline>
</glyph>
<glyph name="asciicircum" format="1">
  <advance width="473"/>
  <unicode hex="005E"/>
  <outline>
    <contour>
      <point x="48" y="284" type="curve" smooth="yes"/>
      <point x="54" y="284"/>
      <point x="66" y="288"/>
      <point x="71" y="295" type="curve" smooth="yes"/>
      <point x="233" y="553" type="line"/>
      <point x="235" y="556"/>
      <point x="236" y="556"/>
      <point x="238" y="553" type="curve"/>
      <point x="405" y="296" type="line" smooth="yes"/>
      <point x="409" y="290"/>
      <point x="420" y="285"/>
      <point x="427" y="285" type="curve" smooth="yes"/>
      <point x="432" y="285"/>
      <point x="434" y="293"/>
      <point x="431" y="297" type="curve"/>
      <point x="237" y="607" type="line"/>
      <point x="234" y="607" type="line"/>
      <point x="45" y="296" type="line"/>
      <point x="44" y="295"/>
      <point x="42" y="292"/>
      <point x="42" y="289" type="curve" smooth="yes"/>
      <point x="42" y="286"/>
      <point x="46" y="284"/>
    </contour>
  </outline>
</glyph>
<glyph name="grave" format="1">
  <advance width="183"/>
  <unicode hex="0060"/>
  <outline>
    <contour>
      <point x="157" y="429" type="curve" smooth="yes"/>
      <point x="164" y="429"/>
      <point x="164" y="429"/>
      <point x="162" y="439" type="curve" smooth="yes"/>
      <point x="162" y="444"/>
      <point x="160" y="453"/>
      <point x="155" y="463" type="curve" smooth="yes"/>
      <point x="143" y="499"/>
      <point x="111" y="574"/>
      <point x="94" y="603" type="curve" smooth="yes"/>
      <point x="87" y="616"/>
      <point x="76" y="625"/>
      <point x="65" y="625" type="curve" smooth="yes"/>
      <point x="41" y="625"/>
      <point x="20" y="619"/>
      <point x="20" y="605" type="curve" smooth="yes"/>
      <point x="21" y="597"/>
      <point x="25" y="591"/>
      <point x="30" y="582" type="curve" smooth="yes"/>
      <point x="54" y="542"/>
      <point x="102" y="482"/>
      <point x="132" y="450" type="curve" smooth="yes"/>
      <point x="141" y="439"/>
      <point x="153" y="430"/>
    </contour>
  </outline>
</glyph>
<glyph name="a" format="1">
  <advance width="375"/>
  <unicode hex="0061"/>
  <outline>
    <contour>
      <point x="109" y="-14" type="curve" smooth="yes"/>
      <point x="150" y="-14"/>
      <point x="195" y="10"/>
      <point x="226" y="53" type="curve"/>
      <point x="229" y="53" type="line"/>
      <point x="239" y="9"/>
      <point x="269" y="-14"/>
      <point x="299" y="-14" type="curve" smooth="yes"/>
      <point x="319" y="-14"/>
      <point x="344" y="4"/>
      <point x="368" y="32" type="curve" smooth="yes"/>
      <point x="371" y="35"/>
      <point x="374" y="42"/>
      <point x="374" y="46" type="curve" smooth="yes"/>
      <point x="374" y="50"/>
      <point x="373" y="54"/>
      <point x="368" y="54" type="curve" smooth="yes"/>
      <point x="364" y="54"/>
      <point x="362" y="50"/>
      <point x="357" y="44" type="curve" smooth="yes"/>
      <point x="349" y="34"/>
      <point x="336" y="26"/>
      <point x="323" y="26" type="curve" smooth="yes"/>
      <point x="299" y="26"/>
      <point x="287" y="44"/>
      <point x="288" y="76" type="curve" smooth="yes"/>
      <point x="293" y="305" type="line" smooth="yes"/>
      <point x="294" y="356"/>
      <point x="261" y="394"/>
      <point x="216" y="394" type="curve" smooth="yes"/>
      <point x="178" y="394"/>
      <point x="120" y="366"/>
      <point x="77" y="325" type="curve" smooth="yes"/>
      <point x="53" y="303"/>
      <point x="39" y="277"/>
      <point x="39" y="256" type="curve" smooth="yes"/>
      <point x="39" y="251"/>
      <point x="42" y="247"/>
      <point x="49" y="247" type="curve" smooth="yes"/>
      <point x="67" y="247"/>
      <point x="110" y="271"/>
      <point x="111" y="282" type="curve" smooth="yes"/>
      <point x="112" y="287"/>
      <point x="110" y="295"/>
      <point x="110" y="299" type="curve" smooth="yes"/>
      <point x="110" y="319"/>
      <point x="114" y="333"/>
      <point x="122" y="341" type="curve" smooth="yes"/>
      <point x="132" y="352"/>
      <point x="148" y="355"/>
      <point x="170" y="355" type="curve" smooth="yes"/>
      <point x="205" y="355"/>
      <point x="225" y="326"/>
      <point x="224" y="289" type="curve" smooth="yes"/>
      <point x="222" y="231" type="line" smooth="yes"/>
      <point x="221" y="205"/>
      <point x="221" y="202"/>
      <point x="196" y="192" type="curve" smooth="yes"/>
      <point x="101" y="152" type="line" smooth="yes"/>
      <point x="55" y="133"/>
      <point x="34" y="111"/>
      <point x="34" y="70" type="curve" smooth="yes"/>
      <point x="34" y="32"/>
      <point x="76" y="-14"/>
    </contour>
    <contour>
      <point x="155" y="26" type="curve" smooth="yes"/>
      <point x="133" y="26"/>
      <point x="110" y="51"/>
      <point x="110" y="88" type="curve" smooth="yes"/>
      <point x="110" y="114"/>
      <point x="128" y="142"/>
      <point x="196" y="172" type="curve" smooth="yes"/>
      <point x="206" y="177"/>
      <point x="211" y="177"/>
      <point x="214" y="177" type="curve" smooth="yes"/>
      <point x="221" y="177"/>
      <point x="223" y="170"/>
      <point x="222" y="155" type="curve" smooth="yes"/>
      <point x="221" y="94" type="line" smooth="yes"/>
      <point x="220" y="69"/>
      <point x="216" y="58"/>
      <point x="209" y="51" type="curve" smooth="yes"/>
      <point x="195" y="35"/>
      <point x="177" y="26"/>
    </contour>
  </outline>
</glyph>
<glyph name="b" format="1">
  <advance width="483"/>
  <unicode hex="0062"/>
  <outline>
    <contour>
      <point x="244" y="-14" type="curve" smooth="yes"/>
      <point x="366" y="-14"/>
      <point x="450" y="76"/>
      <point x="450" y="206" type="curve" smooth="yes"/>
      <point x="450" y="312"/>
      <point x="376" y="394"/>
      <point x="282" y="394" type="curve" smooth="yes"/>
      <point x="241" y="394"/>
      <point x="184" y="369"/>
      <point x="146" y="336" type="curve"/>
      <point x="139" y="337"/>
      <point x="137" y="343"/>
      <point x="137" y="368" type="curve" smooth="yes"/>
      <point x="137" y="593" type="line" smooth="yes"/>
      <point x="137" y="649"/>
      <point x="140" y="693"/>
      <point x="140" y="698" type="curve" smooth="yes"/>
      <point x="140" y="702"/>
      <point x="137" y="705"/>
      <point x="134" y="705" type="curve" smooth="yes"/>
      <point x="132" y="705"/>
      <point x="128" y="704"/>
      <point x="124" y="701" type="curve" smooth="yes"/>
      <point x="112" y="695"/>
      <point x="53" y="676"/>
      <point x="27" y="671" type="curve" smooth="yes"/>
      <point x="21" y="670"/>
      <point x="14" y="667"/>
      <point x="14" y="662" type="curve" smooth="yes"/>
      <point x="14" y="659"/>
      <point x="21" y="655"/>
      <point x="27" y="654" type="curve" smooth="yes"/>
      <point x="64" y="645"/>
      <point x="69" y="641"/>
      <point x="69" y="604" type="curve" smooth="yes"/>
      <point x="69" y="81" type="line" smooth="yes"/>
      <point x="69" y="56"/>
      <point x="62" y="21"/>
      <point x="62" y="9" type="curve" smooth="yes"/>
      <point x="62" y="2"/>
      <point x="66" y="-3"/>
      <point x="68" y="-3" type="curve" smooth="yes"/>
      <point x="70" y="-3"/>
      <point x="72" y="-1"/>
      <point x="73" y="2" type="curve" smooth="yes"/>
      <point x="76" y="8"/>
      <point x="81" y="15"/>
      <point x="90" y="15" type="curve" smooth="yes"/>
      <point x="97" y="15"/>
      <point x="129" y="7"/>
      <point x="158" y="-1" type="curve" smooth="yes"/>
      <point x="184" y="-8"/>
      <point x="215" y="-14"/>
    </contour>
    <contour>
      <point x="263" y="7" type="curve" smooth="yes"/>
      <point x="194" y="7"/>
      <point x="137" y="49"/>
      <point x="137" y="122" type="curve" smooth="yes"/>
      <point x="137" y="308" type="line"/>
      <point x="164" y="334"/>
      <point x="201" y="352"/>
      <point x="249" y="352" type="curve" smooth="yes"/>
      <point x="337" y="352"/>
      <point x="376" y="255"/>
      <point x="376" y="180" type="curve" smooth="yes"/>
      <point x="376" y="82"/>
      <point x="333" y="7"/>
    </contour>
  </outline>
</glyph>
<glyph name="c" format="1">
  <advance width="382"/>
  <unicode hex="0063"/>
  <outline>
    <contour>
      <point x="199" y="-14" type="curve" smooth="yes"/>
      <point x="256" y="-14"/>
      <point x="300" y="9"/>
      <point x="330" y="51" type="curve" smooth="yes"/>
      <point x="339" y="64"/>
      <point x="346" y="82"/>
      <point x="346" y="91" type="curve" smooth="yes"/>
      <point x="347" y="96"/>
      <point x="345" y="98"/>
      <point x="341" y="98" type="curve" smooth="yes"/>
      <point x="339" y="98"/>
      <point x="337" y="96"/>
      <point x="335" y="93" type="curve" smooth="yes"/>
      <point x="302" y="59"/>
      <point x="278" y="45"/>
      <point x="239" y="45" type="curve" smooth="yes"/>
      <point x="163" y="45"/>
      <point x="100" y="120"/>
      <point x="100" y="200" type="curve" smooth="yes"/>
      <point x="100" y="302"/>
      <point x="141" y="371"/>
      <point x="201" y="371" type="curve" smooth="yes"/>
      <point x="222" y="371"/>
      <point x="261" y="338"/>
      <point x="288" y="308" type="curve" smooth="yes"/>
      <point x="295" y="300"/>
      <point x="301" y="295"/>
      <point x="308" y="295" type="curve" smooth="yes"/>
      <point x="324" y="295"/>
      <point x="350" y="318"/>
      <point x="350" y="337" type="curve" smooth="yes"/>
      <point x="350" y="347"/>
      <point x="345" y="355"/>
      <point x="336" y="361" type="curve" smooth="yes"/>
      <point x="307" y="383"/>
      <point x="271" y="394"/>
      <point x="231" y="394" type="curve" smooth="yes"/>
      <point x="120" y="394"/>
      <point x="33" y="296"/>
      <point x="33" y="171" type="curve" smooth="yes"/>
      <point x="33" y="65"/>
      <point x="104" y="-14"/>
    </contour>
  </outline>
</glyph>
<glyph name="d" format="1">
  <advance width="477"/>
  <unicode hex="0064"/>
  <outline>
    <contour>
      <point x="334" y="-19" type="curve" smooth="yes"/>
      <point x="338" y="-19"/>
      <point x="339" y="-19"/>
      <point x="350" y="-13" type="curve" smooth="yes"/>
      <point x="395" y="7"/>
      <point x="426" y="16"/>
      <point x="459" y="20" type="curve" smooth="yes"/>
      <point x="468" y="21"/>
      <point x="475" y="27"/>
      <point x="475" y="35" type="curve" smooth="yes"/>
      <point x="475" y="40"/>
      <point x="468" y="42"/>
      <point x="456" y="41" type="curve" smooth="yes"/>
      <point x="440" y="40"/>
      <point x="424" y="40"/>
      <point x="418" y="40" type="curve" smooth="yes"/>
      <point x="403" y="40"/>
      <point x="398" y="56"/>
      <point x="398" y="86" type="curve" smooth="yes"/>
      <point x="398" y="562" type="line" smooth="yes"/>
      <point x="398" y="652"/>
      <point x="405" y="686"/>
      <point x="404" y="698" type="curve" smooth="yes"/>
      <point x="403" y="702"/>
      <point x="402" y="704"/>
      <point x="398" y="704" type="curve" smooth="yes"/>
      <point x="395" y="704"/>
      <point x="391" y="703"/>
      <point x="385" y="701" type="curve" smooth="yes"/>
      <point x="368" y="693"/>
      <point x="339" y="685"/>
      <point x="286" y="671" type="curve" smooth="yes"/>
      <point x="277" y="669"/>
      <point x="275" y="666"/>
      <point x="275" y="662" type="curve" smooth="yes"/>
      <point x="275" y="659"/>
      <point x="279" y="655"/>
      <point x="285" y="653" type="curve" smooth="yes"/>
      <point x="319" y="649"/>
      <point x="330" y="644"/>
      <point x="330" y="606" type="curve" smooth="yes"/>
      <point x="330" y="406" type="line" smooth="yes"/>
      <point x="330" y="387"/>
      <point x="326" y="380"/>
      <point x="323" y="380" type="curve" smooth="yes"/>
      <point x="320" y="380"/>
      <point x="317" y="381"/>
      <point x="311" y="383" type="curve" smooth="yes"/>
      <point x="297" y="388"/>
      <point x="269" y="394"/>
      <point x="243" y="394" type="curve" smooth="yes"/>
      <point x="112" y="394"/>
      <point x="33" y="293"/>
      <point x="33" y="180" type="curve" smooth="yes"/>
      <point x="33" y="81"/>
      <point x="100" y="-14"/>
      <point x="206" y="-14" type="curve" smooth="yes"/>
      <point x="268" y="-14"/>
      <point x="310" y="25"/>
      <point x="329" y="54" type="curve"/>
      <point x="329" y="51" type="line" smooth="yes"/>
      <point x="329" y="34"/>
      <point x="324" y="4"/>
      <point x="324" y="-9" type="curve" smooth="yes"/>
      <point x="324" y="-12"/>
      <point x="332" y="-19"/>
    </contour>
    <contour>
      <point x="242" y="26" type="curve" smooth="yes"/>
      <point x="201" y="26"/>
      <point x="104" y="47"/>
      <point x="104" y="200" type="curve" smooth="yes"/>
      <point x="104" y="335"/>
      <point x="175" y="372"/>
      <point x="217" y="372" type="curve" smooth="yes"/>
      <point x="294" y="372"/>
      <point x="330" y="335"/>
      <point x="330" y="280" type="curve" smooth="yes"/>
      <point x="329" y="73" type="line"/>
      <point x="305" y="44"/>
      <point x="274" y="26"/>
    </contour>
  </outline>
</glyph>
<glyph name="e" format="1">
  <advance width="368"/>
  <unicode hex="0065"/>
  <outline>
    <contour>
      <point x="201" y="-15" type="curve" smooth="yes"/>
      <point x="251" y="-15"/>
      <point x="298" y="12"/>
      <point x="328" y="55" type="curve" smooth="yes"/>
      <point x="339" y="67"/>
      <point x="346" y="80"/>
      <point x="346" y="93" type="curve" smooth="yes"/>
      <point x="346" y="98"/>
      <point x="344" y="101"/>
      <point x="339" y="101" type="curve" smooth="yes"/>
      <point x="337" y="101"/>
      <point x="335" y="101"/>
      <point x="329" y="91" type="curve" smooth="yes"/>
      <point x="306" y="63"/>
      <point x="273" y="46"/>
      <point x="233" y="46" type="curve" smooth="yes"/>
      <point x="154" y="46"/>
      <point x="90" y="118"/>
      <point x="90" y="206" type="curve" smooth="yes"/>
      <point x="90" y="232"/>
      <point x="96" y="239"/>
      <point x="114" y="239" type="curve" smooth="yes"/>
      <point x="312" y="239" type="line" smooth="yes"/>
      <point x="331" y="239"/>
      <point x="340" y="249"/>
      <point x="340" y="270" type="curve" smooth="yes"/>
      <point x="340" y="343"/>
      <point x="286" y="394"/>
      <point x="211" y="394" type="curve" smooth="yes"/>
      <point x="111" y="394"/>
      <point x="28" y="303"/>
      <point x="28" y="193" type="curve" smooth="yes"/>
      <point x="28" y="68"/>
      <point x="97" y="-15"/>
    </contour>
    <contour>
      <point x="117" y="259" type="line" smooth="yes"/>
      <point x="110" y="259"/>
      <point x="106" y="262"/>
      <point x="106" y="270" type="curve" smooth="yes"/>
      <point x="106" y="317"/>
      <point x="155" y="373"/>
      <point x="197" y="373" type="curve" smooth="yes"/>
      <point x="240" y="373"/>
      <point x="276" y="334"/>
      <point x="276" y="290" type="curve" smooth="yes"/>
      <point x="276" y="274"/>
      <point x="274" y="266"/>
      <point x="268" y="265" type="curve" smooth="yes"/>
      <point x="248" y="260"/>
      <point x="230" y="259"/>
      <point x="200" y="259" type="curve" smooth="yes"/>
    </contour>
  </outline>
</glyph>
<glyph name="f" format="1">
  <advance width="298"/>
  <unicode hex="0066"/>
  <outline>
    <contour>
      <point x="41" y="-3" type="curve" smooth="yes"/>
      <point x="78" y="-3"/>
      <point x="88" y="2"/>
      <point x="120" y="2" type="curve" smooth="yes"/>
      <point x="153" y="2"/>
      <point x="180" y="-3"/>
      <point x="217" y="-3" type="curve" smooth="yes"/>
      <point x="228" y="-3"/>
      <point x="236" y="-1"/>
      <point x="236" y="4" type="curve" smooth="yes"/>
      <point x="236" y="12"/>
      <point x="227" y="14"/>
      <point x="214" y="16" type="curve" smooth="yes"/>
      <point x="172" y="22"/>
      <point x="152" y="26"/>
      <point x="152" y="52" type="curve" smooth="yes"/>
      <point x="152" y="346" type="line" smooth="yes"/>
      <point x="152" y="349"/>
      <point x="155" y="352"/>
      <point x="170" y="352" type="curve" smooth="yes"/>
      <point x="267" y="352" type="line" smooth="yes"/>
      <point x="274" y="352"/>
      <point x="279" y="353"/>
      <point x="282" y="356" type="curve" smooth="yes"/>
      <point x="286" y="360"/>
      <point x="289" y="370"/>
      <point x="289" y="373" type="curve" smooth="yes"/>
      <point x="289" y="376"/>
      <point x="284" y="380"/>
      <point x="277" y="380" type="curve" smooth="yes"/>
      <point x="162" y="380" type="line" smooth="yes"/>
      <point x="157" y="380"/>
      <point x="152" y="381"/>
      <point x="152" y="391" type="curve" smooth="yes"/>
      <point x="152" y="508" type="line" smooth="yes"/>
      <point x="152" y="613"/>
      <point x="201" y="676"/>
      <point x="248" y="676" type="curve" smooth="yes"/>
      <point x="284" y="676"/>
      <point x="303" y="659"/>
      <point x="327" y="626" type="curve" smooth="yes"/>
      <point x="336" y="614"/>
      <point x="347" y="603"/>
      <point x="360" y="603" type="curve" smooth="yes"/>
      <point x="378" y="603"/>
      <point x="394" y="616"/>
      <point x="394" y="642" type="curve" smooth="yes"/>
      <point x="394" y="679"/>
      <point x="360" y="706"/>
      <point x="291" y="706" type="curve" smooth="yes"/>
      <point x="211" y="706"/>
      <point x="84" y="638"/>
      <point x="84" y="409" type="curve" smooth="yes"/>
      <point x="84" y="386" type="line"/>
      <point x="65" y="381"/>
      <point x="52" y="376"/>
      <point x="30" y="369" type="curve" smooth="yes"/>
      <point x="27" y="366"/>
      <point x="23" y="365"/>
      <point x="23" y="362" type="curve" smooth="yes"/>
      <point x="23" y="359"/>
      <point x="32" y="352"/>
      <point x="36" y="352" type="curve" smooth="yes"/>
      <point x="55" y="351"/>
      <point x="72" y="351"/>
      <point x="84" y="351" type="curve"/>
      <point x="84" y="52" type="line" smooth="yes"/>
      <point x="84" y="26"/>
      <point x="71" y="22"/>
      <point x="44" y="16" type="curve" smooth="yes"/>
      <point x="32" y="14"/>
      <point x="23" y="12"/>
      <point x="23" y="4" type="curve" smooth="yes"/>
      <point x="23" y="-1"/>
      <point x="30" y="-3"/>
    </contour>
  </outline>
</glyph>
<glyph name="g" format="1">
  <advance width="409"/>
  <unicode hex="0067"/>
  <outline>
    <contour>
      <point x="184" y="-290" type="curve" smooth="yes"/>
      <point x="286" y="-290"/>
      <point x="394" y="-181"/>
      <point x="393" y="-77" type="curve" smooth="yes"/>
      <point x="393" y="-16"/>
      <point x="340" y="16"/>
      <point x="221" y="24" type="curve" smooth="yes"/>
      <point x="144" y="29"/>
      <point x="100" y="46"/>
      <point x="102" y="74" type="curve" smooth="yes"/>
      <point x="102" y="88"/>
      <point x="119" y="109"/>
      <point x="139" y="120" type="curve"/>
      <point x="127" y="138" type="line"/>
      <point x="115" y="120"/>
      <point x="110" y="115"/>
      <point x="62" y="82" type="curve" smooth="yes"/>
      <point x="45" y="69"/>
      <point x="37" y="58"/>
      <point x="37" y="45" type="curve" smooth="yes"/>
      <point x="37" y="-7"/>
      <point x="76" y="-27"/>
      <point x="194" y="-38" type="curve" smooth="yes"/>
      <point x="303" y="-47"/>
      <point x="334" y="-67"/>
      <point x="334" y="-113" type="curve" smooth="yes"/>
      <point x="334" y="-161"/>
      <point x="316" y="-205"/>
      <point x="286" y="-232" type="curve" smooth="yes"/>
      <point x="264" y="-251"/>
      <point x="233" y="-260"/>
      <point x="195" y="-260" type="curve" smooth="yes"/>
      <point x="133" y="-260"/>
      <point x="84" y="-218"/>
      <point x="84" y="-161" type="curve" smooth="yes"/>
      <point x="84" y="-105"/>
      <point x="102" y="-71"/>
      <point x="148" y="-28" type="curve"/>
      <point x="133" y="-21" type="line"/>
      <point x="99" y="-49"/>
      <point x="64" y="-76"/>
      <point x="45" y="-93" type="curve" smooth="yes"/>
      <point x="20" y="-111"/>
      <point x="10" y="-134"/>
      <point x="10" y="-170" type="curve" smooth="yes"/>
      <point x="10" y="-244"/>
      <point x="77" y="-290"/>
    </contour>
    <contour>
      <point x="194" y="128" type="curve" smooth="yes"/>
      <point x="145" y="128"/>
      <point x="106" y="177"/>
      <point x="106" y="257" type="curve" smooth="yes"/>
      <point x="106" y="327"/>
      <point x="145" y="375"/>
      <point x="188" y="375" type="curve" smooth="yes"/>
      <point x="234" y="375"/>
      <point x="275" y="330"/>
      <point x="275" y="263" type="curve" smooth="yes"/>
      <point x="275" y="181"/>
      <point x="242" y="128"/>
    </contour>
    <contour>
      <point x="188" y="106" type="curve" smooth="yes"/>
      <point x="268" y="106"/>
      <point x="338" y="186"/>
      <point x="338" y="277" type="curve" smooth="yes"/>
      <point x="338" y="289"/>
      <point x="341" y="314"/>
      <point x="344" y="327" type="curve" smooth="yes"/>
      <point x="346" y="335"/>
      <point x="355" y="339"/>
      <point x="372" y="339" type="curve" smooth="yes"/>
      <point x="398" y="339" type="line" smooth="yes"/>
      <point x="400" y="339"/>
      <point x="402" y="341"/>
      <point x="405" y="343" type="curve" smooth="yes"/>
      <point x="411" y="347"/>
      <point x="415" y="352"/>
      <point x="415" y="357" type="curve" smooth="yes"/>
      <point x="415" y="363"/>
      <point x="409" y="369"/>
      <point x="402" y="369" type="curve" smooth="yes"/>
      <point x="393" y="369"/>
      <point x="366" y="367"/>
      <point x="350" y="367" type="curve" smooth="yes"/>
      <point x="332" y="367"/>
      <point x="317" y="368"/>
      <point x="287" y="377" type="curve" smooth="yes"/>
      <point x="261" y="384"/>
      <point x="236" y="396"/>
      <point x="199" y="396" type="curve" smooth="yes"/>
      <point x="114" y="396"/>
      <point x="36" y="335"/>
      <point x="36" y="248" type="curve" smooth="yes"/>
      <point x="36" y="172"/>
      <point x="112" y="106"/>
    </contour>
  </outline>
</glyph>
<glyph name="h" format="1">
  <advance width="484"/>
  <unicode hex="0068"/>
  <outline>
    <contour>
      <point x="37" y="-3" type="curve" smooth="yes"/>
      <point x="74" y="-3"/>
      <point x="80" y="0"/>
      <point x="113" y="0" type="curve" smooth="yes"/>
      <point x="146" y="0"/>
      <point x="148" y="-3"/>
      <point x="186" y="-3" type="curve" smooth="yes"/>
      <point x="200" y="-3"/>
      <point x="205" y="-1"/>
      <point x="205" y="5" type="curve" smooth="yes"/>
      <point x="205" y="11"/>
      <point x="198" y="13"/>
      <point x="184" y="16" type="curve" smooth="yes"/>
      <point x="166" y="21"/>
      <point x="147" y="24"/>
      <point x="147" y="40" type="curve" smooth="yes"/>
      <point x="147" y="258" type="line" smooth="yes"/>
      <point x="147" y="296"/>
      <point x="153" y="309"/>
      <point x="172" y="325" type="curve" smooth="yes"/>
      <point x="190" y="339"/>
      <point x="225" y="346"/>
      <point x="248" y="346" type="curve" smooth="yes"/>
      <point x="290" y="346"/>
      <point x="334" y="308"/>
      <point x="334" y="256" type="curve" smooth="yes"/>
      <point x="334" y="41" type="line" smooth="yes"/>
      <point x="334" y="25"/>
      <point x="315" y="21"/>
      <point x="297" y="16" type="curve" smooth="yes"/>
      <point x="283" y="14"/>
      <point x="275" y="11"/>
      <point x="275" y="4" type="curve" smooth="yes"/>
      <point x="275" y="-2"/>
      <point x="282" y="-3"/>
      <point x="294" y="-3" type="curve" smooth="yes"/>
      <point x="332" y="-3"/>
      <point x="336" y="0"/>
      <point x="369" y="0" type="curve" smooth="yes"/>
      <point x="402" y="0"/>
      <point x="405" y="-3"/>
      <point x="443" y="-3" type="curve" smooth="yes"/>
      <point x="455" y="-3"/>
      <point x="462" y="-2"/>
      <point x="462" y="4" type="curve" smooth="yes"/>
      <point x="462" y="11"/>
      <point x="453" y="13"/>
      <point x="441" y="16" type="curve" smooth="yes"/>
      <point x="422" y="21"/>
      <point x="402" y="25"/>
      <point x="402" y="41" type="curve" smooth="yes"/>
      <point x="402" y="258" type="line" smooth="yes"/>
      <point x="402" y="336"/>
      <point x="356" y="394"/>
      <point x="295" y="394" type="curve" smooth="yes"/>
      <point x="225" y="394"/>
      <point x="162" y="340"/>
      <point x="138" y="320" type="curve"/>
      <point x="156" y="325" type="line"/>
      <point x="149" y="338"/>
      <point x="147" y="344"/>
      <point x="147" y="368" type="curve" smooth="yes"/>
      <point x="147" y="562" type="line" smooth="yes"/>
      <point x="147" y="669"/>
      <point x="155" y="686"/>
      <point x="155" y="698" type="curve" smooth="yes"/>
      <point x="155" y="702"/>
      <point x="152" y="705"/>
      <point x="149" y="705" type="curve" smooth="yes"/>
      <point x="147" y="705"/>
      <point x="145" y="704"/>
      <point x="143" y="703" type="curve"/>
      <point x="111" y="690"/>
      <point x="64" y="675"/>
      <point x="40" y="671" type="curve" smooth="yes"/>
      <point x="31" y="670"/>
      <point x="30" y="667"/>
      <point x="30" y="663" type="curve" smooth="yes"/>
      <point x="30" y="657"/>
      <point x="32" y="653"/>
      <point x="40" y="653" type="curve" smooth="yes"/>
      <point x="69" y="650"/>
      <point x="79" y="636"/>
      <point x="79" y="620" type="curve" smooth="yes"/>
      <point x="79" y="40" type="line" smooth="yes"/>
      <point x="79" y="24"/>
      <point x="57" y="20"/>
      <point x="39" y="16" type="curve" smooth="yes"/>
      <point x="23" y="14"/>
      <point x="17" y="12"/>
      <point x="17" y="5" type="curve" smooth="yes"/>
      <point x="17" y="-1"/>
      <point x="25" y="-3"/>
    </contour>
  </outline>
</glyph>
<glyph name="i" format="1">
  <advance width="232"/>
  <unicode hex="0069"/>
  <outline>
    <contour>
      <point x="41" y="-3" type="curve" smooth="yes"/>
      <point x="78" y="-3"/>
      <point x="85" y="2"/>
      <point x="118" y="2" type="curve" smooth="yes"/>
      <point x="151" y="3"/>
      <point x="159" y="-3"/>
      <point x="195" y="-3" type="curve" smooth="yes"/>
      <point x="207" y="-3"/>
      <point x="214" y="1"/>
      <point x="214" y="5" type="curve" smooth="yes"/>
      <point x="214" y="11"/>
      <point x="202" y="15"/>
      <point x="192" y="17" type="curve" smooth="yes"/>
      <point x="167" y="22"/>
      <point x="152" y="27"/>
      <point x="152" y="47" type="curve" smooth="yes"/>
      <point x="152" y="276" type="line" smooth="yes"/>
      <point x="152" y="321"/>
      <point x="160" y="393"/>
      <point x="160" y="409" type="curve" smooth="yes"/>
      <point x="160" y="413"/>
      <point x="157" y="416"/>
      <point x="153" y="416" type="curve" smooth="yes"/>
      <point x="148" y="416"/>
      <point x="142" y="413"/>
      <point x="137" y="408" type="curve" smooth="yes"/>
      <point x="121" y="391"/>
      <point x="97" y="368"/>
      <point x="43" y="353" type="curve" smooth="yes"/>
      <point x="36" y="351"/>
      <point x="33" y="349"/>
      <point x="33" y="345" type="curve" smooth="yes"/>
      <point x="33" y="340"/>
      <point x="36" y="336"/>
      <point x="44" y="335" type="curve" smooth="yes"/>
      <point x="75" y="330"/>
      <point x="84" y="305"/>
      <point x="84" y="276" type="curve" smooth="yes"/>
      <point x="84" y="47" type="line" smooth="yes"/>
      <point x="84" y="27"/>
      <point x="70" y="22"/>
      <point x="44" y="17" type="curve" smooth="yes"/>
      <point x="34" y="15"/>
      <point x="22" y="11"/>
      <point x="22" y="5" type="curve" smooth="yes"/>
      <point x="22" y="1"/>
      <point x="30" y="-3"/>
    </contour>
    <contour>
      <point x="117" y="501" type="curve" smooth="yes"/>
      <point x="145" y="501"/>
      <point x="167" y="523"/>
      <point x="167" y="551" type="curve" smooth="yes"/>
      <point x="167" y="579"/>
      <point x="145" y="601"/>
      <point x="117" y="601" type="curve" smooth="yes"/>
      <point x="89" y="601"/>
      <point x="68" y="579"/>
      <point x="68" y="551" type="curve" smooth="yes"/>
      <point x="68" y="523"/>
      <point x="89" y="501"/>
    </contour>
  </outline>
</glyph>
<glyph name="j" format="1">
  <advance width="216"/>
  <unicode hex="006A"/>
  <outline>
    <contour>
      <point x="-3" y="-287" type="curve" smooth="yes"/>
      <point x="40" y="-287"/>
      <point x="100" y="-220"/>
      <point x="124" y="-152" type="curve" smooth="yes"/>
      <point x="151" y="-72"/>
      <point x="152" y="29"/>
      <point x="152" y="91" type="curve" smooth="yes"/>
      <point x="152" y="257" type="line" smooth="yes"/>
      <point x="152" y="302"/>
      <point x="155" y="370"/>
      <point x="159" y="409" type="curve"/>
      <point x="159" y="414"/>
      <point x="156" y="416"/>
      <point x="152" y="416" type="curve" smooth="yes"/>
      <point x="150" y="416"/>
      <point x="144" y="410"/>
      <point x="138" y="406" type="curve" smooth="yes"/>
      <point x="121" y="392"/>
      <point x="100" y="369"/>
      <point x="43" y="352" type="curve" smooth="yes"/>
      <point x="37" y="351"/>
      <point x="34" y="347"/>
      <point x="34" y="344" type="curve" smooth="yes"/>
      <point x="34" y="340"/>
      <point x="37" y="337"/>
      <point x="43" y="336" type="curve" smooth="yes"/>
      <point x="74" y="333"/>
      <point x="84" y="310"/>
      <point x="84" y="282" type="curve" smooth="yes"/>
      <point x="84" y="37" type="line" smooth="yes"/>
      <point x="84" y="-31"/>
      <point x="81" y="-164"/>
      <point x="54" y="-224" type="curve" smooth="yes"/>
      <point x="36" y="-263"/>
      <point x="15" y="-229"/>
      <point x="-17" y="-237" type="curve" smooth="yes"/>
      <point x="-23" y="-238"/>
      <point x="-37" y="-252"/>
      <point x="-37" y="-267" type="curve" smooth="yes"/>
      <point x="-37" y="-281"/>
      <point x="-15" y="-287"/>
    </contour>
    <contour>
      <point x="111" y="501" type="curve" smooth="yes"/>
      <point x="140" y="501"/>
      <point x="161" y="523"/>
      <point x="161" y="550" type="curve" smooth="yes"/>
      <point x="161" y="579"/>
      <point x="140" y="601"/>
      <point x="111" y="601" type="curve" smooth="yes"/>
      <point x="83" y="601"/>
      <point x="62" y="579"/>
      <point x="62" y="550" type="curve" smooth="yes"/>
      <point x="62" y="523"/>
      <point x="83" y="501"/>
    </contour>
  </outline>
</glyph>
<glyph name="k" format="1">
  <advance width="443"/>
  <unicode hex="006B"/>
  <outline>
    <contour>
      <point x="39" y="-3" type="curve" smooth="yes"/>
      <point x="76" y="-3"/>
      <point x="80" y="3"/>
      <point x="113" y="3" type="curve" smooth="yes"/>
      <point x="146" y="3"/>
      <point x="143" y="-3"/>
      <point x="179" y="-3" type="curve" smooth="yes"/>
      <point x="184" y="-3"/>
      <point x="202" y="-3"/>
      <point x="202" y="6" type="curve" smooth="yes"/>
      <point x="202" y="13"/>
      <point x="191" y="15"/>
      <point x="180" y="17" type="curve" smooth="yes"/>
      <point x="157" y="21"/>
      <point x="147" y="25"/>
      <point x="147" y="56" type="curve" smooth="yes"/>
      <point x="146" y="97"/>
      <point x="146" y="119"/>
      <point x="146" y="138" type="curve" smooth="yes"/>
      <point x="146" y="161"/>
      <point x="146" y="169"/>
      <point x="147" y="188" type="curve"/>
      <point x="147" y="193"/>
      <point x="149" y="195"/>
      <point x="152" y="195" type="curve" smooth="yes"/>
      <point x="156" y="195"/>
      <point x="157" y="193"/>
      <point x="161" y="188" type="curve" smooth="yes"/>
      <point x="294" y="43" type="line"/>
      <point x="299" y="38"/>
      <point x="301" y="33"/>
      <point x="301" y="30" type="curve" smooth="yes"/>
      <point x="301" y="22"/>
      <point x="288" y="18"/>
      <point x="256" y="17" type="curve" smooth="yes"/>
      <point x="248" y="16"/>
      <point x="241" y="12"/>
      <point x="241" y="7" type="curve" smooth="yes"/>
      <point x="241" y="4"/>
      <point x="245" y="1"/>
      <point x="258" y="1" type="curve" smooth="yes"/>
      <point x="322" y="1"/>
      <point x="385" y="-3"/>
      <point x="434" y="-3" type="curve" smooth="yes"/>
      <point x="445" y="-3"/>
      <point x="453" y="-1"/>
      <point x="453" y="5" type="curve" smooth="yes"/>
      <point x="453" y="10"/>
      <point x="446" y="14"/>
      <point x="436" y="15" type="curve" smooth="yes"/>
      <point x="414" y="18"/>
      <point x="398" y="29"/>
      <point x="367" y="60" type="curve" smooth="yes"/>
      <point x="347" y="80"/>
      <point x="267" y="161"/>
      <point x="214" y="217" type="curve" smooth="yes"/>
      <point x="212" y="219"/>
      <point x="211" y="222"/>
      <point x="211" y="224" type="curve" smooth="yes"/>
      <point x="211" y="227"/>
      <point x="213" y="230"/>
      <point x="217" y="234" type="curve" smooth="yes"/>
      <point x="258" y="275"/>
      <point x="321" y="322"/>
      <point x="342" y="336" type="curve" smooth="yes"/>
      <point x="363" y="351"/>
      <point x="379" y="359"/>
      <point x="401" y="365" type="curve" smooth="yes"/>
      <point x="414" y="368"/>
      <point x="424" y="373"/>
      <point x="424" y="378" type="curve" smooth="yes"/>
      <point x="424" y="384"/>
      <point x="420" y="385"/>
      <point x="411" y="385" type="curve" smooth="yes"/>
      <point x="391" y="385"/>
      <point x="355" y="380"/>
      <point x="327" y="380" type="curve" smooth="yes"/>
      <point x="277" y="380" type="line" smooth="yes"/>
      <point x="264" y="380"/>
      <point x="256" y="376"/>
      <point x="256" y="372" type="curve" smooth="yes"/>
      <point x="256" y="368"/>
      <point x="259" y="366"/>
      <point x="268" y="365" type="curve" smooth="yes"/>
      <point x="294" y="365"/>
      <point x="305" y="359"/>
      <point x="305" y="348" type="curve" smooth="yes"/>
      <point x="305" y="344"/>
      <point x="303" y="340"/>
      <point x="298" y="335" type="curve" smooth="yes"/>
      <point x="265" y="303"/>
      <point x="228" y="268"/>
      <point x="185" y="229" type="curve" smooth="yes"/>
      <point x="171" y="217"/>
      <point x="159" y="211"/>
      <point x="152" y="211" type="curve" smooth="yes"/>
      <point x="149" y="211"/>
      <point x="147" y="214"/>
      <point x="147" y="220" type="curve" smooth="yes"/>
      <point x="147" y="562" type="line" smooth="yes"/>
      <point x="147" y="647"/>
      <point x="156" y="682"/>
      <point x="156" y="696" type="curve" smooth="yes"/>
      <point x="156" y="702"/>
      <point x="155" y="705"/>
      <point x="151" y="705" type="curve" smooth="yes"/>
      <point x="148" y="705"/>
      <point x="140" y="703"/>
      <point x="136" y="700" type="curve" smooth="yes"/>
      <point x="109" y="685"/>
      <point x="69" y="678"/>
      <point x="40" y="672" type="curve" smooth="yes"/>
      <point x="32" y="670"/>
      <point x="28" y="668"/>
      <point x="28" y="662" type="curve" smooth="yes"/>
      <point x="28" y="656"/>
      <point x="31" y="654"/>
      <point x="40" y="653" type="curve" smooth="yes"/>
      <point x="81" y="649"/>
      <point x="79" y="638"/>
      <point x="79" y="596" type="curve" smooth="yes"/>
      <point x="79" y="52" type="line" smooth="yes"/>
      <point x="79" y="26"/>
      <point x="68" y="22"/>
      <point x="39" y="17" type="curve" smooth="yes"/>
      <point x="29" y="15"/>
      <point x="17" y="13"/>
      <point x="17" y="5" type="curve" smooth="yes"/>
      <point x="17" y="-1"/>
      <point x="25" y="-3"/>
    </contour>
  </outline>
</glyph>
<glyph name="l" format="1">
  <advance width="227"/>
  <unicode hex="006C"/>
  <outline>
    <contour>
      <point x="37" y="-3" type="curve" smooth="yes"/>
      <point x="74" y="-3"/>
      <point x="81" y="2"/>
      <point x="114" y="2" type="curve" smooth="yes"/>
      <point x="147" y="2"/>
      <point x="153" y="-3"/>
      <point x="190" y="-3" type="curve" smooth="yes"/>
      <point x="197" y="-3"/>
      <point x="209" y="-3"/>
      <point x="209" y="4" type="curve" smooth="yes"/>
      <point x="209" y="11"/>
      <point x="198" y="15"/>
      <point x="188" y="18" type="curve" smooth="yes"/>
      <point x="169" y="21"/>
      <point x="148" y="24"/>
      <point x="148" y="49" type="curve" smooth="yes"/>
      <point x="148" y="562" type="line" smooth="yes"/>
      <point x="148" y="652"/>
      <point x="155" y="686"/>
      <point x="155" y="698" type="curve" smooth="yes"/>
      <point x="155" y="701"/>
      <point x="152" y="705"/>
      <point x="148" y="705" type="curve" smooth="yes"/>
      <point x="144" y="705"/>
      <point x="141" y="703"/>
      <point x="138" y="701" type="curve" smooth="yes"/>
      <point x="110" y="678"/>
      <point x="84" y="668"/>
      <point x="41" y="662" type="curve" smooth="yes"/>
      <point x="32" y="660"/>
      <point x="29" y="657"/>
      <point x="29" y="652" type="curve" smooth="yes"/>
      <point x="29" y="647"/>
      <point x="33" y="645"/>
      <point x="45" y="642" type="curve" smooth="yes"/>
      <point x="71" y="636"/>
      <point x="80" y="620"/>
      <point x="80" y="589" type="curve" smooth="yes"/>
      <point x="80" y="49" type="line" smooth="yes"/>
      <point x="80" y="24"/>
      <point x="58" y="21"/>
      <point x="40" y="18" type="curve" smooth="yes"/>
      <point x="29" y="15"/>
      <point x="18" y="11"/>
      <point x="18" y="4" type="curve" smooth="yes"/>
      <point x="18" y="-3"/>
      <point x="30" y="-3"/>
    </contour>
  </outline>
</glyph>
<glyph name="m" format="1">
  <advance width="732"/>
  <unicode hex="006D"/>
  <outline>
    <contour>
      <point x="42" y="-3" type="curve" smooth="yes"/>
      <point x="80" y="-3"/>
      <point x="85" y="2"/>
      <point x="118" y="2" type="curve" smooth="yes"/>
      <point x="151" y="2"/>
      <point x="156" y="-3"/>
      <point x="194" y="-3" type="curve" smooth="yes"/>
      <point x="205" y="-3"/>
      <point x="214" y="-1"/>
      <point x="214" y="5" type="curve" smooth="yes"/>
      <point x="214" y="11"/>
      <point x="202" y="14"/>
      <point x="192" y="16" type="curve" smooth="yes"/>
      <point x="173" y="19"/>
      <point x="152" y="21"/>
      <point x="152" y="40" type="curve" smooth="yes"/>
      <point x="152" y="246" type="line" smooth="yes"/>
      <point x="152" y="283"/>
      <point x="159" y="307"/>
      <point x="177" y="322" type="curve" smooth="yes"/>
      <point x="200" y="344"/>
      <point x="226" y="354"/>
      <point x="258" y="354" type="curve" smooth="yes"/>
      <point x="298" y="354"/>
      <point x="332" y="303"/>
      <point x="332" y="250" type="curve" smooth="yes"/>
      <point x="332" y="40" type="line" smooth="yes"/>
      <point x="332" y="20"/>
      <point x="310" y="19"/>
      <point x="291" y="16" type="curve" smooth="yes"/>
      <point x="280" y="14"/>
      <point x="269" y="11"/>
      <point x="269" y="5" type="curve" smooth="yes"/>
      <point x="269" y="-1"/>
      <point x="278" y="-3"/>
      <point x="288" y="-3" type="curve" smooth="yes"/>
      <point x="326" y="-3"/>
      <point x="334" y="2"/>
      <point x="367" y="2" type="curve" smooth="yes"/>
      <point x="400" y="2"/>
      <point x="407" y="-3"/>
      <point x="445" y="-3" type="curve" smooth="yes"/>
      <point x="457" y="-3"/>
      <point x="464" y="-1"/>
      <point x="464" y="5" type="curve" smooth="yes"/>
      <point x="464" y="11"/>
      <point x="455" y="14"/>
      <point x="442" y="16" type="curve" smooth="yes"/>
      <point x="423" y="18"/>
      <point x="400" y="20"/>
      <point x="400" y="40" type="curve" smooth="yes"/>
      <point x="400" y="246" type="line" smooth="yes"/>
      <point x="400" y="284"/>
      <point x="410" y="307"/>
      <point x="426" y="322" type="curve" smooth="yes"/>
      <point x="449" y="344"/>
      <point x="475" y="354"/>
      <point x="507" y="354" type="curve" smooth="yes"/>
      <point x="547" y="354"/>
      <point x="581" y="303"/>
      <point x="581" y="250" type="curve" smooth="yes"/>
      <point x="581" y="40" type="line" smooth="yes"/>
      <point x="581" y="22"/>
      <point x="560" y="19"/>
      <point x="541" y="16" type="curve" smooth="yes"/>
      <point x="529" y="14"/>
      <point x="519" y="11"/>
      <point x="519" y="5" type="curve" smooth="yes"/>
      <point x="519" y="-1"/>
      <point x="527" y="-3"/>
      <point x="538" y="-3" type="curve" smooth="yes"/>
      <point x="576" y="-3"/>
      <point x="584" y="2"/>
      <point x="617" y="2" type="curve" smooth="yes"/>
      <point x="650" y="2"/>
      <point x="654" y="-3"/>
      <point x="692" y="-3" type="curve" smooth="yes"/>
      <point x="706" y="-3"/>
      <point x="711" y="-1"/>
      <point x="711" y="5" type="curve" smooth="yes"/>
      <point x="711" y="11"/>
      <point x="701" y="13"/>
      <point x="689" y="16" type="curve" smooth="yes"/>
      <point x="671" y="20"/>
      <point x="649" y="22"/>
      <point x="649" y="40" type="curve" smooth="yes"/>
      <point x="649" y="255" type="line" smooth="yes"/>
      <point x="649" y="325"/>
      <point x="616" y="394"/>
      <point x="555" y="394" type="curve" smooth="yes"/>
      <point x="494" y="394"/>
      <point x="442" y="364"/>
      <point x="402" y="326" type="curve"/>
      <point x="399" y="326" type="line"/>
      <point x="379" y="377"/>
      <point x="350" y="394"/>
      <point x="305" y="394" type="curve" smooth="yes"/>
      <point x="233" y="394"/>
      <point x="187" y="358"/>
      <point x="159" y="329" type="curve"/>
      <point x="157" y="329" type="line"/>
      <point x="156" y="330"/>
      <point x="155" y="335"/>
      <point x="155" y="341" type="curve" smooth="yes"/>
      <point x="155" y="360"/>
      <point x="159" y="392"/>
      <point x="159" y="401" type="curve" smooth="yes"/>
      <point x="159" y="406"/>
      <point x="157" y="410"/>
      <point x="153" y="410" type="curve" smooth="yes"/>
      <point x="149" y="410"/>
      <point x="146" y="407"/>
      <point x="141" y="402" type="curve" smooth="yes"/>
      <point x="119" y="376"/>
      <point x="97" y="361"/>
      <point x="51" y="350" type="curve" smooth="yes"/>
      <point x="44" y="348"/>
      <point x="40" y="346"/>
      <point x="40" y="342" type="curve" smooth="yes"/>
      <point x="40" y="336"/>
      <point x="44" y="334"/>
      <point x="50" y="332" type="curve" smooth="yes"/>
      <point x="78" y="328"/>
      <point x="84" y="309"/>
      <point x="84" y="272" type="curve" smooth="yes"/>
      <point x="84" y="40" type="line" smooth="yes"/>
      <point x="84" y="21"/>
      <point x="62" y="19"/>
      <point x="45" y="16" type="curve" smooth="yes"/>
      <point x="32" y="14"/>
      <point x="22" y="11"/>
      <point x="22" y="5" type="curve" smooth="yes"/>
      <point x="22" y="-2"/>
      <point x="32" y="-3"/>
    </contour>
  </outline>
</glyph>
<glyph name="n" format="1">
  <advance width="496"/>
  <unicode hex="006E"/>
  <outline>
    <contour>
      <point x="41" y="-3" type="curve" smooth="yes"/>
      <point x="79" y="-3"/>
      <point x="85" y="0"/>
      <point x="118" y="0" type="curve" smooth="yes"/>
      <point x="151" y="0"/>
      <point x="157" y="-3"/>
      <point x="195" y="-3" type="curve" smooth="yes"/>
      <point x="207" y="-3"/>
      <point x="214" y="-1"/>
      <point x="214" y="5" type="curve" smooth="yes"/>
      <point x="214" y="9"/>
      <point x="207" y="12"/>
      <point x="192" y="15" type="curve" smooth="yes"/>
      <point x="174" y="17"/>
      <point x="152" y="21"/>
      <point x="152" y="35" type="curve" smooth="yes"/>
      <point x="152" y="285" type="line" smooth="yes"/>
      <point x="152" y="293"/>
      <point x="155" y="305"/>
      <point x="159" y="311" type="curve" smooth="yes"/>
      <point x="181" y="339"/>
      <point x="217" y="354"/>
      <point x="262" y="354" type="curve" smooth="yes"/>
      <point x="311" y="354"/>
      <point x="344" y="315"/>
      <point x="344" y="251" type="curve" smooth="yes"/>
      <point x="344" y="35" type="line" smooth="yes"/>
      <point x="344" y="21"/>
      <point x="323" y="18"/>
      <point x="304" y="15" type="curve" smooth="yes"/>
      <point x="294" y="12"/>
      <point x="283" y="9"/>
      <point x="283" y="3" type="curve" smooth="yes"/>
      <point x="283" y="-3"/>
      <point x="295" y="-3"/>
      <point x="302" y="-3" type="curve" smooth="yes"/>
      <point x="340" y="-3"/>
      <point x="346" y="0"/>
      <point x="379" y="0" type="curve" smooth="yes"/>
      <point x="413" y="0"/>
      <point x="417" y="-3"/>
      <point x="455" y="-3" type="curve" smooth="yes"/>
      <point x="463" y="-3"/>
      <point x="474" y="-3"/>
      <point x="474" y="3" type="curve" smooth="yes"/>
      <point x="474" y="9"/>
      <point x="463" y="12"/>
      <point x="453" y="15" type="curve" smooth="yes"/>
      <point x="434" y="18"/>
      <point x="413" y="21"/>
      <point x="413" y="35" type="curve" smooth="yes"/>
      <point x="413" y="254" type="line" smooth="yes"/>
      <point x="413" y="332"/>
      <point x="368" y="393"/>
      <point x="307" y="393" type="curve" smooth="yes"/>
      <point x="248" y="393"/>
      <point x="201" y="373"/>
      <point x="157" y="332" type="curve"/>
      <point x="156" y="338"/>
      <point x="155" y="345"/>
      <point x="155" y="352" type="curve" smooth="yes"/>
      <point x="155" y="370"/>
      <point x="159" y="392"/>
      <point x="159" y="402" type="curve" smooth="yes"/>
      <point x="159" y="406"/>
      <point x="158" y="410"/>
      <point x="154" y="410" type="curve" smooth="yes"/>
      <point x="150" y="410"/>
      <point x="147" y="408"/>
      <point x="143" y="404" type="curve" smooth="yes"/>
      <point x="117" y="382"/>
      <point x="93" y="363"/>
      <point x="50" y="351" type="curve" smooth="yes"/>
      <point x="44" y="349"/>
      <point x="40" y="347"/>
      <point x="40" y="343" type="curve" smooth="yes"/>
      <point x="40" y="337"/>
      <point x="43" y="335"/>
      <point x="50" y="333" type="curve" smooth="yes"/>
      <point x="82" y="326"/>
      <point x="84" y="295"/>
      <point x="84" y="257" type="curve" smooth="yes"/>
      <point x="84" y="35" type="line" smooth="yes"/>
      <point x="84" y="21"/>
      <point x="62" y="17"/>
      <point x="44" y="15" type="curve" smooth="yes"/>
      <point x="30" y="12"/>
      <point x="22" y="11"/>
      <point x="22" y="5" type="curve" smooth="yes"/>
      <point x="22" y="-1"/>
      <point x="30" y="-3"/>
    </contour>
  </outline>
</glyph>
<glyph name="o" format="1">
  <advance width="462"/>
  <unicode hex="006F"/>
  <outline>
    <contour>
      <point x="218" y="-14" type="curve" smooth="yes"/>
      <point x="344" y="-14"/>
      <point x="430" y="72"/>
      <point x="430" y="202" type="curve" smooth="yes"/>
      <point x="430" y="310"/>
      <point x="344" y="394"/>
      <point x="237" y="394" type="curve" smooth="yes"/>
      <point x="128" y="394"/>
      <point x="33" y="294"/>
      <point x="33" y="178" type="curve" smooth="yes"/>
      <point x="33" y="66"/>
      <point x="111" y="-14"/>
    </contour>
    <contour>
      <point x="238" y="8" type="curve" smooth="yes"/>
      <point x="170" y="8"/>
      <point x="112" y="92"/>
      <point x="112" y="200" type="curve" smooth="yes"/>
      <point x="112" y="315"/>
      <point x="148" y="371"/>
      <point x="222" y="371" type="curve" smooth="yes"/>
      <point x="292" y="371"/>
      <point x="350" y="286"/>
      <point x="350" y="179" type="curve" smooth="yes"/>
      <point x="350" y="59"/>
      <point x="317" y="8"/>
    </contour>
  </outline>
</glyph>
<glyph name="p" format="1">
  <advance width="489"/>
  <unicode hex="0070"/>
  <outline>
    <contour>
      <point x="37" y="-285" type="curve" smooth="yes"/>
      <point x="74" y="-285"/>
      <point x="80" y="-282"/>
      <point x="113" y="-282" type="curve" smooth="yes"/>
      <point x="146" y="-282"/>
      <point x="165" y="-285"/>
      <point x="203" y="-285" type="curve" smooth="yes"/>
      <point x="211" y="-285"/>
      <point x="223" y="-283"/>
      <point x="223" y="-276" type="curve" smooth="yes"/>
      <point x="223" y="-272"/>
      <point x="213" y="-268"/>
      <point x="201" y="-265" type="curve" smooth="yes"/>
      <point x="183" y="-263"/>
      <point x="147" y="-261"/>
      <point x="147" y="-243" type="curve" smooth="yes"/>
      <point x="147" y="-32" type="line" smooth="yes"/>
      <point x="147" y="-26"/>
      <point x="148" y="17"/>
      <point x="151" y="17" type="curve"/>
      <point x="170" y="0"/>
      <point x="219" y="-14"/>
      <point x="245" y="-14" type="curve" smooth="yes"/>
      <point x="364" y="-14"/>
      <point x="457" y="100"/>
      <point x="457" y="214" type="curve" smooth="yes"/>
      <point x="457" y="303"/>
      <point x="399" y="393"/>
      <point x="302" y="393" type="curve" smooth="yes"/>
      <point x="243" y="393"/>
      <point x="168" y="348"/>
      <point x="150" y="329" type="curve"/>
      <point x="149" y="327"/>
      <point x="149" y="331"/>
      <point x="149" y="336" type="curve" smooth="yes"/>
      <point x="149" y="352"/>
      <point x="154" y="385"/>
      <point x="154" y="397" type="curve" smooth="yes"/>
      <point x="154" y="401"/>
      <point x="151" y="406"/>
      <point x="148" y="406" type="curve" smooth="yes"/>
      <point x="146" y="406"/>
      <point x="146" y="405"/>
      <point x="144" y="405" type="curve"/>
      <point x="115" y="392"/>
      <point x="84" y="379"/>
      <point x="39" y="367" type="curve" smooth="yes"/>
      <point x="33" y="365"/>
      <point x="29" y="362"/>
      <point x="29" y="356" type="curve" smooth="yes"/>
      <point x="29" y="352"/>
      <point x="33" y="348"/>
      <point x="40" y="347" type="curve" smooth="yes"/>
      <point x="72" y="343"/>
      <point x="79" y="321"/>
      <point x="79" y="293" type="curve" smooth="yes"/>
      <point x="79" y="-243" type="line" smooth="yes"/>
      <point x="79" y="-258"/>
      <point x="58" y="-262"/>
      <point x="39" y="-265" type="curve" smooth="yes"/>
      <point x="28" y="-268"/>
      <point x="17" y="-272"/>
      <point x="17" y="-276" type="curve" smooth="yes"/>
      <point x="17" y="-283"/>
      <point x="29" y="-285"/>
    </contour>
    <contour>
      <point x="258" y="9" type="curve" smooth="yes"/>
      <point x="198" y="9"/>
      <point x="147" y="54"/>
      <point x="147" y="155" type="curve" smooth="yes"/>
      <point x="147" y="178"/>
      <point x="150" y="246"/>
      <point x="150" y="299" type="curve" smooth="yes"/>
      <point x="150" y="314"/>
      <point x="208" y="352"/>
      <point x="252" y="352" type="curve" smooth="yes"/>
      <point x="318" y="352"/>
      <point x="379" y="301"/>
      <point x="379" y="181" type="curve" smooth="yes"/>
      <point x="379" y="58"/>
      <point x="325" y="9"/>
    </contour>
  </outline>
</glyph>
<glyph name="q" format="1">
  <advance width="490"/>
  <unicode hex="0071"/>
  <outline>
    <contour>
      <point x="308" y="-285" type="curve" smooth="yes"/>
      <point x="346" y="-285"/>
      <point x="352" y="-280"/>
      <point x="385" y="-280" type="curve" smooth="yes"/>
      <point x="420" y="-280"/>
      <point x="433" y="-285"/>
      <point x="471" y="-285" type="curve" smooth="yes"/>
      <point x="478" y="-285"/>
      <point x="489" y="-284"/>
      <point x="489" y="-278" type="curve" smooth="yes"/>
      <point x="489" y="-272"/>
      <point x="478" y="-269"/>
      <point x="468" y="-267" type="curve" smooth="yes"/>
      <point x="448" y="-262"/>
      <point x="420" y="-262"/>
      <point x="420" y="-242" type="curve" smooth="yes"/>
      <point x="420" y="285" type="line" smooth="yes"/>
      <point x="420" y="335"/>
      <point x="431" y="379"/>
      <point x="431" y="391" type="curve" smooth="yes"/>
      <point x="431" y="396"/>
      <point x="425" y="400"/>
      <point x="418" y="400" type="curve" smooth="yes"/>
      <point x="415" y="400"/>
      <point x="411" y="397"/>
      <point x="408" y="391" type="curve" smooth="yes"/>
      <point x="403" y="382"/>
      <point x="396" y="371"/>
      <point x="383" y="371" type="curve" smooth="yes"/>
      <point x="362" y="371"/>
      <point x="322" y="393"/>
      <point x="261" y="393" type="curve" smooth="yes"/>
      <point x="125" y="393"/>
      <point x="33" y="304"/>
      <point x="33" y="170" type="curve" smooth="yes"/>
      <point x="33" y="53"/>
      <point x="121" y="-14"/>
      <point x="218" y="-14" type="curve" smooth="yes"/>
      <point x="267" y="-14"/>
      <point x="320" y="22"/>
      <point x="338" y="39" type="curve" smooth="yes"/>
      <point x="340" y="41"/>
      <point x="343" y="41"/>
      <point x="346" y="40" type="curve" smooth="yes"/>
      <point x="350" y="40"/>
      <point x="352" y="33"/>
      <point x="352" y="12" type="curve" smooth="yes"/>
      <point x="352" y="-243" type="line" smooth="yes"/>
      <point x="352" y="-258"/>
      <point x="332" y="-261"/>
      <point x="312" y="-267" type="curve" smooth="yes"/>
      <point x="301" y="-269"/>
      <point x="290" y="-271"/>
      <point x="290" y="-279" type="curve" smooth="yes"/>
      <point x="290" y="-284"/>
      <point x="302" y="-285"/>
    </contour>
    <contour>
      <point x="254" y="28" type="curve" smooth="yes"/>
      <point x="202" y="28"/>
      <point x="112" y="63"/>
      <point x="112" y="193" type="curve" smooth="yes"/>
      <point x="112" y="304"/>
      <point x="174" y="367"/>
      <point x="240" y="367" type="curve" smooth="yes"/>
      <point x="311" y="367"/>
      <point x="349" y="331"/>
      <point x="352" y="262" type="curve" smooth="yes"/>
      <point x="352" y="231"/>
      <point x="352" y="109"/>
      <point x="352" y="69" type="curve"/>
      <point x="336" y="49"/>
      <point x="295" y="28"/>
    </contour>
  </outline>
</glyph>
